<?xml version="1.0" encoding="utf-8"?>
<!-- Generator: Adobe Illustrator 27.5.0, SVG Export Plug-In . SVG Version: 6.00 Build 0)  -->
<svg version="1.1" id="Layer_1" xmlns="http://www.w3.org/2000/svg" xmlns:xlink="http://www.w3.org/1999/xlink" x="0px" y="0px"
	 viewBox="0 0 3000 2000" style="enable-background:new 0 0 3000 2000;" xml:space="preserve">
<g>
	<rect style="fill:transparent;" width="3000" height="2000"/>
	<path style="fill:#EBF2F9;" d="M2381.366,1067.988c-373.65,19.214-327.566-796.436-974.552-403.732
		c-140.489,85.273-453.163-93.81-578.08,279.3c-29.705,88.724-252.784,94.902-396.958,166.053
		c-226.151,111.608-162.285,587.872,51.362,589.747c213.647,1.875,1783.262-3.734,1783.262-3.734s242.353-5.7,345.914-150.942
		C2799.925,1281.556,2715.376,1050.812,2381.366,1067.988z"/>
	<g>
		<path style="fill:#82B378;" d="M912.202,1344.627c0,0,50.812-411.888-82.682-445.932
			c-133.493-34.044,53.997,305.476-86.996,189.714C601.531,972.646,643.901,1277.913,912.202,1344.627z"/>
		<path style="fill:#A8D29F;" d="M1887.522,1703.064h698.8c0,0,109.333-72.731,64.667-115.398c-44.667-42.667-216,86-230.667-13.333
			C2405.655,1475,2405.655,1475,2405.655,1475s118.009-208.591-18.667-238c-136.676-29.409-215.884,257.841-297.667,183.421
			c-81.782-74.421,26.423-181.017-123.14-217.011C1816.62,1167.416,1887.522,1703.064,1887.522,1703.064z"/>
		<g id="man_1_">
			<path style="fill:#233862;" d="M2266.503,1659.365c0,0,5.31,43.182-3.157,45.164c-3.281,0.769-100.884-0.207-100.884-0.207
				s0-11.668,15.989-14.261c15.989-2.593,44.078-12.1,48.831-33.274C2232.035,1635.613,2266.503,1659.365,2266.503,1659.365z"/>
			<path style="fill:#2B478B;" d="M2169.9,1435.985c0,36.83,42.547,231.261,42.547,231.261s42.917,7.707,61.461-10.723
				c0,0-4.031-180.354-10.481-218.716c-1.306-7.765,0.766-19.229,4.797-33.162c15.891-54.891,62.147-148.014,51.536-203.219
				c-13.303-69.202-107.314,5.345-107.314,5.345s-4.112,18.577-9.772,45.297C2190.113,1311.319,2169.9,1410.603,2169.9,1435.985z"/>
			<path style="fill:#233862;" d="M2202.675,1252.067l65.55,152.577c15.891-54.891,62.147-148.014,51.536-203.219
				c-13.303-69.202-107.314,5.345-107.314,5.345S2208.335,1225.348,2202.675,1252.067z"/>
			<path style="fill:#E49963;" d="M2055.825,1135.39c0,0-21.167-33.377-29.798-33.761c-8.632-0.385-30.125-8.494-32.888-4.119
				c-2.763,4.375,13.242,14.95,20.162,20.386c6.921,5.437,11.425,19.532,23.108,20.038
				C2048.092,1138.441,2055.825,1135.39,2055.825,1135.39z"/>
			<path style="fill:#5F9AA8;" d="M2204.137,894.946c0,0-45.151,131.993-65.896,157.042c-20.744,25.049-93.531,62.059-94.165,65.367
				c-1.507,7.859,4.509,20.132,11.325,20.169c24.197,0.131,73.239-18.257,95.955-40.026
				c24.038-23.037,62.082-154.669,62.082-154.669L2204.137,894.946z"/>
			<path style="fill:#E49963;" d="M1994.501,1051.67c0,0-25.815-0.403-39.885-9.216c-14.07-8.813-42.534-8.444-48.313-4.015
				c-5.779,4.428-4.826,7.076,2.23,11.08c7.056,4.004,30.788,22.812,50.26,21.009c19.472-1.802,42.568,4.254,42.568,4.254
				L1994.501,1051.67z"/>
			<path style="fill:#233862;" d="M2505.05,1620.695c0,0,17.718,16.421,14.261,28.089c-3.457,11.667-19.446,19.446-21.607,33.707
				c-2.16,14.26-10.803,22.038-18.582,22.038s-37.084,0-37.084,0s-5.726-10.034,8.103-13.06
				c13.828-3.024,19.042-19.782,18.178-35.339c-0.864-15.557,1.297-36.299,1.297-36.299l29.385-6.915L2505.05,1620.695z"/>
			<path style="fill:#2B478B;" d="M2210.751,1165.358c0,0,111.506,215.033,173.734,326.523
				c62.228,111.491,81.673,142.605,81.673,142.605s35.652-14.261,38.892-23.984c0,0-31.994-184.451-83.703-249.596
				c-23.539-29.655-22.468-113.309-29.456-160.072c-4.602-30.799-25.557-85.196-25.557-85.196L2210.751,1165.358z"/>
			<path style="fill:#E49963;" d="M2166.667,847.603c-11.586,13.916-15.803,28.082-15.803,28.082
				c38.693-2.669,86.73-55.374,86.73-55.374s-28.066-7.756-47.852-38.773c-1-1.564-1.975-3.185-2.919-4.861
				c-3.015-5.33-5.764-11.272-8.111-17.891l-11.473,20.116l-19.077,33.452c0,0,3.991,9.909,13.199,26.172
				C2162.966,841.363,2164.732,844.394,2166.667,847.603z"/>
			<path style="fill:#80BDCC;" d="M2139.069,931.439c1.193,18.802,6.861,47.288,14.561,78.885
				c2.991,12.24,6.281,24.946,9.732,37.742c5.604,20.761,11.441,41.644,17.463,61.301l0.226,0.701
				c0.435,1.999,1.113,4.12,1.725,6.063c5.225,17.36,10.232,33.428,14.594,47.07c8.353,26.091,8.409,40.624,15.077,43.57
				c13.397,5.921,66.143-0.435,97.749-14.134c26.704-11.369,67.393-45.655,67.185-62.914c-0.241-20.004-27.086-80.231-44.88-150.554
				c-21.955-85.899-70.653-154.497-111.265-168.639c-3.031-0.983-6.272,5.386-18.044,16.69
				c-10.876,10.433-24.575,16.948-37.54,18.334l-7.733,12.9C2147.446,876.919,2137.125,900.776,2139.069,931.439z"/>
			<path style="fill:#5F9AA8;" d="M2153.629,1010.323c2.991,12.24,6.281,24.946,9.732,37.742
				c5.604,20.761,11.441,41.644,17.463,61.301l0.226,0.701c0.435,1.999,1.113,4.12,1.725,6.063
				c5.225,17.36,10.232,33.428,14.594,47.07c84.465-107.29,36.564-235.777,36.564-235.777L2153.629,1010.323z"/>
			<path style="fill:#80BDCC;" d="M2260.27,899.158c0,0-79.769,185.17-129.354,190.147c-24.466,2.457-127.585-5.011-157.057-10.989
				c0,0-5.517-7.692,2.614-30.63c0,0,112.801-9.596,132.963-26.08c30.004-24.531,20.579-128.116,55.6-149.286
				C2200.055,851.151,2249.223,851.384,2260.27,899.158z"/>
			<path style="fill:#D68D5D;" d="M2148.163,812.353c0,0,3.991,9.909,13.199,26.172c23.704-17.448,27.751-45.466,28.381-56.987
				c0.185-3.257,0.089-5.2,0.089-5.2s-1.104,0.121-3.008,0.339c-3.999,0.451-11.529,1.306-19.584,2.225L2148.163,812.353z"/>
			<path style="fill:#E49963;" d="M2137.318,815.675c0,0,60.566-12.888,51.96-50.482s-6.586-64.577-45.62-57.937
				c-39.034,6.639-43.237,22.699-43.416,35.945C2100.062,756.447,2121.341,818.058,2137.318,815.675z"/>
			<path style="fill:#2B478B;" d="M2189.865,767.789c0,0-19.825-47.099-74.629-34.381c-37.537,8.711-27.696-29.381-25.484-35.67
				c0,0,29.158-5.479,59.315-10.291C2212.362,677.346,2193.246,758.299,2189.865,767.789z"/>
		</g>
		<g>
			<path style="fill:#FFB93E;" d="M2063.954,1660.807v30.501c0,2.43-0.74,4.685-2.014,6.563c-1.339,1.975-3.262,3.528-5.517,4.399
				c-0.688,0.273-1.41,0.474-2.151,0.604c-0.676,0.124-1.365,0.188-2.073,0.188h-485.84c-6.264,0-11.423-4.964-11.742-11.15
				c-0.006-0.201-0.013-0.403-0.013-0.604v-30.501c0-0.201,0.007-0.403,0.013-0.604c0.319-6.186,5.478-11.15,11.742-11.15h485.84
				c0.708,0,1.397,0.064,2.073,0.188c0.741,0.13,1.462,0.332,2.151,0.604c2.255,0.871,4.178,2.424,5.517,4.399
				C2063.214,1656.122,2063.954,1658.377,2063.954,1660.807z"/>
			<path style="fill:#FFA412;" d="M1825.382,1703.063h-260.283c-5.588,0-10.195-4.964-10.481-11.15
				c-0.006-0.201-0.013-0.403-0.013-0.604v-30.501c0-0.201,0.007-0.403,0.013-0.604c0.286-6.186,4.893-11.15,10.481-11.15h228.319
				C1797.063,1664.953,1805.563,1686.942,1825.382,1703.063z"/>
			<g>
				<rect x="1999.315" y="1649.054" style="fill:#FFA412;" width="5.522" height="54.011"/>
				<rect x="1980.623" y="1649.054" style="fill:#FFA412;" width="5.522" height="54.011"/>
				<rect x="1958.209" y="1649.054" style="fill:#FFA412;" width="5.522" height="54.011"/>
				<rect x="1923.853" y="1649.054" style="fill:#FFA412;" width="5.522" height="54.011"/>
				<rect x="1887.522" y="1649.054" style="fill:#FFA412;" width="5.522" height="54.011"/>
				<rect x="1831.825" y="1649.054" style="fill:#FFA412;" width="5.522" height="54.011"/>
				<rect x="1779.676" y="1649.054" style="fill:#FFA412;" width="5.522" height="54.011"/>
				<rect x="1733.11" y="1649.054" style="fill:#FFA412;" width="5.522" height="54.011"/>
				<rect x="2017.106" y="1649.054" style="fill:#FFA412;" width="5.522" height="54.011"/>
				<rect x="2028.86" y="1649.054" style="fill:#FFA412;" width="5.522" height="54.011"/>
				<rect x="2040.211" y="1649.054" style="fill:#FFA412;" width="5.522" height="54.011"/>
				<path style="fill:#FFA412;" d="M2054.272,1649.24v53.635c-0.676,0.124-1.365,0.188-2.073,0.188h-3.45v-54.011h3.45
					C2052.908,1649.052,2053.596,1649.117,2054.272,1649.24z"/>
				<path style="fill:#FFA412;" d="M2061.94,1654.244v43.628c-1.339,1.975-3.262,3.528-5.517,4.399v-52.426
					C2058.678,1650.715,2060.601,1652.268,2061.94,1654.244z"/>
			</g>
		</g>
		<g>
			<path style="fill:#FFB93E;" d="M1936.861,1073.157v30.501c0,2.43-0.74,4.685-2.014,6.563c-1.339,1.975-3.262,3.528-5.517,4.399
				c-0.689,0.273-1.41,0.474-2.151,0.604c-0.676,0.123-1.365,0.188-2.073,0.188h-485.84c-6.264,0-11.423-4.964-11.742-11.15
				c-0.006-0.201-0.013-0.403-0.013-0.604v-30.501c0-0.201,0.007-0.403,0.013-0.604c0.319-6.186,5.478-11.15,11.742-11.15h485.84
				c0.708,0,1.397,0.064,2.073,0.188c0.741,0.13,1.463,0.332,2.151,0.604c2.255,0.871,4.178,2.424,5.517,4.399
				C1936.12,1068.472,1936.861,1070.727,1936.861,1073.157z"/>
			<path style="fill:#FFA412;" d="M1698.288,1115.413h-260.283c-5.588,0-10.195-4.964-10.481-11.15
				c-0.006-0.201-0.013-0.403-0.013-0.604v-30.501c0-0.201,0.007-0.403,0.013-0.604c0.286-6.186,4.893-11.15,10.481-11.15h228.319
				C1669.97,1077.303,1678.469,1099.291,1698.288,1115.413z"/>
			<g>
				<rect x="1872.222" y="1061.403" style="fill:#FFA412;" width="5.522" height="54.011"/>
				<rect x="1853.53" y="1061.403" style="fill:#FFA412;" width="5.522" height="54.011"/>
				<rect x="1831.116" y="1061.403" style="fill:#FFA412;" width="5.522" height="54.011"/>
				<rect x="1796.759" y="1061.403" style="fill:#FFA412;" width="5.522" height="54.011"/>
				<rect x="1760.428" y="1061.403" style="fill:#FFA412;" width="5.522" height="54.011"/>
				<rect x="1704.731" y="1061.403" style="fill:#FFA412;" width="5.522" height="54.011"/>
				<rect x="1652.583" y="1061.403" style="fill:#FFA412;" width="5.522" height="54.011"/>
				<rect x="1606.017" y="1061.403" style="fill:#FFA412;" width="5.522" height="54.011"/>
				<rect x="1890.013" y="1061.403" style="fill:#FFA412;" width="5.522" height="54.011"/>
				<rect x="1901.767" y="1061.403" style="fill:#FFA412;" width="5.522" height="54.011"/>
				<rect x="1913.117" y="1061.403" style="fill:#FFA412;" width="5.522" height="54.011"/>
				<path style="fill:#FFA412;" d="M1927.179,1061.59v53.635c-0.676,0.123-1.365,0.188-2.073,0.188h-3.45v-54.011h3.45
					C1925.814,1061.402,1926.503,1061.467,1927.179,1061.59z"/>
				<path style="fill:#FFA412;" d="M1934.847,1066.593v43.628c-1.339,1.975-3.262,3.528-5.517,4.399v-52.426
					C1931.585,1063.065,1933.508,1064.618,1934.847,1066.593z"/>
			</g>
		</g>
		<g>
			<path style="fill:#FFB93E;" d="M2012.01,1606.796v30.501c0,2.43-0.741,4.685-2.014,6.563c-1.339,1.975-3.262,3.528-5.517,4.399
				c-0.689,0.273-1.41,0.475-2.151,0.604c-0.676,0.123-1.365,0.189-2.073,0.189h-485.84c-6.264,0-11.423-4.965-11.742-11.151
				c-0.006-0.201-0.013-0.403-0.013-0.604v-30.501c0-0.201,0.007-0.402,0.013-0.604c0.319-6.185,5.478-11.15,11.742-11.15h485.84
				c0.312,0,0.623,0.013,0.929,0.039c0.13,0.006,0.266,0.019,0.396,0.039c0.143,0.013,0.292,0.033,0.435,0.059
				c0.104,0.013,0.208,0.032,0.312,0.052c0.741,0.13,1.462,0.331,2.151,0.604c0.104,0.039,0.201,0.078,0.305,0.123
				c0.097,0.039,0.202,0.084,0.299,0.13c0.195,0.091,0.396,0.189,0.591,0.286c0.11,0.058,0.227,0.124,0.338,0.189
				c0.104,0.058,0.201,0.111,0.299,0.175c0.189,0.111,0.37,0.227,0.552,0.351c0.208,0.143,0.41,0.293,0.604,0.449
				c0.156,0.117,0.305,0.241,0.454,0.37c0.007,0.007,0.02,0.013,0.027,0.026c0.097,0.085,0.201,0.176,0.299,0.267
				c0.299,0.273,0.585,0.572,0.851,0.877c0.084,0.091,0.163,0.182,0.234,0.273c0.078,0.091,0.149,0.188,0.227,0.286
				c0.149,0.195,0.299,0.396,0.435,0.597C2011.269,1602.11,2012.01,1604.365,2012.01,1606.796z"/>
			<path style="fill:#FFA412;" d="M1773.437,1649.052h-260.282c-5.595,0-10.195-4.965-10.481-11.151
				c-0.006-0.201-0.013-0.403-0.013-0.604v-30.501c0-0.201,0.007-0.402,0.013-0.604c0.286-6.185,4.887-11.15,10.481-11.15h228.312
				c0.104,0.443,0.208,0.884,0.318,1.332C1745.599,1612.15,1754.157,1633.379,1773.437,1649.052z"/>
			<g>
				<rect x="1947.369" y="1595.042" style="fill:#FFA412;" width="5.522" height="54.011"/>
				<rect x="1928.678" y="1595.042" style="fill:#FFA412;" width="5.522" height="54.011"/>
				<rect x="1906.264" y="1595.042" style="fill:#FFA412;" width="5.522" height="54.011"/>
				<rect x="1871.907" y="1595.042" style="fill:#FFA412;" width="5.522" height="54.011"/>
				<rect x="1835.576" y="1595.042" style="fill:#FFA412;" width="5.522" height="54.011"/>
				<rect x="1779.879" y="1595.042" style="fill:#FFA412;" width="5.522" height="54.011"/>
				<rect x="1727.73" y="1595.042" style="fill:#FFA412;" width="5.522" height="54.011"/>
				<rect x="1681.165" y="1595.042" style="fill:#FFA412;" width="5.522" height="54.011"/>
				<rect x="1965.161" y="1595.042" style="fill:#FFA412;" width="5.522" height="54.011"/>
				<rect x="1976.915" y="1595.042" style="fill:#FFA412;" width="5.522" height="54.011"/>
				<rect x="1988.265" y="1595.042" style="fill:#FFA412;" width="5.522" height="54.011"/>
				<path style="fill:#FFA412;" d="M2002.327,1595.228v53.634c-0.676,0.123-1.365,0.189-2.073,0.189h-3.451v-54.011h3.451
					C2000.963,1595.039,2001.651,1595.105,2002.327,1595.228z"/>
				<path style="fill:#FFA412;" d="M2009.995,1600.231v43.627c-1.339,1.975-3.262,3.528-5.517,4.399v-52.425
					C2006.732,1596.703,2008.656,1598.255,2009.995,1600.231z"/>
			</g>
		</g>
		<g>
			<path style="fill:#FFB93E;" d="M2037.112,1554.117v30.501c0,2.43-0.741,4.685-2.014,6.563c-1.339,1.976-3.262,3.528-5.517,4.399
				c-0.689,0.273-1.411,0.475-2.151,0.604c-0.676,0.123-1.365,0.189-2.073,0.189h-485.84c-1.949,0-3.795-0.481-5.419-1.332
				c-3.437-1.8-5.894-5.256-6.284-9.292c-0.019-0.175-0.033-0.351-0.039-0.526c-0.007-0.202-0.013-0.403-0.013-0.604v-30.501
				c0-0.202,0.006-0.403,0.013-0.604c0.318-6.186,5.478-11.151,11.742-11.151h485.84c0.708,0,1.397,0.065,2.073,0.189
				c0.74,0.13,1.462,0.332,2.151,0.604c2.254,0.871,4.178,2.424,5.517,4.4C2036.37,1549.432,2037.112,1551.687,2037.112,1554.117z"
				/>
			<path style="fill:#FFA412;" d="M1798.538,1596.373h-260.283c-1.741,0-3.385-0.481-4.834-1.332
				c-3.073-1.8-5.263-5.256-5.608-9.292c-0.019-0.175-0.033-0.351-0.039-0.526c-0.007-0.202-0.013-0.403-0.013-0.604v-30.501
				c0-0.202,0.006-0.403,0.013-0.604c0.286-6.186,4.893-11.151,10.481-11.151h228.319c3.548,15.466,11.683,36.695,30.365,52.679
				C1797.466,1595.49,1797.999,1595.931,1798.538,1596.373z"/>
			<g>
				<rect x="1972.472" y="1542.363" style="fill:#FFA412;" width="5.522" height="54.011"/>
				<rect x="1953.781" y="1542.363" style="fill:#FFA412;" width="5.522" height="54.011"/>
				<rect x="1931.367" y="1542.363" style="fill:#FFA412;" width="5.522" height="54.011"/>
				<rect x="1897.01" y="1542.363" style="fill:#FFA412;" width="5.522" height="54.011"/>
				<rect x="1860.679" y="1542.363" style="fill:#FFA412;" width="5.522" height="54.011"/>
				<rect x="1804.983" y="1542.363" style="fill:#FFA412;" width="5.522" height="54.011"/>
				<rect x="1752.834" y="1542.363" style="fill:#FFA412;" width="5.522" height="54.011"/>
				<rect x="1706.268" y="1542.363" style="fill:#FFA412;" width="5.522" height="54.011"/>
				<rect x="1990.264" y="1542.363" style="fill:#FFA412;" width="5.522" height="54.011"/>
				<rect x="2002.018" y="1542.363" style="fill:#FFA412;" width="5.522" height="54.011"/>
				<rect x="2013.368" y="1542.363" style="fill:#FFA412;" width="5.522" height="54.011"/>
				<path style="fill:#FFA412;" d="M2027.43,1542.549v53.634c-0.676,0.123-1.365,0.189-2.073,0.189h-3.45v-54.011h3.45
					C2026.065,1542.361,2026.754,1542.426,2027.43,1542.549z"/>
				<path style="fill:#FFA412;" d="M2035.098,1547.553v43.627c-1.339,1.976-3.262,3.529-5.517,4.4v-52.425
					C2031.835,1544.025,2033.759,1545.577,2035.098,1547.553z"/>
			</g>
		</g>
		<g>
			<path style="fill:#FFB93E;" d="M2048.749,1500.105v30.502c0,2.43-0.741,4.685-2.015,6.563c-1.339,1.975-3.262,3.528-5.517,4.399
				c-0.689,0.273-1.41,0.474-2.151,0.604c-0.676,0.123-1.365,0.188-2.073,0.188h-485.84c-6.264,0-11.423-4.964-11.742-11.15
				c-0.006-0.201-0.013-0.402-0.013-0.604v-30.502c0-0.201,0.006-0.403,0.013-0.604c0.293-5.725,4.731-10.397,10.352-11.066
				c0.455-0.058,0.916-0.084,1.39-0.084h485.84c0.708,0,1.397,0.065,2.073,0.189c0.741,0.13,1.462,0.332,2.151,0.604
				c2.255,0.871,4.178,2.424,5.517,4.399C2048.008,1495.42,2048.749,1497.675,2048.749,1500.105z"/>
			<path style="fill:#FFA412;" d="M1810.176,1542.361h-260.282c-5.588,0-10.195-4.964-10.481-11.15
				c-0.006-0.201-0.013-0.402-0.013-0.604v-30.502c0-0.201,0.006-0.403,0.013-0.604c0.26-5.718,4.224-10.397,9.24-11.066
				c0.403-0.058,0.819-0.084,1.241-0.084h228.319c0.007,0.026,0.013,0.059,0.02,0.084
				C1781.891,1504.323,1790.39,1526.267,1810.176,1542.361z"/>
			<g>
				<rect x="1984.11" y="1488.35" style="fill:#FFA412;" width="5.522" height="54.011"/>
				<rect x="1965.418" y="1488.35" style="fill:#FFA412;" width="5.522" height="54.011"/>
				<rect x="1943.004" y="1488.35" style="fill:#FFA412;" width="5.522" height="54.011"/>
				<rect x="1908.647" y="1488.35" style="fill:#FFA412;" width="5.522" height="54.011"/>
				<rect x="1872.317" y="1488.35" style="fill:#FFA412;" width="5.522" height="54.011"/>
				<rect x="1816.62" y="1488.35" style="fill:#FFA412;" width="5.522" height="54.011"/>
				<rect x="1764.471" y="1488.35" style="fill:#FFA412;" width="5.522" height="54.011"/>
				<rect x="1717.905" y="1488.35" style="fill:#FFA412;" width="5.522" height="54.011"/>
				<rect x="2001.901" y="1488.35" style="fill:#FFA412;" width="5.522" height="54.011"/>
				<rect x="2013.655" y="1488.35" style="fill:#FFA412;" width="5.522" height="54.011"/>
				<rect x="2025.005" y="1488.35" style="fill:#FFA412;" width="5.522" height="54.011"/>
				<path style="fill:#FFA412;" d="M2039.067,1488.537v53.634c-0.676,0.123-1.365,0.189-2.073,0.189h-3.45v-54.011h3.45
					C2037.703,1488.348,2038.391,1488.413,2039.067,1488.537z"/>
				<path style="fill:#FFA412;" d="M2046.735,1493.54v43.627c-1.339,1.976-3.262,3.528-5.517,4.399v-52.425
					C2043.473,1490.012,2045.396,1491.565,2046.735,1493.54z"/>
			</g>
		</g>
		<g>
			<path style="fill:#FFB93E;" d="M2013.03,1446.179v30.501c0,2.431-0.741,4.686-2.014,6.563c-1.339,1.975-3.262,3.528-5.517,4.399
				c-0.689,0.273-1.411,0.474-2.151,0.604c-0.227,0.039-0.455,0.078-0.682,0.104c-0.123,0.013-0.253,0.026-0.384,0.039
				c-0.123,0.013-0.253,0.02-0.384,0.026c-0.208,0.013-0.416,0.019-0.623,0.019h-485.84c-6.264,0-11.424-4.964-11.742-11.15
				c-0.006-0.201-0.013-0.402-0.013-0.604v-30.501c0-0.201,0.007-0.403,0.013-0.604c0.007-0.169,0.02-0.331,0.033-0.494
				c0.468-4.977,4.081-9.084,8.811-10.293c0.117-0.032,0.24-0.058,0.357-0.085c0.819-0.182,1.67-0.279,2.541-0.279h485.84
				c0.357,0,0.708,0.02,1.052,0.046c0.156,0.02,0.312,0.032,0.468,0.052h0.007c0.182,0.026,0.364,0.059,0.546,0.091
				c0.74,0.13,1.462,0.332,2.151,0.604c2.255,0.871,4.178,2.424,5.517,4.399C2012.289,1441.494,2013.03,1443.749,2013.03,1446.179z"
				/>
			<path style="fill:#FFA412;" d="M1774.457,1488.435h-260.282c-5.589,0-10.195-4.964-10.482-11.15
				c-0.006-0.201-0.013-0.402-0.013-0.604v-30.501c0-0.201,0.007-0.403,0.013-0.604c0.007-0.169,0.02-0.331,0.033-0.494
				c0.422-5.088,3.782-9.259,8.142-10.364c0.149-0.046,0.299-0.078,0.448-0.104c0.604-0.123,1.221-0.189,1.859-0.189h228.319
				c0.026,0.13,0.058,0.253,0.091,0.384c3.684,15.842,12.184,37.558,31.769,53.543
				C1774.385,1488.377,1774.424,1488.41,1774.457,1488.435z"/>
			<g>
				<rect x="1948.391" y="1434.424" style="fill:#FFA412;" width="5.522" height="54.011"/>
				<rect x="1929.699" y="1434.424" style="fill:#FFA412;" width="5.522" height="54.011"/>
				<rect x="1907.285" y="1434.424" style="fill:#FFA412;" width="5.522" height="54.011"/>
				<rect x="1872.928" y="1434.424" style="fill:#FFA412;" width="5.522" height="54.011"/>
				<rect x="1836.598" y="1434.424" style="fill:#FFA412;" width="5.522" height="54.011"/>
				<rect x="1780.901" y="1434.424" style="fill:#FFA412;" width="5.522" height="54.011"/>
				<rect x="1728.752" y="1434.424" style="fill:#FFA412;" width="5.522" height="54.011"/>
				<rect x="1682.186" y="1434.424" style="fill:#FFA412;" width="5.522" height="54.011"/>
				<rect x="1966.182" y="1434.424" style="fill:#FFA412;" width="5.522" height="54.011"/>
				<rect x="1977.936" y="1434.424" style="fill:#FFA412;" width="5.522" height="54.011"/>
				<rect x="1989.286" y="1434.424" style="fill:#FFA412;" width="5.522" height="54.011"/>
				<path style="fill:#FFA412;" d="M2003.348,1434.611v53.634c-0.675,0.123-1.364,0.189-2.073,0.189h-3.45v-54.011h3.45
					C2001.983,1434.422,2002.673,1434.487,2003.348,1434.611z"/>
				<path style="fill:#FFA412;" d="M2011.016,1439.614v43.627c-1.339,1.975-3.262,3.528-5.517,4.399v-52.426
					C2007.754,1436.086,2009.677,1437.638,2011.016,1439.614z"/>
			</g>
		</g>
		<g>
			<path style="fill:#FFB93E;" d="M2012.01,1392.552v30.501c0,2.43-0.741,4.685-2.014,6.563c-1.339,1.975-3.262,3.528-5.517,4.399
				c-0.539,0.215-1.105,0.384-1.677,0.507h-0.013c-0.156,0.039-0.305,0.072-0.461,0.098c-0.676,0.123-1.365,0.189-2.073,0.189
				h-485.84c-0.514,0-1.027-0.033-1.521-0.104c-0.195-0.019-0.39-0.052-0.578-0.091c-5.283-0.956-9.364-5.478-9.643-10.955
				c-0.006-0.202-0.013-0.403-0.013-0.604v-30.501c0-0.202,0.007-0.403,0.013-0.604c0.319-6.186,5.478-11.151,11.742-11.151h485.84
				c0.312,0,0.623,0.013,0.929,0.039c0.13,0.013,0.266,0.026,0.396,0.039c0.143,0.013,0.292,0.032,0.435,0.058
				c0.104,0.013,0.208,0.032,0.312,0.052c0.741,0.13,1.462,0.332,2.151,0.604c0.104,0.038,0.201,0.078,0.305,0.123
				c0.097,0.039,0.202,0.085,0.299,0.13c0.201,0.091,0.396,0.189,0.591,0.286c0.215,0.117,0.429,0.234,0.637,0.364
				c0.189,0.111,0.37,0.228,0.552,0.351c0.208,0.142,0.41,0.292,0.604,0.448c0.156,0.117,0.305,0.24,0.454,0.37
				c0.007,0.006,0.02,0.013,0.027,0.026c0.097,0.085,0.201,0.175,0.299,0.266c0.299,0.273,0.585,0.572,0.851,0.878
				c0.084,0.09,0.163,0.181,0.234,0.273c0.078,0.097,0.149,0.189,0.227,0.285c0.149,0.195,0.299,0.397,0.435,0.598
				C2011.269,1387.867,2012.01,1390.121,2012.01,1392.552z"/>
			<path style="fill:#FFA412;" d="M1773.437,1434.808h-260.282c-0.208,0-0.416-0.006-0.617-0.02
				c-0.228-0.013-0.448-0.039-0.669-0.072c-5.003-0.689-8.935-5.355-9.195-11.059c-0.006-0.202-0.013-0.403-0.013-0.604v-30.501
				c0-0.202,0.007-0.403,0.013-0.604c0.286-6.186,4.887-11.151,10.481-11.151h228.312c0.104,0.442,0.208,0.884,0.318,1.332
				c3.782,15.647,12.236,36.655,31.184,52.296C1773.125,1434.554,1773.281,1434.677,1773.437,1434.808z"/>
			<g>
				<rect x="1947.369" y="1380.799" style="fill:#FFA412;" width="5.522" height="54.011"/>
				<rect x="1928.678" y="1380.799" style="fill:#FFA412;" width="5.522" height="54.011"/>
				<rect x="1906.264" y="1380.799" style="fill:#FFA412;" width="5.522" height="54.011"/>
				<rect x="1871.907" y="1380.799" style="fill:#FFA412;" width="5.522" height="54.011"/>
				<rect x="1835.576" y="1380.799" style="fill:#FFA412;" width="5.522" height="54.011"/>
				<rect x="1779.879" y="1380.799" style="fill:#FFA412;" width="5.522" height="54.011"/>
				<rect x="1727.73" y="1380.799" style="fill:#FFA412;" width="5.522" height="54.011"/>
				<rect x="1681.165" y="1380.799" style="fill:#FFA412;" width="5.522" height="54.011"/>
				<rect x="1965.161" y="1380.799" style="fill:#FFA412;" width="5.522" height="54.011"/>
				<rect x="1976.915" y="1380.799" style="fill:#FFA412;" width="5.522" height="54.011"/>
				<rect x="1988.265" y="1380.799" style="fill:#FFA412;" width="5.522" height="54.011"/>
				<path style="fill:#FFA412;" d="M2002.327,1380.985v53.634c-0.676,0.123-1.365,0.189-2.073,0.189h-3.451v-54.011h3.451
					C2000.963,1380.797,2001.651,1380.862,2002.327,1380.985z"/>
				<path style="fill:#FFA412;" d="M2009.995,1385.989v43.628c-1.339,1.975-3.262,3.528-5.517,4.399v-52.426
					C2006.732,1382.461,2008.656,1384.014,2009.995,1385.989z"/>
			</g>
		</g>
		<g>
			<path style="fill:#FFB93E;" d="M2037.112,1339.872v30.501c0,2.43-0.741,4.685-2.014,6.563c-1.339,1.976-3.262,3.529-5.517,4.4
				c-0.689,0.273-1.411,0.474-2.151,0.604c-0.676,0.124-1.365,0.189-2.073,0.189h-485.84c-1.949,0-3.795-0.481-5.419-1.332
				c-3.437-1.8-5.894-5.257-6.284-9.292c-0.019-0.176-0.033-0.351-0.039-0.527c-0.007-0.201-0.013-0.403-0.013-0.604v-30.501
				c0-0.201,0.006-0.403,0.013-0.604c0.318-6.186,5.478-11.15,11.742-11.15h485.84c0.708,0,1.397,0.065,2.073,0.188
				c0.74,0.13,1.462,0.332,2.151,0.604c2.254,0.871,4.178,2.424,5.517,4.399C2036.37,1335.187,2037.112,1337.442,2037.112,1339.872z
				"/>
			<path style="fill:#FFA412;" d="M1798.538,1382.128h-260.283c-1.741,0-3.385-0.481-4.834-1.332
				c-3.073-1.8-5.263-5.257-5.608-9.292c-0.019-0.176-0.033-0.351-0.039-0.527c-0.007-0.201-0.013-0.403-0.013-0.604v-30.501
				c0-0.201,0.006-0.403,0.013-0.604c0.286-6.186,4.893-11.15,10.481-11.15h228.319c3.548,15.465,11.683,36.694,30.365,52.679
				C1797.466,1381.245,1797.999,1381.687,1798.538,1382.128z"/>
			<g>
				<rect x="1972.472" y="1328.12" style="fill:#FFA412;" width="5.522" height="54.011"/>
				<rect x="1953.781" y="1328.12" style="fill:#FFA412;" width="5.522" height="54.011"/>
				<rect x="1931.367" y="1328.12" style="fill:#FFA412;" width="5.522" height="54.011"/>
				<rect x="1897.01" y="1328.12" style="fill:#FFA412;" width="5.522" height="54.011"/>
				<rect x="1860.679" y="1328.12" style="fill:#FFA412;" width="5.522" height="54.011"/>
				<rect x="1804.983" y="1328.12" style="fill:#FFA412;" width="5.522" height="54.011"/>
				<rect x="1752.834" y="1328.12" style="fill:#FFA412;" width="5.522" height="54.011"/>
				<rect x="1706.268" y="1328.12" style="fill:#FFA412;" width="5.522" height="54.011"/>
				<rect x="1990.264" y="1328.12" style="fill:#FFA412;" width="5.522" height="54.011"/>
				<rect x="2002.018" y="1328.12" style="fill:#FFA412;" width="5.522" height="54.011"/>
				<rect x="2013.368" y="1328.12" style="fill:#FFA412;" width="5.522" height="54.011"/>
				<path style="fill:#FFA412;" d="M2027.43,1328.307v53.634c-0.676,0.123-1.365,0.189-2.073,0.189h-3.45v-54.011h3.45
					C2026.065,1328.118,2026.754,1328.184,2027.43,1328.307z"/>
				<path style="fill:#FFA412;" d="M2035.098,1333.31v43.627c-1.339,1.975-3.262,3.528-5.517,4.399v-52.425
					C2031.835,1329.782,2033.759,1331.335,2035.098,1333.31z"/>
			</g>
		</g>
		<g>
			<path style="fill:#FFB93E;" d="M2076.814,1285.861v30.502c0,2.43-0.741,4.684-2.014,6.563c-1.338,1.975-3.262,3.528-5.517,4.399
				c-0.689,0.273-1.41,0.475-2.151,0.604c-0.676,0.123-1.364,0.189-2.073,0.189h-485.84c-6.264,0-11.423-4.965-11.742-11.151
				c-0.006-0.201-0.013-0.402-0.013-0.604v-30.502c0-0.201,0.006-0.402,0.013-0.604c0.292-5.718,4.731-10.397,10.351-11.066
				c0.455-0.059,0.923-0.085,1.391-0.085h485.84c0.708,0,1.397,0.065,2.073,0.189c0.741,0.13,1.462,0.331,2.151,0.604
				c2.255,0.871,4.178,2.424,5.517,4.399C2076.073,1281.176,2076.814,1283.431,2076.814,1285.861z"/>
			<path style="fill:#FFA412;" d="M1838.241,1328.118h-260.283c-5.588,0-10.195-4.965-10.481-11.151
				c-0.006-0.201-0.013-0.402-0.013-0.604v-30.502c0-0.201,0.006-0.402,0.013-0.604c0.26-5.718,4.224-10.397,9.24-11.066
				c0.403-0.059,0.819-0.085,1.241-0.085h228.319c0.006,0.026,0.013,0.058,0.019,0.085
				C1809.955,1290.085,1818.455,1312.022,1838.241,1328.118z"/>
			<g>
				<rect x="2012.177" y="1274.108" style="fill:#FFA412;" width="5.522" height="54.011"/>
				<rect x="1993.485" y="1274.108" style="fill:#FFA412;" width="5.522" height="54.011"/>
				<rect x="1971.071" y="1274.108" style="fill:#FFA412;" width="5.522" height="54.011"/>
				<rect x="1936.714" y="1274.108" style="fill:#FFA412;" width="5.522" height="54.011"/>
				<rect x="1900.384" y="1274.108" style="fill:#FFA412;" width="5.522" height="54.011"/>
				<rect x="1844.687" y="1274.108" style="fill:#FFA412;" width="5.522" height="54.011"/>
				<rect x="1792.538" y="1274.108" style="fill:#FFA412;" width="5.522" height="54.011"/>
				<rect x="1745.972" y="1274.108" style="fill:#FFA412;" width="5.522" height="54.011"/>
				<rect x="2029.968" y="1274.108" style="fill:#FFA412;" width="5.522" height="54.011"/>
				<rect x="2041.722" y="1274.108" style="fill:#FFA412;" width="5.522" height="54.011"/>
				<rect x="2053.073" y="1274.108" style="fill:#FFA412;" width="5.522" height="54.011"/>
				<path style="fill:#FFA412;" d="M2067.134,1274.294v53.634c-0.675,0.123-1.365,0.189-2.073,0.189h-3.45v-54.011h3.45
					C2065.77,1274.105,2066.459,1274.171,2067.134,1274.294z"/>
				<path style="fill:#FFA412;" d="M2074.802,1279.297v43.628c-1.339,1.976-3.262,3.528-5.517,4.399v-52.425
					C2071.54,1275.769,2073.463,1277.322,2074.802,1279.297z"/>
			</g>
		</g>
		<g>
			<path style="fill:#FFB93E;" d="M2013.03,1231.934v30.501c0,2.431-0.741,4.685-2.014,6.563c-1.339,1.975-3.262,3.528-5.517,4.399
				c-0.689,0.273-1.411,0.475-2.151,0.604c-0.227,0.039-0.455,0.078-0.682,0.104c-0.182,0.026-0.364,0.039-0.546,0.052
				c-0.09,0.006-0.182,0.013-0.273,0.02c-0.189,0.006-0.376,0.013-0.571,0.013h-485.84c-6.264,0-11.424-4.965-11.742-11.151
				c-0.006-0.201-0.013-0.402-0.013-0.604v-30.501c0-0.201,0.007-0.402,0.013-0.604c0.318-6.186,5.478-11.15,11.742-11.15h485.84
				c0.208,0,0.416,0.006,0.623,0.02c0.494,0.026,0.975,0.084,1.449,0.169c0.74,0.13,1.462,0.331,2.151,0.604
				c0.35,0.136,0.695,0.286,1.02,0.454c0.208,0.104,0.41,0.208,0.604,0.325c0.02,0.006,0.046,0.02,0.065,0.039
				c0.202,0.116,0.396,0.24,0.591,0.37c0.039,0.02,0.072,0.046,0.098,0.065c0.182,0.117,0.357,0.247,0.526,0.383
				c0.417,0.312,0.806,0.65,1.17,1.02c0.117,0.111,0.228,0.228,0.332,0.344c0.02,0.02,0.039,0.039,0.059,0.065
				c0.071,0.072,0.136,0.143,0.201,0.221c0.013,0.013,0.026,0.033,0.038,0.046c0.117,0.137,0.234,0.279,0.344,0.429
				c0.163,0.208,0.319,0.416,0.468,0.637C2012.289,1227.249,2013.03,1229.504,2013.03,1231.934z"/>
			<path style="fill:#FFA412;" d="M1774.457,1274.191h-260.282c-5.589,0-10.195-4.965-10.482-11.151
				c-0.006-0.201-0.013-0.402-0.013-0.604v-30.501c0-0.201,0.007-0.402,0.013-0.604c0.286-6.186,4.893-11.15,10.482-11.15h228.319
				c0.091,0.41,0.188,0.825,0.299,1.247c3.788,15.757,12.326,36.98,31.56,52.679
				C1774.385,1274.132,1774.424,1274.164,1774.457,1274.191z"/>
			<g>
				<rect x="1948.391" y="1220.182" style="fill:#FFA412;" width="5.522" height="54.011"/>
				<rect x="1929.699" y="1220.182" style="fill:#FFA412;" width="5.522" height="54.011"/>
				<rect x="1907.285" y="1220.182" style="fill:#FFA412;" width="5.522" height="54.011"/>
				<rect x="1872.928" y="1220.182" style="fill:#FFA412;" width="5.522" height="54.011"/>
				<rect x="1836.598" y="1220.182" style="fill:#FFA412;" width="5.522" height="54.011"/>
				<rect x="1780.901" y="1220.182" style="fill:#FFA412;" width="5.522" height="54.011"/>
				<rect x="1728.752" y="1220.182" style="fill:#FFA412;" width="5.522" height="54.011"/>
				<rect x="1682.186" y="1220.182" style="fill:#FFA412;" width="5.522" height="54.011"/>
				<rect x="1966.182" y="1220.182" style="fill:#FFA412;" width="5.522" height="54.011"/>
				<rect x="1977.936" y="1220.182" style="fill:#FFA412;" width="5.522" height="54.011"/>
				<rect x="1989.286" y="1220.182" style="fill:#FFA412;" width="5.522" height="54.011"/>
				<path style="fill:#FFA412;" d="M2003.348,1220.368v53.634c-0.675,0.123-1.364,0.189-2.073,0.189h-3.45v-54.011h3.45
					C2001.983,1220.18,2002.673,1220.245,2003.348,1220.368z"/>
				<path style="fill:#FFA412;" d="M2011.016,1225.372v43.628c-1.339,1.975-3.262,3.528-5.517,4.399v-52.425
					C2007.754,1221.844,2009.677,1223.396,2011.016,1225.372z"/>
			</g>
		</g>
		<g>
			<path style="fill:#FFB93E;" d="M2048.749,1179.171v30.502c0,2.43-0.741,4.684-2.015,6.563c-1.339,1.975-3.262,3.528-5.517,4.399
				c-0.689,0.273-1.41,0.474-2.151,0.604c-0.676,0.123-1.365,0.188-2.073,0.188h-485.84c-1.884,0-3.671-0.448-5.25-1.247
				c-3.542-1.774-6.076-5.302-6.459-9.422c-0.013-0.156-0.026-0.318-0.033-0.481c-0.006-0.201-0.013-0.402-0.013-0.604v-30.502
				c0-0.201,0.006-0.403,0.013-0.604c0.293-5.725,4.731-10.397,10.352-11.066c0.455-0.058,0.916-0.084,1.39-0.084h485.84
				c0.708,0,1.397,0.065,2.073,0.189c0.741,0.13,1.462,0.331,2.151,0.604c2.255,0.871,4.178,2.424,5.517,4.399
				C2048.008,1174.486,2048.749,1176.741,2048.749,1179.171z"/>
			<path style="fill:#FFA412;" d="M1810.176,1221.427h-260.282c-1.683,0-3.275-0.448-4.685-1.247
				c-3.165-1.774-5.419-5.302-5.764-9.422c-0.013-0.156-0.026-0.318-0.033-0.481c-0.006-0.201-0.013-0.402-0.013-0.604v-30.502
				c0-0.201,0.006-0.403,0.013-0.604c0.26-5.718,4.224-10.397,9.24-11.066c0.403-0.058,0.819-0.084,1.241-0.084h228.319
				c0.007,0.026,0.013,0.059,0.02,0.084c3.561,15.485,11.729,36.713,30.449,52.679
				C1809.169,1220.602,1809.669,1221.018,1810.176,1221.427z"/>
			<g>
				<rect x="1984.11" y="1167.416" style="fill:#FFA412;" width="5.522" height="54.011"/>
				<rect x="1965.418" y="1167.416" style="fill:#FFA412;" width="5.522" height="54.011"/>
				<rect x="1943.004" y="1167.416" style="fill:#FFA412;" width="5.522" height="54.011"/>
				<rect x="1908.647" y="1167.416" style="fill:#FFA412;" width="5.522" height="54.011"/>
				<rect x="1872.317" y="1167.416" style="fill:#FFA412;" width="5.522" height="54.011"/>
				<rect x="1816.62" y="1167.416" style="fill:#FFA412;" width="5.522" height="54.011"/>
				<rect x="1764.471" y="1167.416" style="fill:#FFA412;" width="5.522" height="54.011"/>
				<rect x="1717.905" y="1167.416" style="fill:#FFA412;" width="5.522" height="54.011"/>
				<rect x="2001.901" y="1167.416" style="fill:#FFA412;" width="5.522" height="54.011"/>
				<rect x="2013.655" y="1167.416" style="fill:#FFA412;" width="5.522" height="54.011"/>
				<rect x="2025.005" y="1167.416" style="fill:#FFA412;" width="5.522" height="54.011"/>
				<path style="fill:#FFA412;" d="M2039.067,1167.603v53.634c-0.676,0.124-1.365,0.189-2.073,0.189h-3.45v-54.011h3.45
					C2037.703,1167.415,2038.391,1167.479,2039.067,1167.603z"/>
				<path style="fill:#FFA412;" d="M2046.735,1172.606v43.628c-1.339,1.976-3.262,3.529-5.517,4.4v-52.426
					C2043.473,1169.078,2045.396,1170.631,2046.735,1172.606z"/>
			</g>
		</g>
		<g>
			<path style="fill:#FFB93E;" d="M2013.03,1125.244v30.501c0,2.43-0.741,4.685-2.014,6.563c-1.339,1.975-3.262,3.528-5.517,4.399
				c-0.689,0.273-1.411,0.474-2.151,0.604c-0.227,0.038-0.455,0.078-0.682,0.104c-0.123,0.013-0.253,0.026-0.384,0.039
				c-0.123,0.013-0.253,0.02-0.384,0.026c-0.208,0.013-0.416,0.019-0.623,0.019h-485.84c-6.264,0-11.424-4.964-11.742-11.15
				c-0.006-0.201-0.013-0.402-0.013-0.604v-30.501c0-0.201,0.007-0.403,0.013-0.604c0.318-6.186,5.478-11.15,11.742-11.15h485.84
				c0.708,0,1.397,0.065,2.073,0.188c0.74,0.13,1.462,0.332,2.151,0.604c2.255,0.871,4.178,2.424,5.517,4.399
				C2012.289,1120.559,2013.03,1122.814,2013.03,1125.244z"/>
			<path style="fill:#FFA412;" d="M1774.457,1167.5h-260.282c-5.589,0-10.195-4.964-10.482-11.15
				c-0.006-0.201-0.013-0.402-0.013-0.604v-30.501c0-0.201,0.007-0.403,0.013-0.604c0.286-6.186,4.893-11.15,10.482-11.15h228.319
				c3.639,15.875,12.112,37.812,31.859,53.927C1774.385,1167.442,1774.424,1167.475,1774.457,1167.5z"/>
			<g>
				<rect x="1948.391" y="1113.49" style="fill:#FFA412;" width="5.522" height="54.011"/>
				<rect x="1929.699" y="1113.49" style="fill:#FFA412;" width="5.522" height="54.011"/>
				<rect x="1907.285" y="1113.49" style="fill:#FFA412;" width="5.522" height="54.011"/>
				<rect x="1872.928" y="1113.49" style="fill:#FFA412;" width="5.522" height="54.011"/>
				<rect x="1836.598" y="1113.49" style="fill:#FFA412;" width="5.522" height="54.011"/>
				<rect x="1780.901" y="1113.49" style="fill:#FFA412;" width="5.522" height="54.011"/>
				<rect x="1728.752" y="1113.49" style="fill:#FFA412;" width="5.522" height="54.011"/>
				<rect x="1682.186" y="1113.49" style="fill:#FFA412;" width="5.523" height="54.011"/>
				<rect x="1966.182" y="1113.49" style="fill:#FFA412;" width="5.522" height="54.011"/>
				<rect x="1977.936" y="1113.49" style="fill:#FFA412;" width="5.522" height="54.011"/>
				<rect x="1989.286" y="1113.49" style="fill:#FFA412;" width="5.522" height="54.011"/>
				<path style="fill:#FFA412;" d="M2003.348,1113.677v53.634c-0.675,0.123-1.364,0.189-2.073,0.189h-3.45v-54.011h3.45
					C2001.983,1113.489,2002.673,1113.553,2003.348,1113.677z"/>
				<path style="fill:#FFA412;" d="M2011.016,1118.68v43.628c-1.339,1.975-3.262,3.528-5.517,4.399v-52.425
					C2007.754,1115.152,2009.677,1116.705,2011.016,1118.68z"/>
			</g>
		</g>
		<g>
			<g>
				<path style="fill:#4A75CB;" d="M1387.906,1133.621l45.298,538.608c0,0,4.746,32.649-19.54,32.707
					c-39.93,0.095-198.747,0-198.747,0s30.053-6.797,29.689-22.088c-0.429-18.025-52.944-554.325-52.944-554.325L1387.906,1133.621z
					"/>
				<path style="fill:#AFCDFB;" d="M1202.032,1695.164c7.854,0.024,159.543,0.499,198.429,0
					c16.947-0.211,19.918-15.067,20.059-24.683c0.07-4.61-0.515-8.017-0.515-8.017l-1.177-13.999l-3.003-35.681l-2.652-31.523
					l-3.408-40.508l-2.87-34.191l-32.187-382.719l-196.245-5.093c0,0,22.118,224.439,37.762,387.811
					c1.747,18.203,3.408,35.656,4.945,51.949c0.499,5.202,0.975,10.287,1.443,15.239c1.451,15.458,2.776,29.652,3.931,42.185
					c0.608,6.606,1.17,12.744,1.677,18.366c1.996,22.032,3.166,36.102,3.182,38.777c0.008,1.56-0.125,3.011-0.382,4.36
					C1227.8,1694.603,1204.98,1695.164,1202.032,1695.164z"/>
				<polygon style="fill:#AFCDFB;" points="922.324,840.53 1864.496,840.53 1754.157,1283.738 1739.05,1344.437 1687.66,1550.87 
					732.908,1550.87 				"/>
				<polygon style="fill:#699DEE;" points="1864.498,840.529 1879.79,845.627 1707.989,1566.29 1687.658,1550.873 				"/>
				<polygon style="fill:#4A75CB;" points="1707.989,1566.29 759.114,1566.29 732.911,1550.873 1687.658,1550.873 				"/>
				<rect x="1169.327" y="1695.379" style="fill:#4A75CB;" width="205.446" height="9.763"/>
				<polygon style="fill:#4A75CB;" points="1221.553,1566.286 1222.614,1573.75 1415.825,1612.784 1413.173,1581.26 
					1411.91,1566.286 				"/>
				<path style="fill:#699DEE;" d="M1202.032,1695.164c7.854,0.024,159.543,0.499,198.429,0
					c16.947-0.211,19.918-15.067,20.059-24.683l-192.299-36.18c1.996,22.032,3.166,36.102,3.182,38.777
					c0.008,1.56-0.125,3.011-0.382,4.36C1227.8,1694.603,1204.98,1695.164,1202.032,1695.164z"/>
				<polygon style="opacity:0.2;fill:#699DEE;" points="1280.661,1411.322 1687.659,1550.872 1722.417,1411.239 				"/>
				<polygon style="fill:#699DEE;" points="922.325,840.529 1864.498,840.529 1722.499,1411.239 769.456,1411.42 				"/>
			</g>
			<polygon style="fill:#EBF2F9;" points="813.892,1386.681 1696.052,1386.681 1795.954,988.702 1803.612,958.182 1810.149,932.15 
				1825.469,871.109 956.025,871.109 939.199,932.15 932.022,958.182 923.61,988.702 			"/>
			<polygon style="fill:#FFB93E;" points="956.025,871.109 1825.469,871.109 1810.149,932.15 939.199,932.15 			"/>
			<g>
				<path style="fill:#E9F3FE;" d="M1773.774,891.065c4.214,0,6.779,3.416,5.728,7.631c-1.051,4.214-5.319,7.63-9.533,7.63
					c-4.214,0-6.779-3.416-5.728-7.63C1765.291,894.481,1769.559,891.065,1773.774,891.065z"/>
				<path style="fill:#E9F3FE;" d="M1748.42,891.065c4.214,0,6.779,3.416,5.728,7.631c-1.051,4.214-5.319,7.63-9.533,7.63
					s-6.779-3.416-5.728-7.63C1739.938,894.481,1744.206,891.065,1748.42,891.065z"/>
				<path style="fill:#E9F3FE;" d="M1711.586,898.695c1.051-4.214,5.319-7.631,9.533-7.631c4.214,0,6.779,3.416,5.728,7.631
					c-1.051,4.214-5.319,7.63-9.533,7.63S1710.536,902.909,1711.586,898.695z"/>
			</g>
		</g>
		<g>
			<polygon style="fill:#FFFFFF;" points="925.055,1352.018 1221.531,1352.018 1320.899,953.476 1024.422,953.476 			"/>
			<g>
				<g style="opacity:0.5;">
					<g>
						<path style="fill:#699DEE;" d="M1048.359,1069.927h196.4c2.434,0,4.923-1.992,5.529-4.427l0.414-1.66
							c0.606-2.433-0.889-4.426-3.323-4.426h-196.4c-2.434,0-4.923,1.992-5.529,4.426l-0.414,1.66
							C1044.429,1067.934,1045.924,1069.927,1048.359,1069.927z"/>
						<path style="fill:#699DEE;" d="M1065.832,999.845h196.399c2.434,0,4.923-1.991,5.53-4.425l0.413-1.66
							c0.608-2.434-0.888-4.426-3.322-4.426h-196.4c-2.434,0-4.923,1.991-5.53,4.426l-0.413,1.66
							C1061.903,997.854,1063.397,999.845,1065.832,999.845z"/>
						<path style="fill:#699DEE;" d="M1059.762,1024.19h196.4c2.434,0,4.923-1.992,5.529-4.427l0.414-1.66
							c0.606-2.434-0.889-4.425-3.323-4.425h-196.4c-2.433,0-4.923,1.991-5.529,4.425l-0.414,1.66
							C1055.833,1022.197,1057.328,1024.19,1059.762,1024.19z"/>
						<path style="fill:#699DEE;" d="M1054.06,1047.058h196.4c2.434,0,4.923-1.993,5.53-4.427l0.413-1.66
							c0.608-2.434-0.888-4.425-3.322-4.425h-196.4c-2.434,0-4.923,1.991-5.53,4.425l-0.413,1.66
							C1050.131,1045.066,1051.625,1047.058,1054.06,1047.058z"/>
						<path style="fill:#699DEE;" d="M1036.738,1116.532h196.4c2.434,0,4.923-1.991,5.529-4.425l0.414-1.66
							c0.608-2.434-0.887-4.425-3.323-4.425H1039.36c-2.434,0-4.923,1.991-5.53,4.425l-0.413,1.66
							C1032.809,1114.541,1034.304,1116.532,1036.738,1116.532z"/>
						<path style="fill:#699DEE;" d="M1042.441,1093.663h196.4c2.433,0,4.921-1.991,5.529-4.425l0.413-1.66
							c0.608-2.434-0.888-4.426-3.322-4.426h-196.4c-2.434,0-4.923,1.991-5.529,4.426l-0.414,1.66
							C1038.511,1091.672,1040.006,1093.663,1042.441,1093.663z"/>
					</g>
					<path style="fill:#699DEE;" d="M1000.972,1255.635h47.703c2.89,0,5.846-2.365,6.566-5.255l0,0
						c0.721-2.891-1.055-5.257-3.946-5.257h-47.701c-2.891,0-5.846,2.365-6.566,5.257l0,0
						C996.307,1253.27,998.082,1255.635,1000.972,1255.635z"/>
					<path style="fill:#699DEE;" d="M1147.106,1255.635h47.701c2.891,0,5.845-2.365,6.566-5.255l0,0
						c0.722-2.891-1.055-5.257-3.945-5.257h-47.702c-2.891,0-5.847,2.365-6.566,5.257l0,0
						C1142.44,1253.27,1144.216,1255.635,1147.106,1255.635z"/>
				</g>
				<g>
					<path style="fill:#476BA7;" d="M1042.007,1312.206h-69.564c-1.833,0-3.4-0.713-4.411-2.006
						c-1.052-1.347-1.371-3.14-0.895-5.047l5.016-20.115c0.95-3.814,4.831-6.918,8.649-6.918h69.564c1.834,0,3.4,0.713,4.411,2.006
						c1.052,1.347,1.37,3.14,0.894,5.047l-5.014,20.115C1049.705,1309.103,1045.824,1312.206,1042.007,1312.206z M980.802,1278.68
						c-3.578,0-7.214,2.913-8.107,6.493l-5.016,20.115c-0.433,1.736-0.151,3.358,0.793,4.567c0.903,1.155,2.313,1.79,3.97,1.79
						h69.564c3.577,0,7.213-2.913,8.106-6.493l5.014-20.115c0.433-1.736,0.152-3.358-0.792-4.567c-0.903-1.155-2.311-1.79-3.97-1.79
						H980.802z"/>
				</g>
				<g>
					<path style="fill:#476BA7;" d="M1188.389,1312.206h-69.564c-1.833,0-3.4-0.713-4.41-2.006c-1.052-1.347-1.371-3.14-0.895-5.047
						l5.016-20.115c0.95-3.814,4.831-6.918,8.649-6.918h69.564c1.833,0,3.4,0.713,4.411,2.006c1.052,1.347,1.371,3.14,0.895,5.047
						l-5.016,20.115C1196.086,1309.103,1192.205,1312.206,1188.389,1312.206z M1127.183,1278.68c-3.578,0-7.214,2.913-8.107,6.493
						l-5.016,20.115c-0.433,1.736-0.151,3.358,0.793,4.567c0.903,1.155,2.313,1.79,3.97,1.79h69.564
						c3.577,0,7.213-2.913,8.106-6.493l5.016-20.115c0.433-1.736,0.151-3.358-0.794-4.567c-0.903-1.155-2.313-1.79-3.97-1.79
						H1127.183z"/>
				</g>
				<path style="fill:#365DA2;" d="M1203.453,1275.451c-10.566,4.366-21.065,9.142-31.463,14.312c0.412-1.165,0.783-2.331,1.11-3.5
					c0.264-0.938-1.002-1.562-1.784-0.53c-0.347,0.457-0.713,0.893-1.102,1.308c0.262-0.839-0.728-1.306-1.578-0.692
					c-0.056,0.04-0.108,0.084-0.161,0.127c0.412-1.127-1.343-1.298-1.997-0.205l-0.975,1.632c-0.825,0.985-1.97,1.735-3.15,2.103
					c-0.245-0.536-0.407-1.117-0.464-1.752c-0.043-0.48-0.389-0.742-0.811-0.743c-0.019-0.575-0.536-0.914-1.302-0.573
					c-0.928,0.412-1.741,1.036-2.395,1.765c-0.521-0.973-2.193-0.276-3.09,0.658c0.025-0.053,0.051-0.105,0.075-0.158
					c0.423-0.903-0.363-1.933-1.421-1.022c-1.884,1.622-3.25,3.663-3.891,5.7c-0.62,0.69-1.281,1.352-1.99,1.962
					c-0.345,0.298-1.957,1.792-2.329,1.661c-0.351-0.123-0.166-1.05-0.006-1.703c0.058-0.08,0.115-0.162,0.172-0.241
					c1.341-1.865,7.805-10.65,3.251-10.571c-0.482,0.007-0.976,0.323-1.267,0.771c-1.663,2.561-2.95,5.262-3.731,7.952
					c-0.149,0.517-0.358,1.183-0.526,1.881c-0.133,0.178-0.265,0.357-0.401,0.532c-1.808,2.372-4.307,5.792-7.24,6.96
					c-0.27-3.714,1.603-8.109,3.019-12.005c0.611-1.68,1.248-3.36,1.91-5.037c0.195-0.039,0.408-0.141,0.63-0.328
					c3.167-2.665,4.459-6.617,3.026-9.274c-0.413-0.766-1.676-0.069-2.038,0.743c-2.181,4.891-4.164,9.805-5.931,14.728
					c-1.564,4.365-3.343,8.978-2.69,13.008c0.069,0.424,0.565,0.584,1.028,0.482c3.342-0.728,6.255-3.702,8.599-6.669
					c0.17,0.384,0.459,0.673,0.917,0.808c1.556,0.462,3.68-1.268,5.208-2.716c0.033,0.506,0.122,0.999,0.274,1.469
					c0.164,0.511,0.694,0.625,1.314,0.376c1.444-0.579,2.796-1.506,3.934-2.63c1.512-0.466,2.834-1.71,3.937-3.159
					c0.697-0.61,1.342-1.255,1.94-1.936c0.129,0.374,0.302,0.716,0.541,0.989c0.569,0.65,2.002,0.06,2.919-0.357
					c0.88-0.402,1.689-0.944,2.404-1.579c0.561-0.044,1.122-0.201,1.655-0.451c0.1,0.16,0.227,0.3,0.392,0.409
					c0.573,0.383,1.243,0.231,1.911-0.181c-0.151,0.424-0.304,0.849-0.466,1.273c-1.515,0.765-3.031,1.537-4.542,2.318
					c-0.998,0.516-1.232,2.044-0.112,1.959c1.389-0.105,2.777-0.211,4.166-0.318c0.633-0.048,1.129-0.446,1.396-1.051
					c0.246-0.556,0.48-1.112,0.706-1.668c10.864-5.444,21.839-10.459,32.888-15.025
					C1205.33,1276.684,1204.859,1274.87,1203.453,1275.451z M1155.04,1291.438c-0.093,0.291-0.207,0.585-0.343,0.869
					c-0.094,0.197-0.199,0.39-0.31,0.581C1154.546,1292.399,1154.762,1291.91,1155.04,1291.438z M1151.981,1294.043
					c-0.115,0.582-0.252,1.164-0.035,1.583c-0.333,0.252-0.68,0.483-1.042,0.689c-0.069-0.62-0.028-1.278,0.119-1.944
					c0.482-0.569,0.934-1.155,1.355-1.754C1152.203,1293.112,1152.07,1293.596,1151.981,1294.043z"/>
				<g>
					<path style="fill:#365DA2;" d="M1009.023,1268.978c-3.74,6.953-5.839,14.088-8.879,21.122c-1.482,3.429-3.223,6.851-5.49,10.09
						c-1.578,2.255-5.018,7.155-7.931,6.093c-0.727-0.264-0.929-0.888-0.693-1.735c0.053-0.188,0.115-0.38,0.183-0.574
						c0.367,0.221,0.939,0.131,1.512-0.177c0.939-0.505,1.738-1.501,2.151-2.393c0.437-0.947,0.367-1.931-0.396-2.351
						c-0.67-0.37-1.67-0.04-2.373,0.667c-0.781,0.785-1.136,1.785-1.521,2.692c-0.469,1.107-1.097,2.311-1.027,3.38
						c0.105,1.607,1.837,2.176,3.532,1.803c2.056-0.452,3.882-2.249,5.265-3.883c1.632-1.931,3.066-3.986,4.314-6.085
						c2.536-4.266,4.331-8.702,6.02-13.094c1.955-5.086,3.781-10.206,6.472-15.206
						C1010.602,1268.507,1009.463,1268.158,1009.023,1268.978z M988.772,1300.544c0.127,0.492-0.349,1.136-0.738,1.589
						c-0.142,0.164-0.266,0.306-0.443,0.437c-0.099,0.075-0.205,0.138-0.315,0.187c-0.045,0.008-0.077,0.015-0.099,0.024
						c-0.079-0.152-0.226-0.219-0.393-0.22c0.163-0.368,0.335-0.732,0.5-1.078C987.528,1300.967,988.506,1299.514,988.772,1300.544z
						"/>
					<path style="fill:#365DA2;" d="M1034.073,1290.698c-0.763,0.403-1.579,0.859-2.374,0.987c-0.193,0.031-0.407,0.04-0.608,0.018
						c0.563-0.564,1.086-1.222,1.173-1.842c0.141-1.008-0.97-1.24-1.911-0.723c-0.841,0.463-1.382,1.397-1.439,2.173
						c-0.02,0.27,0.024,0.508,0.115,0.717c-0.811,0.584-2.206,1.389-3.067,1.23c1.094-0.752,2.07-1.706,2.822-2.788
						c0.143-0.206,0.151-0.487,0.04-0.633c-0.476-0.624-1.436-0.665-2.375-0.182c-1.01,0.519-1.646,1.527-2.039,2.453
						c-0.132,0.311-0.225,0.616-0.261,0.899c-0.998,0.456-2.043,0.699-3.014,0.68c0-0.005,0-0.011-0.001-0.017
						c0.316-0.293,0.627-0.591,0.932-0.895c0.457-0.454,0.185-0.922-0.241-0.978c-0.953-0.128-1.662,0.689-1.937,1.517
						c-1.478,1.314-3.087,2.488-4.777,3.46c-0.424,0.244-0.997,0.737-1.279,0.424c0.693-0.513,1.346-1.089,1.938-1.714
						c1.149-1.212,2.287-3.375,0.928-4.124c-0.244-0.133-0.707-0.113-0.967,0.233c-0.598,0.794-1.194,1.587-1.792,2.38
						c-0.521,0.692-1.062,1.379-1.379,2.137c-0.1,0.242-0.166,0.497-0.195,0.748c-0.613,0.382-1.249,0.711-1.895,0.978
						c-0.052,0.021-0.107,0.044-0.163,0.068c0.353-0.281,0.704-0.563,1.053-0.848c0.987-0.803,1.886-1.746,1.937-2.866
						c0.049-1.046-0.622-1.779-1.249-2.4c-0.169-0.17-0.574-0.088-0.821,0.102c-1.908,1.455-3.471,3.403-4.249,5.455
						c-0.247,0.653-0.34,1.331-0.06,1.785c-1.702,1.298-3.424,2.566-5.165,3.802c-0.185,0.132-0.631,0.541-0.814,0.48
						c-0.168-0.057-0.098-0.451-0.099-0.631c-0.003-0.48,0.026-0.967,0.083-1.46c0.123-1.072,0.397-2.172,0.795-3.267
						c0.346-0.957,0.792-1.902,1.326-2.823c0.203,0.089,0.475,0.073,0.728-0.134c1.307-1.067,1.961-2.466,1.834-3.773
						c-0.045-0.458-0.78-0.39-1.124,0c-3.242,3.684-5.174,8.246-5.001,12.211c0.039,0.876,0.436,1.612,1.607,1.124
						c0.535-0.224,1.037-0.63,1.52-0.974c0.636-0.453,1.269-0.911,1.901-1.372c1.187-0.867,2.368-1.748,3.538-2.644
						c0.656,0.02,1.417-0.225,2.094-0.471c0.821-0.299,1.633-0.688,2.414-1.154c0.227,0.408,0.643,0.664,1.268,0.601
						c0.635-0.064,1.519-0.709,2.117-1.07c0.706-0.426,1.401-0.876,2.078-1.36c0.658-0.469,1.294-0.968,1.913-1.488
						c0.143,0.198,0.391,0.256,0.816,0.269c0.571,0.015,1.181-0.055,1.787-0.193c0.65-0.149,1.298-0.382,1.927-0.679
						c0.087,0.083,0.189,0.157,0.315,0.218c0.713,0.344,1.7,0.186,2.609-0.161c0.851-0.324,1.693-0.798,2.453-1.38
						c0.218,0.098,0.462,0.163,0.717,0.191c1.221,0.134,2.561-0.517,3.803-1.173
						C1035.212,1291.371,1034.929,1290.244,1034.073,1290.698z M1008.621,1296.592c0.647-1.254,1.576-2.401,2.708-3.365
						c0.482,0.536,0.918,1.266,0.262,2.117c-0.364,0.473-0.937,0.865-1.402,1.238c-0.536,0.427-1.074,0.852-1.613,1.273
						c-0.142,0.11-0.285,0.218-0.426,0.328C1007.964,1297.814,1008.417,1296.989,1008.621,1296.592z M1015.93,1293.162
						c-0.149,0.668-0.956,1.567-1.4,2.001c-0.087,0.084-0.174,0.167-0.264,0.25C1014.753,1294.65,1015.348,1293.9,1015.93,1293.162z
						 M1027.297,1290.585c-0.48,0.591-1.045,1.116-1.66,1.557C1025.978,1291.396,1026.77,1290.544,1027.297,1290.585z
						 M1030.42,1290.548c0.079-0.13,0.449-0.545,0.389-0.262c-0.031,0.151-0.311,0.439-0.528,0.653
						C1030.297,1290.809,1030.344,1290.672,1030.42,1290.548z"/>
				</g>
			</g>
		</g>
		<g>
			<polygon style="fill:#FFFFFF;" points="1338.539,1352.018 1635.016,1352.018 1734.383,953.476 1437.906,953.476 			"/>
			<g>
				<g style="opacity:0.5;">
					<g>
						<path style="fill:#699DEE;" d="M1461.843,1069.927h196.4c2.434,0,4.923-1.992,5.529-4.427l0.414-1.66
							c0.606-2.433-0.889-4.426-3.323-4.426h-196.4c-2.434,0-4.923,1.992-5.529,4.426l-0.414,1.66
							C1457.914,1067.934,1459.409,1069.927,1461.843,1069.927z"/>
						<path style="fill:#699DEE;" d="M1479.317,999.845h196.399c2.434,0,4.923-1.991,5.53-4.425l0.413-1.66
							c0.607-2.434-0.888-4.426-3.322-4.426h-196.4c-2.434,0-4.923,1.991-5.53,4.426l-0.413,1.66
							C1475.387,997.854,1476.881,999.845,1479.317,999.845z"/>
						<path style="fill:#699DEE;" d="M1473.246,1024.19h196.4c2.434,0,4.923-1.992,5.529-4.427l0.414-1.66
							c0.607-2.434-0.889-4.425-3.323-4.425h-196.4c-2.433,0-4.923,1.991-5.529,4.425l-0.414,1.66
							C1469.317,1022.197,1470.812,1024.19,1473.246,1024.19z"/>
						<path style="fill:#699DEE;" d="M1467.544,1047.058h196.4c2.434,0,4.923-1.993,5.53-4.427l0.413-1.66
							c0.608-2.434-0.887-4.425-3.322-4.425h-196.4c-2.434,0-4.923,1.991-5.53,4.425l-0.413,1.66
							C1463.616,1045.066,1465.11,1047.058,1467.544,1047.058z"/>
						<path style="fill:#699DEE;" d="M1450.223,1116.532h196.4c2.434,0,4.923-1.991,5.529-4.425l0.414-1.66
							c0.608-2.434-0.888-4.425-3.323-4.425h-196.399c-2.434,0-4.923,1.991-5.53,4.425l-0.413,1.66
							C1446.293,1114.541,1447.788,1116.532,1450.223,1116.532z"/>
						<path style="fill:#699DEE;" d="M1455.925,1093.663h196.4c2.433,0,4.921-1.991,5.529-4.425l0.413-1.66
							c0.608-2.434-0.888-4.426-3.322-4.426h-196.4c-2.434,0-4.923,1.991-5.529,4.426l-0.414,1.66
							C1451.995,1091.672,1453.49,1093.663,1455.925,1093.663z"/>
					</g>
					<path style="fill:#699DEE;" d="M1414.457,1255.635h47.703c2.89,0,5.845-2.365,6.566-5.255l0,0
						c0.721-2.891-1.055-5.257-3.946-5.257h-47.701c-2.891,0-5.845,2.365-6.566,5.257l0,0
						C1409.792,1253.27,1411.567,1255.635,1414.457,1255.635z"/>
					<path style="fill:#699DEE;" d="M1560.59,1255.635h47.701c2.891,0,5.846-2.365,6.566-5.255l0,0
						c0.722-2.891-1.055-5.257-3.945-5.257h-47.702c-2.891,0-5.847,2.365-6.566,5.257l0,0
						C1555.924,1253.27,1557.7,1255.635,1560.59,1255.635z"/>
				</g>
				<g>
					<path style="fill:#476BA7;" d="M1455.492,1312.206h-69.564c-1.833,0-3.4-0.713-4.411-2.006
						c-1.052-1.347-1.371-3.14-0.895-5.047l5.016-20.115c0.95-3.814,4.831-6.918,8.649-6.918h69.564c1.834,0,3.4,0.713,4.411,2.006
						c1.052,1.347,1.37,3.14,0.894,5.047l-5.014,20.115C1463.189,1309.103,1459.308,1312.206,1455.492,1312.206z M1394.286,1278.68
						c-3.578,0-7.214,2.913-8.106,6.493l-5.016,20.115c-0.433,1.736-0.151,3.358,0.793,4.567c0.903,1.155,2.313,1.79,3.97,1.79
						h69.564c3.577,0,7.213-2.913,8.106-6.493l5.014-20.115c0.433-1.736,0.152-3.358-0.792-4.567c-0.903-1.155-2.311-1.79-3.97-1.79
						H1394.286z"/>
				</g>
				<g>
					<path style="fill:#476BA7;" d="M1601.873,1312.206h-69.564c-1.833,0-3.4-0.713-4.41-2.006c-1.052-1.347-1.371-3.14-0.895-5.047
						l5.016-20.115c0.95-3.814,4.831-6.918,8.649-6.918h69.564c1.833,0,3.4,0.713,4.411,2.006c1.052,1.347,1.371,3.14,0.895,5.047
						l-5.016,20.115C1609.57,1309.103,1605.689,1312.206,1601.873,1312.206z M1540.668,1278.68c-3.578,0-7.214,2.913-8.107,6.493
						l-5.016,20.115c-0.433,1.736-0.151,3.358,0.793,4.567c0.903,1.155,2.313,1.79,3.97,1.79h69.564
						c3.577,0,7.213-2.913,8.106-6.493l5.016-20.115c0.433-1.736,0.151-3.358-0.793-4.567c-0.903-1.155-2.313-1.79-3.97-1.79
						H1540.668z"/>
				</g>
				<path style="fill:#365DA2;" d="M1616.937,1275.451c-10.566,4.366-21.065,9.142-31.463,14.312c0.412-1.165,0.784-2.331,1.11-3.5
					c0.264-0.938-1.002-1.562-1.784-0.53c-0.346,0.457-0.713,0.893-1.102,1.308c0.262-0.839-0.728-1.306-1.578-0.692
					c-0.056,0.04-0.108,0.084-0.161,0.127c0.412-1.127-1.343-1.298-1.997-0.205l-0.975,1.632c-0.825,0.985-1.97,1.735-3.15,2.103
					c-0.245-0.536-0.407-1.117-0.464-1.752c-0.043-0.48-0.389-0.742-0.811-0.743c-0.019-0.575-0.536-0.914-1.302-0.573
					c-0.928,0.412-1.741,1.036-2.395,1.765c-0.521-0.973-2.193-0.276-3.09,0.658c0.025-0.053,0.051-0.105,0.075-0.158
					c0.423-0.903-0.363-1.933-1.421-1.022c-1.884,1.622-3.25,3.663-3.891,5.7c-0.62,0.69-1.281,1.352-1.99,1.962
					c-0.345,0.298-1.957,1.792-2.329,1.661c-0.351-0.123-0.166-1.05-0.006-1.703c0.058-0.08,0.115-0.162,0.172-0.241
					c1.341-1.865,7.805-10.65,3.25-10.571c-0.482,0.007-0.976,0.323-1.267,0.771c-1.663,2.561-2.95,5.262-3.731,7.952
					c-0.149,0.517-0.358,1.183-0.526,1.881c-0.133,0.178-0.265,0.357-0.4,0.532c-1.808,2.372-4.307,5.792-7.24,6.96
					c-0.27-3.714,1.603-8.109,3.019-12.005c0.611-1.68,1.248-3.36,1.91-5.037c0.195-0.039,0.408-0.141,0.63-0.328
					c3.168-2.665,4.459-6.617,3.026-9.274c-0.413-0.766-1.676-0.069-2.038,0.743c-2.181,4.891-4.164,9.805-5.931,14.728
					c-1.564,4.365-3.343,8.978-2.691,13.008c0.069,0.424,0.565,0.584,1.028,0.482c3.342-0.728,6.255-3.702,8.599-6.669
					c0.17,0.384,0.459,0.673,0.917,0.808c1.556,0.462,3.68-1.268,5.208-2.716c0.033,0.506,0.122,0.999,0.274,1.469
					c0.165,0.511,0.694,0.625,1.315,0.376c1.444-0.579,2.796-1.506,3.935-2.63c1.512-0.466,2.834-1.71,3.937-3.159
					c0.697-0.61,1.342-1.255,1.94-1.936c0.129,0.374,0.302,0.716,0.541,0.989c0.569,0.65,2.002,0.06,2.919-0.357
					c0.88-0.402,1.689-0.944,2.404-1.579c0.561-0.044,1.122-0.201,1.655-0.451c0.1,0.16,0.227,0.3,0.392,0.409
					c0.573,0.383,1.243,0.231,1.911-0.181c-0.151,0.424-0.304,0.849-0.466,1.273c-1.515,0.765-3.031,1.537-4.542,2.318
					c-0.998,0.516-1.232,2.044-0.112,1.959c1.388-0.105,2.777-0.211,4.166-0.318c0.633-0.048,1.129-0.446,1.396-1.051
					c0.246-0.556,0.479-1.112,0.706-1.668c10.864-5.444,21.839-10.459,32.888-15.025
					C1618.814,1276.684,1618.343,1274.87,1616.937,1275.451z M1568.524,1291.438c-0.093,0.291-0.207,0.585-0.343,0.869
					c-0.094,0.197-0.2,0.39-0.31,0.581C1568.03,1292.399,1568.246,1291.91,1568.524,1291.438z M1565.465,1294.043
					c-0.115,0.582-0.252,1.164-0.035,1.583c-0.333,0.252-0.681,0.483-1.042,0.689c-0.069-0.62-0.027-1.278,0.119-1.944
					c0.482-0.569,0.934-1.155,1.355-1.754C1565.688,1293.112,1565.555,1293.596,1565.465,1294.043z"/>
				<g>
					<path style="fill:#365DA2;" d="M1422.507,1268.978c-3.74,6.953-5.839,14.088-8.879,21.122c-1.481,3.429-3.223,6.851-5.49,10.09
						c-1.578,2.255-5.018,7.155-7.931,6.093c-0.727-0.264-0.929-0.888-0.693-1.735c0.053-0.188,0.115-0.38,0.183-0.574
						c0.367,0.221,0.939,0.131,1.512-0.177c0.939-0.505,1.738-1.501,2.151-2.393c0.437-0.947,0.367-1.931-0.395-2.351
						c-0.67-0.37-1.67-0.04-2.373,0.667c-0.781,0.785-1.136,1.785-1.521,2.692c-0.47,1.107-1.097,2.311-1.027,3.38
						c0.105,1.607,1.837,2.176,3.532,1.803c2.056-0.452,3.882-2.249,5.265-3.883c1.632-1.931,3.066-3.986,4.314-6.085
						c2.536-4.266,4.331-8.702,6.02-13.094c1.955-5.086,3.781-10.206,6.472-15.206
						C1424.086,1268.507,1422.948,1268.158,1422.507,1268.978z M1402.256,1300.544c0.127,0.492-0.349,1.136-0.738,1.589
						c-0.142,0.164-0.266,0.306-0.443,0.437c-0.099,0.075-0.205,0.138-0.315,0.187c-0.045,0.008-0.077,0.015-0.099,0.024
						c-0.079-0.152-0.226-0.219-0.393-0.22c0.163-0.368,0.335-0.732,0.5-1.078
						C1401.012,1300.967,1401.99,1299.514,1402.256,1300.544z"/>
					<path style="fill:#365DA2;" d="M1447.557,1290.698c-0.763,0.403-1.579,0.859-2.374,0.987c-0.193,0.031-0.407,0.04-0.608,0.018
						c0.563-0.564,1.086-1.222,1.173-1.842c0.141-1.008-0.97-1.24-1.911-0.723c-0.841,0.463-1.382,1.397-1.439,2.173
						c-0.02,0.27,0.024,0.508,0.115,0.717c-0.811,0.584-2.206,1.389-3.067,1.23c1.094-0.752,2.07-1.706,2.822-2.788
						c0.143-0.206,0.151-0.487,0.04-0.633c-0.476-0.624-1.436-0.665-2.375-0.182c-1.009,0.519-1.646,1.527-2.039,2.453
						c-0.132,0.311-0.225,0.616-0.261,0.899c-0.998,0.456-2.042,0.699-3.014,0.68c0-0.005,0-0.011-0.001-0.017
						c0.316-0.293,0.626-0.591,0.932-0.895c0.457-0.454,0.185-0.922-0.241-0.978c-0.953-0.128-1.662,0.689-1.937,1.517
						c-1.478,1.314-3.087,2.488-4.777,3.46c-0.424,0.244-0.997,0.737-1.279,0.424c0.693-0.513,1.346-1.089,1.938-1.714
						c1.149-1.212,2.287-3.375,0.928-4.124c-0.244-0.133-0.707-0.113-0.967,0.233c-0.598,0.794-1.194,1.587-1.792,2.38
						c-0.521,0.692-1.062,1.379-1.379,2.137c-0.1,0.242-0.166,0.497-0.195,0.748c-0.613,0.382-1.249,0.711-1.894,0.978
						c-0.052,0.021-0.107,0.044-0.163,0.068c0.353-0.281,0.704-0.563,1.053-0.848c0.987-0.803,1.886-1.746,1.937-2.866
						c0.049-1.046-0.621-1.779-1.249-2.4c-0.17-0.17-0.574-0.088-0.821,0.102c-1.908,1.455-3.471,3.403-4.248,5.455
						c-0.247,0.653-0.34,1.331-0.06,1.785c-1.702,1.298-3.424,2.566-5.165,3.802c-0.184,0.132-0.631,0.541-0.813,0.48
						c-0.168-0.057-0.098-0.451-0.099-0.631c-0.003-0.48,0.026-0.967,0.083-1.46c0.123-1.072,0.397-2.172,0.795-3.267
						c0.346-0.957,0.792-1.902,1.326-2.823c0.203,0.089,0.475,0.073,0.728-0.134c1.307-1.067,1.961-2.466,1.834-3.773
						c-0.045-0.458-0.78-0.39-1.124,0c-3.242,3.684-5.174,8.246-5.001,12.211c0.039,0.876,0.436,1.612,1.607,1.124
						c0.535-0.224,1.037-0.63,1.52-0.974c0.636-0.453,1.269-0.911,1.901-1.372c1.187-0.867,2.368-1.748,3.538-2.644
						c0.656,0.02,1.417-0.225,2.094-0.471c0.821-0.299,1.633-0.688,2.414-1.154c0.227,0.408,0.643,0.664,1.268,0.601
						c0.635-0.064,1.519-0.709,2.117-1.07c0.706-0.426,1.401-0.876,2.078-1.36c0.658-0.469,1.294-0.968,1.913-1.488
						c0.143,0.198,0.391,0.256,0.816,0.269c0.571,0.015,1.181-0.055,1.786-0.193c0.65-0.149,1.298-0.382,1.927-0.679
						c0.087,0.083,0.19,0.157,0.315,0.218c0.713,0.344,1.7,0.186,2.609-0.161c0.851-0.324,1.692-0.798,2.453-1.38
						c0.219,0.098,0.462,0.163,0.717,0.191c1.222,0.134,2.561-0.517,3.803-1.173
						C1448.696,1291.371,1448.413,1290.244,1447.557,1290.698z M1422.105,1296.592c0.647-1.254,1.576-2.401,2.708-3.365
						c0.482,0.536,0.918,1.266,0.262,2.117c-0.364,0.473-0.937,0.865-1.402,1.238c-0.536,0.427-1.073,0.852-1.613,1.273
						c-0.142,0.11-0.285,0.218-0.426,0.328C1421.448,1297.814,1421.902,1296.989,1422.105,1296.592z M1429.415,1293.162
						c-0.149,0.668-0.956,1.567-1.4,2.001c-0.087,0.084-0.175,0.167-0.264,0.25C1428.237,1294.65,1428.832,1293.9,1429.415,1293.162
						z M1440.781,1290.585c-0.48,0.591-1.044,1.116-1.66,1.557C1439.462,1291.396,1440.254,1290.544,1440.781,1290.585z
						 M1443.904,1290.548c0.079-0.13,0.449-0.545,0.389-0.262c-0.031,0.151-0.311,0.439-0.528,0.653
						C1443.781,1290.809,1443.828,1290.672,1443.904,1290.548z"/>
				</g>
			</g>
		</g>
		<g>
			<path style="fill:#E49963;" d="M1063.547,1072.85c-1.368,3.246-0.719,6.155,1.362,8.802c0.005,0.012,0.018,0.027,0.034,0.035
				c3.849,4.897,12.547,8.914,22.317,12.568c1.25,0.471,2.367,0.905,3.353,1.324c0.259,0.109,0.518,0.219,0.765,0.334
				c0.201,0.085,0.398,0.178,0.59,0.26c9.393,4.263,7.185,6.679,24.569,15.882c19.819,10.483,30.068,7.408,32.497,5.055
				c2.051-1.999-5.602-8.501-14.125-15.837c-0.412-0.352-0.821-0.713-1.242-1.07c-1.135-0.974-2.27-1.969-3.402-2.952
				c-10.083-8.885-10.132-14.599-14.011-31.494c-3.152-13.729-3.831-81.246-3.831-81.246l-29.88,4.458
				c0,0,7.536,51.456,0.627,62.042c-3.699,5.649-9.298,7.551-13.143,12.103c-0.273,0.318-0.538,0.639-0.794,0.964
				C1067.09,1066.801,1064.917,1069.596,1063.547,1072.85z"/>
			<path style="fill:#365DA4;" d="M1063.547,1072.85c-1.368,3.246-0.719,6.155,1.362,8.802c0.005,0.012,0.018,0.027,0.034,0.035
				c4.298,4.743,12.819,8.784,22.325,12.502c1.242,0.488,2.349,0.948,3.344,1.39c0.259,0.109,0.518,0.219,0.765,0.334
				c0.201,0.085,0.398,0.178,0.59,0.26c9.393,4.263,7.185,6.679,24.569,15.882c19.819,10.483,30.068,7.408,32.497,5.055
				c2.051-1.999-5.602-8.501-14.125-15.837c-3.22-0.104-18.349-1.122-32.694-10.701c-12.625-8.405-23.356-21.017-32.189-27.457
				c-0.273,0.318-0.538,0.639-0.794,0.964C1067.09,1066.801,1064.917,1069.596,1063.547,1072.85z"/>
			<path style="fill:#E49963;" d="M1299.59,1055.018c1.967,9.832,15.981,8.192,31.639,4.365c15.658-3.826,11.936,0.722,34.22-1.745
				c22.284-2.466,29.035-10.775,29.714-14.089c0.608-2.94-10.403-3.977-22.213-5.338c-1.485-0.166-2.977-0.351-4.469-0.534
				c-13.334-1.673-23.099-10.278-35.211-17.344c-11.473-6.694-28.594-33.965-28.594-33.965l-30.561,2.421
				c0,0,16.037,24.358,22.24,34.948c3.648,6.229,3.455,14.466,3,20.826C1299.119,1048.022,1298.893,1051.556,1299.59,1055.018z"/>
			<path style="fill:#365DA4;" d="M1331.229,1059.384c15.658-3.826,11.936,0.722,34.22-1.745
				c22.284-2.466,29.035-10.775,29.714-14.089c0.608-2.94-10.403-3.977-22.213-5.338l-0.11,0.227c0,0-13.364,9.476-31.913,9.919
				c-15.118,0.368-31.131-3.964-41.572-3.795c-0.237,3.458-0.462,6.992,0.235,10.454
				C1301.557,1064.85,1315.572,1063.21,1331.229,1059.384z"/>
			<path style="fill:#AA413E;" d="M1182.475,859.606l-65.864,177.252c0,0-10.118,0.979-19.819-1.815
				c-8.926-2.573-19.156-9.328-19.156-9.328s16.339-170.193,46.293-205.593C1153.882,784.721,1182.475,859.606,1182.475,859.606z"/>
			<path style="fill:#C65447;" d="M921.967,787.898c0,0,189.254-63.992,231.462-50.377c42.208,13.616,168.936,265.75,168.936,265.75
				s-2.857,3.804-10.666,6.733c-7.262,2.723-24.839,2.549-24.839,2.549s-114.37-98.031-127.985-126.624
				c-13.615-28.592-19.062-55.823-32.677-53.1s-175.638,66.715-212.4,28.592c-36.762-38.123-27.148-87.655-27.148-87.655
				L921.967,787.898z"/>
			<path style="fill:#2B478B;" d="M1029.863,336.658c-8.18-4.65-17.984-5.157-24.841-4.752c1.766-1.823,5.239-2.486,5.239-2.486
				c-4.252-0.632-13.743,3.585-13.743,3.585c-59.147-22.791-68.444,64.298-67.201,84.532c1.234,20.231,1.384,43.52-28.143,61.666
				c-58.095,35.704-9.077,98.036-9.077,98.036c0.457,0.27,27.03,45.339,27.03,45.339c-1.493-16.35,73.947-102.634,113.306-128.475
				c9.582-14.106,12.987-39.024,13.242-40.986c-1.654,19.758-5.034,30.84-8.055,37.081
				C1070.949,459.524,1051.546,348.979,1029.863,336.658z"/>
			<path style="fill:#E49963;" d="M1030.104,495.389c0.197,0.089-19.004,10.059-33.446,6.108
				c-13.585-3.704-22.462-21.319-22.274-21.358c5.753-1.143,7.412-9.048,7.29-43.022l2.601,0.512l43.732,8.66
				c0,0-0.995,13.763-1.025,26.727C1026.952,483.902,1027.611,494.227,1030.104,495.389z"/>
			<path style="fill:#D68D5D;" d="M1028.006,446.289c0,0-0.995,13.763-1.025,26.727c-24.472-0.689-37.407-23.013-42.707-35.387
				L1028.006,446.289z"/>
			<path style="fill:#2B478B;" d="M979.757,432.868c0,0-12.824-20.263-15.902-37.59c-2.198-12.37,4.103-58.222,50.18-51.619
				c0,0,13.383,1.319,25.962,9.814c10.004,6.757,24.442,21.344,8.298,61.356l-4.193,13.516L979.757,432.868z"/>
			<path style="fill:#E49963;" d="M1036.178,458.565c0,0-57.899,0.955-57.939-35.111c-0.04-36.066-7.54-60.232,29.426-62.367
				c36.965-2.135,44.163,11.619,47.105,23.655C1057.711,396.777,1051.238,457.387,1036.178,458.565z"/>
			<path style="fill:#2B478B;" d="M1053.048,364.689c-8.934-10.83-15.692-8.476-19.484-5.224
				c-12.512-18.695-52.057,8.342-52.057,8.342c-3.873,25.878-22.534,40.703-22.534,40.703s10.553,6.518,34.882,0.262
				c19.146-4.924,33.041-32.175,38.093-43.562c3.442,3.06,10.708,10.133,12.885,17.059c2.886,9.185,4.185,28.091,9.695,27.447
				C1054.527,409.717,1066.47,380.958,1053.048,364.689z"/>
			<path style="fill:#A8D29F;" d="M877.573,788.896c3.123,8.669,12.699,10.902,25.535,9.395
				c24.473-2.859,60.828-19.289,87.025-30.654c39.941-17.31,58.095-1.044,70.804-12.064c12.708-11.02-14.524-35.52,9.077-149.286
				c8.006-38.579-42.718-121.292-42.718-121.292s-4.57,24.257-52.912-4.856c-0.964-0.581-39.214,62.135-39.214,62.135
				s-39.705,84.937-33.995,108.883C912.067,696.807,868.495,763.707,877.573,788.896z"/>
			<path style="fill:#A8D29F;" d="M1027.295,484.995l29.919,122.726c0,0,3.722,6.627,9.558,16.058
				c13.698,22.149,39.051,59.774,55.281,63.596c8.006,1.888,25.035-4.775,43.88-14.297c35.629-18-7.541-110.497-7.541-110.497
				c2.723-16.339-59.359-5.141-59.359-5.141s47.838,71.839,39.359,72.448c-18.473,1.317-37.272-87.842-54.537-117.552
				C1071.375,490.85,1027.295,484.995,1027.295,484.995z"/>
			<path style="fill:#FFFFFF;" d="M1023.307,436.702c0,0,1.079,4.582,12.477,3.875c0,0,9.57-0.592,9.277-5.627
				C1045.061,434.951,1035.782,431.368,1023.307,436.702z"/>
			<path style="fill:#82B378;" d="M877.573,788.896c3.123,8.669,12.699,10.902,25.535,9.395
				c16.939-7.38,90.112-35.728,89.294-54.936c-1.216-28.44-14.07-29.347-4.992-64.45c7.289-28.185-60.322-80.592-71.106-91.984
				c-20.279,38.47-20.839,40.288-15.129,64.234C912.067,696.807,868.495,763.707,877.573,788.896z"/>
			<path style="fill:#B5453C;" d="M1066.773,623.779c13.698,22.149,39.051,59.774,55.281,63.596
				c8.006,1.888,25.035-4.775,43.88-14.297c-13.752,3.549-27.114,3.45-40.095,2.197c-14.07-1.362-18.155-18.609-40.395-44.479
				C1071.021,614.021,1067.481,618.242,1066.773,623.779z"/>
			<path style="fill:#A8D29F;" d="M974.383,480.138c0,0-63.855,6.592-74.64,29.6c-10.785,23.007-42.421,113.6-33.074,155.302
				c9.347,41.702,92.031-30.917,92.031-30.917L974.383,480.138z"/>
			<g>
				<path style="fill:#699FF0;" d="M1279.454,734.581l-32.825-190.368c-1.136-6.589-7.457-11.051-14.046-9.915l-346.847,59.806
					c-6.589,1.136-11.051,7.457-9.915,14.046l32.825,190.368c1.136,6.589,7.457,11.051,14.046,9.915l346.847-59.806
					C1276.128,747.491,1280.59,741.17,1279.454,734.581z"/>
				
					<rect x="880.171" y="595.756" transform="matrix(0.9855 -0.1699 0.1699 0.9855 -89.3516 190.503)" style="fill:#365DA4;" width="376.28" height="43.039"/>
				<g>
					
						<rect x="917.721" y="657.673" transform="matrix(0.9855 -0.1699 0.1699 0.9855 -99.6071 185.3093)" style="fill:#AFCDFB;" width="230.227" height="33.838"/>
					<path style="fill:#AFCDFB;" d="M974.698,738.473c-0.862-5-5.615-8.354-10.615-7.492l-28.177,4.859
						c-5,0.862-8.355,5.614-7.492,10.615l4.191,24.306c0.862,5,5.615,8.355,10.615,7.492l28.177-4.859
						c5-0.862,8.355-5.615,7.492-10.615L974.698,738.473z"/>
				</g>
				<g>
					<path style="opacity:0.2;fill:#AFCDFB;" d="M1016.189,726.404l222.872-38.429c1.937-0.334,3.237-2.175,2.903-4.112l-0.59-3.423
						c-0.334-1.937-2.175-3.237-4.113-2.903l-222.872,38.429c-1.937,0.334-3.237,2.175-2.903,4.112l0.59,3.423
						C1012.411,725.438,1014.252,726.738,1016.189,726.404z"/>
					<path style="opacity:0.2;fill:#AFCDFB;" d="M1019.525,745.991l222.953-38.443c1.915-0.33,3.199-2.15,2.869-4.065l-0.564-3.267
						c-0.33-1.915-2.15-3.199-4.065-2.869l-222.953,38.443c-1.915,0.33-3.199,2.15-2.869,4.065l0.564,3.267
						C1015.79,745.036,1017.61,746.321,1019.525,745.991z"/>
					<path style="opacity:0.2;fill:#AFCDFB;" d="M1248.598,722.341l-0.638-3.701c-0.341-1.976-2.219-3.302-4.195-2.961
						l-222.731,38.405c-1.976,0.341-3.302,2.219-2.961,4.195l0.638,3.701c0.34,1.976,2.219,3.302,4.195,2.961l222.731-38.405
						C1247.613,726.195,1248.939,724.317,1248.598,722.341z"/>
				</g>
			</g>
			<path style="fill:#E49963;" d="M927.383,586.922c0,0,18.857-20.664,37.849-16.929c18.993,3.735,23.667,18.834,21.509,22.07
				c-2.157,3.235-8.628,7.909-18.334,5.752C958.701,595.658,927.383,586.922,927.383,586.922z"/>
			<path style="fill:#E49963;" d="M1099.034,557.44c0,0,18.857-20.664,37.849-16.929c18.993,3.735,23.667,18.834,21.51,22.07
				c-2.157,3.236-8.628,7.909-18.334,5.752C1130.352,566.176,1099.034,557.44,1099.034,557.44z"/>
		</g>
		<path style="fill:#2B478B;" d="M1755.226,793.241c-3.922-0.969-7.894,1.38-8.875,5.239l-17.094,67.262h-218.525l16.205-63.766
			c0.981-3.859-1.402-7.77-5.322-8.736c-3.922-0.969-7.894,1.38-8.875,5.239l-173.601,683.092h-0.674v2.653l-53.869,211.964
			c-0.981,3.86,1.402,7.771,5.323,8.737c0.596,0.147,1.193,0.217,1.782,0.217c3.278,0,6.261-2.184,7.093-5.456l52.747-207.548
			h218.524l-51.858,204.051c-0.981,3.86,1.403,7.771,5.323,8.737c0.596,0.147,1.193,0.217,1.782,0.217
			c3.278,0,6.261-2.184,7.093-5.456l84.048-330.715l2.685-10.566l141.411-556.429
			C1761.53,798.117,1759.147,794.206,1755.226,793.241z M1572.75,1481.572h-218.525l29.523-116.165v3.565h217.619L1572.75,1481.572z
			 M1604.051,1358.406h-218.524l28.616-112.601h218.525L1604.051,1358.406z M1635.353,1235.241h-218.525l28.616-112.602h218.525
			L1635.353,1235.241z M1666.655,1112.074H1448.13l28.617-112.601h218.525L1666.655,1112.074z M1697.956,988.907h-218.525
			l28.616-112.601h218.525L1697.956,988.907z"/>
		<g>
			<path style="fill:#FFB93E;" d="M1190.171,1662.72v30.501c0,2.43-0.741,4.685-2.014,6.563c-1.339,1.976-3.262,3.529-5.517,4.4
				c-0.689,0.273-1.411,0.474-2.151,0.604c-0.676,0.124-1.365,0.189-2.073,0.189h-485.84c-1.949,0-3.795-0.481-5.419-1.332
				c-3.437-1.8-5.894-5.257-6.284-9.292c-0.019-0.176-0.033-0.351-0.039-0.527c-0.007-0.201-0.013-0.403-0.013-0.604v-30.501
				c0-0.201,0.006-0.403,0.013-0.604c0.318-6.186,5.478-11.15,11.742-11.15h485.84c0.708,0,1.397,0.064,2.073,0.188
				c0.74,0.13,1.462,0.332,2.151,0.604c2.254,0.871,4.177,2.424,5.517,4.399C1189.43,1658.035,1190.171,1660.289,1190.171,1662.72z"
				/>
			<path style="fill:#FFA412;" d="M951.598,1704.975H691.316c-1.741,0-3.386-0.481-4.834-1.332c-3.074-1.8-5.263-5.257-5.608-9.292
				c-0.019-0.176-0.033-0.351-0.039-0.527c-0.007-0.201-0.013-0.403-0.013-0.604v-30.501c0-0.201,0.006-0.403,0.013-0.604
				c0.286-6.186,4.893-11.15,10.481-11.15h228.319c3.548,15.465,11.683,36.694,30.365,52.679
				C950.526,1704.092,951.059,1704.534,951.598,1704.975z"/>
			<g>
				<rect x="1125.532" y="1650.968" style="fill:#FFA412;" width="5.522" height="54.011"/>
				<rect x="1106.841" y="1650.968" style="fill:#FFA412;" width="5.522" height="54.011"/>
				<rect x="1084.427" y="1650.968" style="fill:#FFA412;" width="5.522" height="54.011"/>
				<rect x="1050.07" y="1650.968" style="fill:#FFA412;" width="5.522" height="54.011"/>
				<rect x="1013.739" y="1650.968" style="fill:#FFA412;" width="5.522" height="54.011"/>
				<rect x="958.042" y="1650.968" style="fill:#FFA412;" width="5.522" height="54.011"/>
				<rect x="905.893" y="1650.968" style="fill:#FFA412;" width="5.522" height="54.011"/>
				<rect x="859.328" y="1650.968" style="fill:#FFA412;" width="5.521" height="54.011"/>
				<rect x="1143.324" y="1650.968" style="fill:#FFA412;" width="5.522" height="54.011"/>
				<rect x="1155.078" y="1650.968" style="fill:#FFA412;" width="5.522" height="54.011"/>
				<rect x="1166.428" y="1650.968" style="fill:#FFA412;" width="5.522" height="54.011"/>
				<path style="fill:#FFA412;" d="M1180.49,1651.154v53.634c-0.676,0.123-1.365,0.189-2.073,0.189h-3.45v-54.011h3.45
					C1179.125,1650.965,1179.814,1651.031,1180.49,1651.154z"/>
				<path style="fill:#FFA412;" d="M1188.158,1656.157v43.628c-1.339,1.975-3.262,3.528-5.517,4.399v-52.425
					C1184.895,1652.629,1186.818,1654.182,1188.158,1656.157z"/>
			</g>
		</g>
		<g>
			<path style="fill:#FFB93E;" d="M1229.874,1608.708v30.502c0,2.43-0.741,4.684-2.014,6.563c-1.339,1.975-3.262,3.528-5.517,4.399
				c-0.689,0.273-1.41,0.475-2.151,0.604c-0.676,0.123-1.364,0.189-2.073,0.189h-485.84c-6.264,0-11.423-4.965-11.742-11.151
				c-0.006-0.201-0.013-0.402-0.013-0.604v-30.502c0-0.201,0.006-0.403,0.013-0.604c0.292-5.718,4.731-10.397,10.351-11.066
				c0.455-0.059,0.923-0.085,1.391-0.085h485.84c0.708,0,1.397,0.065,2.073,0.189c0.741,0.13,1.462,0.331,2.151,0.604
				c2.255,0.871,4.178,2.424,5.517,4.399C1229.133,1604.023,1229.874,1606.278,1229.874,1608.708z"/>
			<path style="fill:#FFA412;" d="M991.301,1650.965H731.018c-5.588,0-10.195-4.965-10.481-11.151
				c-0.006-0.201-0.013-0.402-0.013-0.604v-30.502c0-0.201,0.006-0.403,0.013-0.604c0.26-5.718,4.224-10.397,9.24-11.066
				c0.403-0.059,0.819-0.085,1.241-0.085h228.319c0.006,0.026,0.013,0.058,0.019,0.085
				C963.015,1612.932,971.515,1634.869,991.301,1650.965z"/>
			<g>
				<rect x="1165.236" y="1596.955" style="fill:#FFA412;" width="5.522" height="54.011"/>
				<rect x="1146.545" y="1596.955" style="fill:#FFA412;" width="5.522" height="54.011"/>
				<rect x="1124.131" y="1596.955" style="fill:#FFA412;" width="5.522" height="54.011"/>
				<rect x="1089.774" y="1596.955" style="fill:#FFA412;" width="5.522" height="54.011"/>
				<rect x="1053.443" y="1596.955" style="fill:#FFA412;" width="5.522" height="54.011"/>
				<rect x="997.746" y="1596.955" style="fill:#FFA412;" width="5.522" height="54.011"/>
				<rect x="945.598" y="1596.955" style="fill:#FFA412;" width="5.522" height="54.011"/>
				<rect x="899.032" y="1596.955" style="fill:#FFA412;" width="5.521" height="54.011"/>
				<rect x="1183.028" y="1596.955" style="fill:#FFA412;" width="5.522" height="54.011"/>
				<rect x="1194.782" y="1596.955" style="fill:#FFA412;" width="5.522" height="54.011"/>
				<rect x="1206.132" y="1596.955" style="fill:#FFA412;" width="5.522" height="54.011"/>
				<path style="fill:#FFA412;" d="M1220.194,1597.141v53.634c-0.675,0.123-1.365,0.189-2.073,0.189h-3.45v-54.011h3.45
					C1218.829,1596.953,1219.519,1597.018,1220.194,1597.141z"/>
				<path style="fill:#FFA412;" d="M1227.862,1602.145v43.627c-1.339,1.976-3.262,3.528-5.517,4.399v-52.425
					C1224.6,1598.616,1226.523,1600.17,1227.862,1602.145z"/>
			</g>
		</g>
		<g>
			<path style="fill:#FFB93E;" d="M1166.09,1554.781v30.501c0,2.431-0.741,4.685-2.014,6.563c-1.339,1.975-3.262,3.528-5.517,4.399
				c-0.689,0.273-1.411,0.475-2.151,0.604c-0.227,0.038-0.455,0.078-0.682,0.104c-0.182,0.026-0.364,0.039-0.546,0.052
				c-0.091,0.006-0.182,0.013-0.273,0.02c-0.189,0.006-0.376,0.013-0.571,0.013h-485.84c-6.264,0-11.424-4.965-11.742-11.151
				c-0.006-0.201-0.013-0.402-0.013-0.604v-30.501c0-0.201,0.007-0.402,0.013-0.604c0.318-6.186,5.478-11.15,11.742-11.15h485.84
				c0.208,0,0.416,0.006,0.623,0.02c0.494,0.026,0.975,0.084,1.449,0.169c0.74,0.13,1.462,0.331,2.151,0.604
				c0.351,0.136,0.695,0.286,1.02,0.454c0.208,0.104,0.409,0.208,0.604,0.325c0.02,0.006,0.046,0.02,0.065,0.039
				c0.202,0.116,0.396,0.24,0.591,0.37c0.039,0.02,0.072,0.046,0.098,0.064c0.182,0.117,0.357,0.247,0.526,0.384
				c0.417,0.312,0.806,0.65,1.17,1.02c0.117,0.111,0.228,0.228,0.332,0.344c0.02,0.02,0.039,0.039,0.059,0.065
				c0.071,0.072,0.136,0.143,0.201,0.221c0.013,0.013,0.026,0.033,0.039,0.046c0.117,0.137,0.234,0.279,0.344,0.429
				c0.163,0.208,0.319,0.416,0.468,0.637C1165.349,1550.096,1166.09,1552.351,1166.09,1554.781z"/>
			<path style="fill:#FFA412;" d="M927.517,1597.038H667.234c-5.589,0-10.195-4.965-10.482-11.151
				c-0.006-0.201-0.013-0.402-0.013-0.604v-30.501c0-0.201,0.007-0.402,0.013-0.604c0.286-6.186,4.893-11.15,10.482-11.15h228.319
				c0.091,0.409,0.188,0.825,0.299,1.247c3.788,15.758,12.327,36.981,31.56,52.679
				C927.445,1596.979,927.484,1597.011,927.517,1597.038z"/>
			<g>
				<rect x="1101.45" y="1543.029" style="fill:#FFA412;" width="5.522" height="54.011"/>
				<rect x="1082.759" y="1543.029" style="fill:#FFA412;" width="5.522" height="54.011"/>
				<rect x="1060.345" y="1543.029" style="fill:#FFA412;" width="5.522" height="54.011"/>
				<rect x="1025.988" y="1543.029" style="fill:#FFA412;" width="5.522" height="54.011"/>
				<rect x="989.657" y="1543.029" style="fill:#FFA412;" width="5.522" height="54.011"/>
				<rect x="933.96" y="1543.029" style="fill:#FFA412;" width="5.522" height="54.011"/>
				<rect x="881.812" y="1543.029" style="fill:#FFA412;" width="5.521" height="54.011"/>
				<rect x="835.246" y="1543.029" style="fill:#FFA412;" width="5.521" height="54.011"/>
				<rect x="1119.242" y="1543.029" style="fill:#FFA412;" width="5.522" height="54.011"/>
				<rect x="1130.996" y="1543.029" style="fill:#FFA412;" width="5.522" height="54.011"/>
				<rect x="1142.346" y="1543.029" style="fill:#FFA412;" width="5.522" height="54.011"/>
				<path style="fill:#FFA412;" d="M1156.408,1543.215v53.634c-0.675,0.123-1.365,0.189-2.073,0.189h-3.45v-54.011h3.45
					C1155.043,1543.027,1155.733,1543.092,1156.408,1543.215z"/>
				<path style="fill:#FFA412;" d="M1164.075,1548.219v43.627c-1.339,1.975-3.262,3.528-5.517,4.399v-52.425
					C1160.814,1544.691,1162.737,1546.243,1164.075,1548.219z"/>
			</g>
		</g>
		<g>
			<path style="fill:#FFB93E;" d="M1201.809,1502.018v30.502c0,2.43-0.741,4.684-2.014,6.563c-1.339,1.975-3.262,3.528-5.517,4.399
				c-0.688,0.273-1.41,0.474-2.151,0.604c-0.676,0.123-1.365,0.188-2.073,0.188h-485.84c-1.884,0-3.671-0.448-5.25-1.247
				c-3.542-1.774-6.076-5.302-6.459-9.422c-0.013-0.156-0.026-0.318-0.033-0.481c-0.006-0.201-0.013-0.402-0.013-0.604v-30.502
				c0-0.201,0.006-0.403,0.013-0.604c0.293-5.725,4.731-10.397,10.352-11.066c0.455-0.058,0.916-0.084,1.39-0.084h485.84
				c0.708,0,1.397,0.065,2.073,0.189c0.741,0.13,1.463,0.331,2.151,0.604c2.255,0.871,4.178,2.424,5.517,4.399
				C1201.068,1497.333,1201.809,1499.588,1201.809,1502.018z"/>
			<path style="fill:#FFA412;" d="M963.236,1544.274H702.954c-1.683,0-3.275-0.448-4.685-1.247
				c-3.165-1.774-5.419-5.302-5.764-9.422c-0.013-0.156-0.026-0.318-0.033-0.481c-0.006-0.201-0.013-0.402-0.013-0.604v-30.502
				c0-0.201,0.006-0.403,0.013-0.604c0.26-5.718,4.224-10.397,9.24-11.066c0.403-0.058,0.818-0.084,1.241-0.084h228.319
				c0.007,0.026,0.013,0.059,0.02,0.084c3.561,15.485,11.729,36.714,30.449,52.679
				C962.229,1543.449,962.729,1543.865,963.236,1544.274z"/>
			<g>
				<rect x="1137.17" y="1490.263" style="fill:#FFA412;" width="5.522" height="54.011"/>
				<rect x="1118.478" y="1490.263" style="fill:#FFA412;" width="5.522" height="54.011"/>
				<rect x="1096.063" y="1490.263" style="fill:#FFA412;" width="5.522" height="54.011"/>
				<rect x="1061.707" y="1490.263" style="fill:#FFA412;" width="5.522" height="54.011"/>
				<rect x="1025.377" y="1490.263" style="fill:#FFA412;" width="5.522" height="54.011"/>
				<rect x="969.68" y="1490.263" style="fill:#FFA412;" width="5.522" height="54.011"/>
				<rect x="917.531" y="1490.263" style="fill:#FFA412;" width="5.522" height="54.011"/>
				<rect x="870.965" y="1490.263" style="fill:#FFA412;" width="5.521" height="54.011"/>
				<rect x="1154.961" y="1490.263" style="fill:#FFA412;" width="5.522" height="54.011"/>
				<rect x="1166.715" y="1490.263" style="fill:#FFA412;" width="5.522" height="54.011"/>
				<rect x="1178.065" y="1490.263" style="fill:#FFA412;" width="5.522" height="54.011"/>
				<path style="fill:#FFA412;" d="M1192.127,1490.45v53.634c-0.676,0.124-1.365,0.189-2.073,0.189h-3.45v-54.011h3.45
					C1190.762,1490.262,1191.451,1490.326,1192.127,1490.45z"/>
				<path style="fill:#FFA412;" d="M1199.795,1495.453v43.627c-1.339,1.976-3.262,3.529-5.517,4.4v-52.426
					C1196.533,1491.925,1198.456,1493.478,1199.795,1495.453z"/>
			</g>
		</g>
		<g>
			<path style="fill:#FFB93E;" d="M1166.09,1448.092v30.501c0,2.43-0.741,4.685-2.014,6.564c-1.339,1.975-3.262,3.528-5.517,4.399
				c-0.689,0.273-1.411,0.474-2.151,0.604c-0.227,0.039-0.455,0.078-0.682,0.104c-0.123,0.013-0.253,0.026-0.384,0.039
				c-0.123,0.013-0.253,0.02-0.384,0.026c-0.208,0.013-0.416,0.019-0.623,0.019h-485.84c-6.264,0-11.424-4.964-11.742-11.15
				c-0.006-0.201-0.013-0.402-0.013-0.604v-30.501c0-0.201,0.007-0.403,0.013-0.604c0.318-6.186,5.478-11.15,11.742-11.15h485.84
				c0.708,0,1.397,0.065,2.073,0.188c0.74,0.13,1.462,0.332,2.151,0.604c2.255,0.871,4.178,2.424,5.517,4.399
				C1165.349,1443.406,1166.09,1445.661,1166.09,1448.092z"/>
			<path style="fill:#FFA412;" d="M927.517,1490.348H667.234c-5.589,0-10.195-4.964-10.482-11.15
				c-0.006-0.201-0.013-0.402-0.013-0.604v-30.501c0-0.201,0.007-0.403,0.013-0.604c0.286-6.186,4.893-11.15,10.482-11.15h228.319
				c3.639,15.875,12.112,37.812,31.859,53.927C927.445,1490.289,927.484,1490.322,927.517,1490.348z"/>
			<g>
				<rect x="1101.45" y="1436.337" style="fill:#FFA412;" width="5.522" height="54.011"/>
				<rect x="1082.759" y="1436.337" style="fill:#FFA412;" width="5.522" height="54.011"/>
				<rect x="1060.345" y="1436.337" style="fill:#FFA412;" width="5.522" height="54.011"/>
				<rect x="1025.988" y="1436.337" style="fill:#FFA412;" width="5.522" height="54.011"/>
				<rect x="989.657" y="1436.337" style="fill:#FFA412;" width="5.522" height="54.011"/>
				<rect x="933.96" y="1436.337" style="fill:#FFA412;" width="5.522" height="54.011"/>
				<rect x="881.812" y="1436.337" style="fill:#FFA412;" width="5.521" height="54.011"/>
				<rect x="835.246" y="1436.337" style="fill:#FFA412;" width="5.523" height="54.011"/>
				<rect x="1119.242" y="1436.337" style="fill:#FFA412;" width="5.522" height="54.011"/>
				<rect x="1130.996" y="1436.337" style="fill:#FFA412;" width="5.522" height="54.011"/>
				<rect x="1142.346" y="1436.337" style="fill:#FFA412;" width="5.522" height="54.011"/>
				<path style="fill:#FFA412;" d="M1156.408,1436.524v53.634c-0.675,0.124-1.365,0.189-2.073,0.189h-3.45v-54.011h3.45
					C1155.043,1436.336,1155.733,1436.401,1156.408,1436.524z"/>
				<path style="fill:#FFA412;" d="M1164.075,1441.527v43.627c-1.339,1.975-3.262,3.528-5.517,4.399v-52.426
					C1160.814,1437.999,1162.737,1439.552,1164.075,1441.527z"/>
			</g>
		</g>
		<g>
			
				<ellipse transform="matrix(0.7071 -0.7071 0.7071 0.7071 -822.9 868.7626)" style="fill:#E2810E;" cx="637.239" cy="1427.709" rx="274.962" ry="274.962"/>
			
				<ellipse transform="matrix(0.7071 -0.7071 0.7071 0.7071 -829.9257 851.8011)" style="fill:#FFB93E;" cx="613.252" cy="1427.709" rx="274.962" ry="274.962"/>
			<g>
				<path style="fill:#FFA412;" d="M613.252,1681.479c-33.817,0-66.626-6.625-97.516-19.69
					c-29.833-12.618-56.624-30.681-79.628-53.685c-23.005-23.005-41.068-49.796-53.686-79.629
					c-13.065-30.891-19.69-63.699-19.69-97.516s6.625-66.626,19.69-97.516c12.618-29.833,30.681-56.624,53.686-79.629
					c23.005-23.005,49.796-41.068,79.628-53.686c30.89-13.065,63.7-19.69,97.516-19.69c33.817,0,66.626,6.625,97.516,19.69
					c29.833,12.619,56.624,30.681,79.629,53.686c23.005,23.005,41.068,49.795,53.686,79.629c13.066,30.89,19.69,63.699,19.69,97.516
					s-6.624,66.626-19.69,97.516c-12.618,29.832-30.681,56.623-53.686,79.629c-23.005,23.005-49.796,41.068-79.629,53.685
					C679.878,1674.854,647.069,1681.479,613.252,1681.479z M613.252,1195.383c-62.924,0-122.083,24.504-166.577,68.999
					c-44.494,44.494-68.998,103.652-68.998,166.577c0,62.924,24.504,122.082,68.998,166.577
					c44.494,44.494,103.653,68.998,166.577,68.998s122.083-24.504,166.577-68.998c44.494-44.495,68.999-103.653,68.999-166.577
					c0-62.925-24.504-122.083-68.999-166.577C735.335,1219.887,676.176,1195.383,613.252,1195.383z"/>
			</g>
			<g>
				<path style="fill:#FFA412;" d="M647.741,1503.667c0.641-5.402,0.441-10.249-0.592-14.547c-1.036-4.298-3.086-8.324-6.149-12.079
					c-3.067-3.755-7.166-7.373-12.299-10.853c-5.135-3.477-11.487-7.036-19.06-10.673c-13.009-6.371-24.741-12.82-35.199-19.342
					c-10.463-6.526-19.233-13.664-26.317-21.419c-7.085-7.755-12.266-16.456-15.545-26.107c-3.279-9.651-4.17-20.78-2.674-33.387
					c1.297-10.932,4.418-20.673,9.365-29.22c4.945-8.539,11.415-15.729,19.411-21.567c7.993-5.834,17.258-10.246,27.796-13.237
					c10.535-2.987,22.105-4.325,34.705-4.001l4.9-41.292l33.235,3.943l-4.968,41.87c11.723,2.958,22.151,7.393,31.281,13.299
					c9.126,5.909,16.635,13.063,22.522,21.456c5.881,8.399,10.046,17.99,12.488,28.78c2.439,10.792,2.897,22.62,1.372,35.481
					l-60.03-7.123c1.831-15.435-0.226-27.387-6.172-35.857c-5.948-8.462-14.669-13.383-26.162-14.747
					c-6.231-0.739-11.703-0.505-16.407,0.698c-4.707,1.199-8.693,3.143-11.961,5.817c-3.266,2.681-5.838,5.994-7.71,9.947
					c-1.873,3.952-3.092,8.309-3.656,13.069c-0.565,4.76-0.385,9.15,0.543,13.171c0.925,4.025,2.891,7.877,5.896,11.562
					c3.002,3.682,7.137,7.303,12.402,10.861c5.265,3.562,11.869,7.378,19.813,11.452c12.833,6.609,24.447,13.206,34.831,19.785
					c10.381,6.582,19.113,13.782,26.189,21.598c7.076,7.819,12.254,16.557,15.533,26.204c3.277,9.654,4.176,20.718,2.695,33.195
					c-1.343,11.318-4.521,21.25-9.536,29.781c-5.016,8.539-11.515,15.659-19.493,21.363c-7.98,5.707-17.294,9.953-27.946,12.732
					c-10.65,2.779-22.276,4.007-34.877,3.687l-4.556,38.396l-33.028-3.919l4.533-38.205c-11.36-2.52-22.174-6.348-32.446-11.479
					c-10.275-5.134-19.134-11.825-26.581-20.081c-7.446-8.252-13.005-18.206-16.677-29.863c-3.673-11.653-4.594-25.199-2.763-40.634
					l60.031,7.123c-1.084,9.133-0.71,16.909,1.13,23.319c1.836,6.415,4.683,11.711,8.541,15.886
					c3.857,4.175,8.432,7.329,13.728,9.455c5.294,2.129,10.778,3.527,16.459,4.202c6.508,0.772,12.318,0.616,17.433-0.473
					c5.114-1.089,9.509-2.915,13.184-5.482c3.675-2.563,6.583-5.775,8.725-9.629
					C645.823,1512.735,647.176,1508.431,647.741,1503.667z"/>
			</g>
		</g>
	</g>
	<path style="fill:#202F4E;" d="M2749.278,1703.064H250.723c-1.971,0-3.583-1.613-3.583-3.583l0,0c0-1.971,1.613-3.584,3.583-3.584
		h2498.555c1.971,0,3.583,1.613,3.583,3.584l0,0C2752.861,1701.452,2751.249,1703.064,2749.278,1703.064z"/>
</g>
</svg>
