<?xml version="1.0" encoding="utf-8"?>
<!-- Generator: Adobe Illustrator 27.5.0, SVG Export Plug-In . SVG Version: 6.00 Build 0)  -->
<svg version="1.1" id="Layer_1" xmlns="http://www.w3.org/2000/svg" xmlns:xlink="http://www.w3.org/1999/xlink" x="0px" y="0px"
	 viewBox="0 0 3000 2000" style="enable-background:new 0 0 3000 2000;" xml:space="preserve">
<g>
	<rect x="0" style="fill:transparent;" width="3000" height="2000"/>
	<path style="fill:#EBF2F9;" d="M2390.65,900.677c-129.575-45.214-153.201-743.435-584.407-463.687
		c-222.784,144.534-598.447-124.081-909.385-31.301C611.299,490.895,583.773,771.624,611.404,863.1
		c55.812,184.78-117.873,212.278-278.994,291.669c-252.736,124.533-66.888,562.189,171.874,564.282
		c238.762,2.092,1685.229-4.167,1685.229-4.167s346.852,0.877,491.09-190.558C2835.818,1318.321,2738.764,1022.147,2390.65,900.677z
		"/>
	<g>
		<g>
			<path style="fill:#FFB93E;" d="M2552.309,1664.425v30.502c0,2.43-0.741,4.684-2.014,6.563c-1.339,1.975-3.262,3.528-5.517,4.399
				c-0.689,0.273-1.41,0.475-2.151,0.604c-0.676,0.123-1.365,0.189-2.073,0.189h-485.84c-6.264,0-11.423-4.965-11.742-11.151
				c-0.006-0.201-0.013-0.402-0.013-0.604v-30.502c0-0.201,0.006-0.403,0.013-0.604c0.292-5.718,4.731-10.397,10.351-11.065
				c0.455-0.059,0.923-0.085,1.391-0.085h485.84c0.708,0,1.397,0.065,2.073,0.189c0.741,0.13,1.462,0.331,2.151,0.604
				c2.255,0.871,4.178,2.424,5.517,4.399C2551.567,1659.739,2552.309,1661.994,2552.309,1664.425z"/>
			<path style="fill:#FFA412;" d="M2313.736,1706.681h-260.283c-5.588,0-10.195-4.965-10.481-11.151
				c-0.006-0.201-0.013-0.402-0.013-0.604v-30.502c0-0.201,0.006-0.403,0.013-0.604c0.26-5.718,4.224-10.397,9.24-11.065
				c0.403-0.059,0.819-0.085,1.241-0.085h228.319c0.006,0.026,0.013,0.058,0.019,0.085
				C2285.45,1668.648,2293.949,1690.586,2313.736,1706.681z"/>
			<g>
				<rect x="2487.671" y="1652.671" style="fill:#FFA412;" width="5.522" height="54.011"/>
				<rect x="2468.98" y="1652.671" style="fill:#FFA412;" width="5.522" height="54.011"/>
				<rect x="2446.566" y="1652.671" style="fill:#FFA412;" width="5.522" height="54.011"/>
				<rect x="2412.209" y="1652.671" style="fill:#FFA412;" width="5.522" height="54.011"/>
				<rect x="2375.878" y="1652.671" style="fill:#FFA412;" width="5.522" height="54.011"/>
				<rect x="2320.181" y="1652.671" style="fill:#FFA412;" width="5.522" height="54.011"/>
				<rect x="2268.033" y="1652.671" style="fill:#FFA412;" width="5.522" height="54.011"/>
				<rect x="2221.467" y="1652.671" style="fill:#FFA412;" width="5.522" height="54.011"/>
				<rect x="2505.463" y="1652.671" style="fill:#FFA412;" width="5.522" height="54.011"/>
				<rect x="2517.217" y="1652.671" style="fill:#FFA412;" width="5.522" height="54.011"/>
				<rect x="2528.567" y="1652.671" style="fill:#FFA412;" width="5.522" height="54.011"/>
				<path style="fill:#FFA412;" d="M2542.628,1652.858v53.634c-0.675,0.123-1.365,0.189-2.073,0.189h-3.45v-54.011h3.45
					C2541.264,1652.669,2541.953,1652.734,2542.628,1652.858z"/>
				<path style="fill:#FFA412;" d="M2550.296,1657.861v43.628c-1.338,1.976-3.262,3.528-5.517,4.399v-52.425
					C2547.034,1654.333,2548.958,1655.886,2550.296,1657.861z"/>
			</g>
		</g>
		<g>
			<path style="fill:#FFB93E;" d="M2488.524,1610.498v30.501c0,2.431-0.741,4.685-2.014,6.563c-1.338,1.975-3.262,3.528-5.517,4.399
				c-0.689,0.273-1.411,0.475-2.151,0.604c-0.227,0.038-0.455,0.078-0.682,0.104c-0.182,0.026-0.364,0.039-0.546,0.052
				c-0.091,0.006-0.182,0.013-0.273,0.02c-0.189,0.006-0.377,0.013-0.572,0.013h-485.84c-6.264,0-11.424-4.965-11.742-11.151
				c-0.006-0.201-0.013-0.403-0.013-0.604v-30.501c0-0.201,0.007-0.402,0.013-0.604c0.318-6.186,5.478-11.15,11.742-11.15h485.84
				c0.208,0,0.416,0.006,0.623,0.02c0.494,0.026,0.975,0.084,1.449,0.169c0.74,0.13,1.462,0.331,2.151,0.604
				c0.351,0.136,0.695,0.286,1.02,0.454c0.208,0.104,0.409,0.208,0.604,0.325c0.02,0.006,0.046,0.02,0.065,0.039
				c0.202,0.116,0.396,0.24,0.591,0.37c0.039,0.02,0.072,0.046,0.098,0.064c0.182,0.117,0.357,0.247,0.526,0.384
				c0.417,0.312,0.805,0.65,1.169,1.02c0.117,0.111,0.228,0.228,0.332,0.344c0.02,0.02,0.039,0.039,0.059,0.065
				c0.071,0.072,0.136,0.143,0.201,0.221c0.013,0.013,0.026,0.033,0.039,0.045c0.117,0.137,0.234,0.279,0.344,0.429
				c0.163,0.208,0.319,0.416,0.468,0.637C2487.783,1605.813,2488.524,1608.068,2488.524,1610.498z"/>
			<path style="fill:#FFA412;" d="M2249.951,1652.755h-260.282c-5.589,0-10.195-4.965-10.481-11.151
				c-0.006-0.201-0.013-0.403-0.013-0.604v-30.501c0-0.201,0.007-0.402,0.013-0.604c0.286-6.186,4.893-11.15,10.481-11.15h228.319
				c0.091,0.409,0.188,0.825,0.299,1.247c3.788,15.758,12.326,36.981,31.56,52.679
				C2249.88,1652.696,2249.919,1652.728,2249.951,1652.755z"/>
			<g>
				<rect x="2423.885" y="1598.745" style="fill:#FFA412;" width="5.522" height="54.011"/>
				<rect x="2405.194" y="1598.745" style="fill:#FFA412;" width="5.522" height="54.011"/>
				<rect x="2382.779" y="1598.745" style="fill:#FFA412;" width="5.522" height="54.011"/>
				<rect x="2348.422" y="1598.745" style="fill:#FFA412;" width="5.522" height="54.011"/>
				<rect x="2312.092" y="1598.745" style="fill:#FFA412;" width="5.522" height="54.011"/>
				<rect x="2256.395" y="1598.745" style="fill:#FFA412;" width="5.522" height="54.011"/>
				<rect x="2204.247" y="1598.745" style="fill:#FFA412;" width="5.522" height="54.011"/>
				<rect x="2157.681" y="1598.745" style="fill:#FFA412;" width="5.522" height="54.011"/>
				<rect x="2441.677" y="1598.745" style="fill:#FFA412;" width="5.522" height="54.011"/>
				<rect x="2453.431" y="1598.745" style="fill:#FFA412;" width="5.522" height="54.011"/>
				<rect x="2464.781" y="1598.745" style="fill:#FFA412;" width="5.522" height="54.011"/>
				<path style="fill:#FFA412;" d="M2478.842,1598.932v53.634c-0.675,0.123-1.365,0.189-2.073,0.189h-3.45v-54.011h3.45
					C2477.478,1598.743,2478.167,1598.808,2478.842,1598.932z"/>
				<path style="fill:#FFA412;" d="M2486.51,1603.935v43.628c-1.338,1.975-3.262,3.528-5.517,4.399v-52.425
					C2483.248,1600.407,2485.172,1601.959,2486.51,1603.935z"/>
			</g>
		</g>
		<g>
			<path style="fill:#FFB93E;" d="M2524.244,1557.734v30.502c0,2.43-0.741,4.684-2.014,6.563c-1.338,1.975-3.262,3.528-5.517,4.399
				c-0.688,0.273-1.41,0.474-2.151,0.604c-0.676,0.123-1.365,0.188-2.073,0.188h-485.84c-1.884,0-3.671-0.448-5.25-1.247
				c-3.542-1.774-6.076-5.302-6.459-9.422c-0.013-0.156-0.026-0.318-0.033-0.481c-0.006-0.201-0.013-0.402-0.013-0.604v-30.502
				c0-0.201,0.006-0.403,0.013-0.604c0.293-5.725,4.731-10.397,10.352-11.066c0.455-0.058,0.916-0.084,1.39-0.084h485.84
				c0.708,0,1.397,0.065,2.073,0.189c0.741,0.13,1.463,0.331,2.151,0.604c2.255,0.871,4.178,2.424,5.517,4.399
				C2523.503,1553.049,2524.244,1555.304,2524.244,1557.734z"/>
			<path style="fill:#FFA412;" d="M2285.671,1599.99h-260.282c-1.683,0-3.275-0.448-4.685-1.247
				c-3.165-1.774-5.419-5.302-5.764-9.422c-0.013-0.156-0.026-0.318-0.033-0.481c-0.006-0.201-0.013-0.402-0.013-0.604v-30.502
				c0-0.201,0.006-0.403,0.013-0.604c0.26-5.718,4.224-10.397,9.24-11.066c0.403-0.058,0.819-0.084,1.241-0.084h228.319
				c0.007,0.026,0.013,0.059,0.02,0.084c3.561,15.485,11.729,36.714,30.449,52.679
				C2284.664,1599.166,2285.164,1599.582,2285.671,1599.99z"/>
			<g>
				<rect x="2459.604" y="1545.98" style="fill:#FFA412;" width="5.522" height="54.011"/>
				<rect x="2440.912" y="1545.98" style="fill:#FFA412;" width="5.522" height="54.011"/>
				<rect x="2418.498" y="1545.98" style="fill:#FFA412;" width="5.522" height="54.011"/>
				<rect x="2384.142" y="1545.98" style="fill:#FFA412;" width="5.522" height="54.011"/>
				<rect x="2347.811" y="1545.98" style="fill:#FFA412;" width="5.522" height="54.011"/>
				<rect x="2292.114" y="1545.98" style="fill:#FFA412;" width="5.522" height="54.011"/>
				<rect x="2239.965" y="1545.98" style="fill:#FFA412;" width="5.522" height="54.011"/>
				<rect x="2193.4" y="1545.98" style="fill:#FFA412;" width="5.522" height="54.011"/>
				<rect x="2477.396" y="1545.98" style="fill:#FFA412;" width="5.522" height="54.011"/>
				<rect x="2489.15" y="1545.98" style="fill:#FFA412;" width="5.522" height="54.011"/>
				<rect x="2500.5" y="1545.98" style="fill:#FFA412;" width="5.522" height="54.011"/>
				<path style="fill:#FFA412;" d="M2514.562,1546.166v53.634c-0.676,0.124-1.365,0.189-2.073,0.189h-3.45v-54.011h3.45
					C2513.197,1545.978,2513.886,1546.043,2514.562,1546.166z"/>
				<path style="fill:#FFA412;" d="M2522.229,1551.17v43.628c-1.338,1.976-3.262,3.529-5.517,4.4v-52.426
					C2518.968,1547.641,2520.891,1549.194,2522.229,1551.17z"/>
			</g>
		</g>
		<g>
			<path style="fill:#FFB93E;" d="M2488.524,1503.808v30.501c0,2.43-0.741,4.685-2.014,6.563c-1.338,1.975-3.262,3.528-5.517,4.399
				c-0.689,0.273-1.411,0.474-2.151,0.604c-0.227,0.039-0.455,0.078-0.682,0.104c-0.124,0.013-0.253,0.026-0.384,0.039
				c-0.124,0.013-0.253,0.02-0.384,0.026c-0.208,0.013-0.416,0.019-0.623,0.019h-485.84c-6.264,0-11.424-4.964-11.742-11.15
				c-0.006-0.201-0.013-0.402-0.013-0.604v-30.501c0-0.201,0.007-0.403,0.013-0.604c0.318-6.186,5.478-11.15,11.742-11.15h485.84
				c0.708,0,1.397,0.065,2.073,0.188c0.74,0.13,1.462,0.332,2.151,0.604c2.255,0.871,4.178,2.424,5.517,4.399
				C2487.783,1499.123,2488.524,1501.378,2488.524,1503.808z"/>
			<path style="fill:#FFA412;" d="M2249.951,1546.064h-260.282c-5.589,0-10.195-4.964-10.481-11.15
				c-0.006-0.201-0.013-0.402-0.013-0.604v-30.501c0-0.201,0.007-0.403,0.013-0.604c0.286-6.186,4.893-11.15,10.481-11.15h228.319
				c3.639,15.875,12.112,37.812,31.859,53.927C2249.88,1546.006,2249.919,1546.039,2249.951,1546.064z"/>
			<g>
				<rect x="2423.885" y="1492.054" style="fill:#FFA412;" width="5.522" height="54.011"/>
				<rect x="2405.194" y="1492.054" style="fill:#FFA412;" width="5.522" height="54.011"/>
				<rect x="2382.779" y="1492.054" style="fill:#FFA412;" width="5.522" height="54.011"/>
				<rect x="2348.422" y="1492.054" style="fill:#FFA412;" width="5.522" height="54.011"/>
				<rect x="2312.092" y="1492.054" style="fill:#FFA412;" width="5.522" height="54.011"/>
				<rect x="2256.395" y="1492.054" style="fill:#FFA412;" width="5.522" height="54.011"/>
				<rect x="2204.247" y="1492.054" style="fill:#FFA412;" width="5.522" height="54.011"/>
				<rect x="2157.68" y="1492.053" style="fill:#FFA412;" width="5.523" height="54.011"/>
				<rect x="2441.677" y="1492.054" style="fill:#FFA412;" width="5.522" height="54.011"/>
				<rect x="2453.431" y="1492.054" style="fill:#FFA412;" width="5.522" height="54.011"/>
				<rect x="2464.781" y="1492.054" style="fill:#FFA412;" width="5.522" height="54.011"/>
				<path style="fill:#FFA412;" d="M2478.842,1492.24v53.634c-0.675,0.124-1.365,0.189-2.073,0.189h-3.45v-54.011h3.45
					C2477.478,1492.052,2478.167,1492.117,2478.842,1492.24z"/>
				<path style="fill:#FFA412;" d="M2486.51,1497.244v43.628c-1.338,1.975-3.262,3.528-5.517,4.399v-52.425
					C2483.248,1493.716,2485.172,1495.269,2486.51,1497.244z"/>
			</g>
		</g>
		<g>
			<g>
				<g>
					<path style="fill:#82B378;" d="M636.662,1702.101l-65.932-5.671c0,0,3.812-40.648-7.788-94.864
						c-8.557-40.05-25.525-87.497-58.635-131.444c-56.464-74.941-224.185-116.865-224.185-116.865v-9.701l6.03-0.653
						c0,0-2.599-1.813-6.03-2.863v-22.934c4.955-0.07,12.051,0.226,19.06,1.867c-3.93-0.98-12.308-2.901-19.06-3.422v-12.059
						c242.957,6.496,322.193,153.251,347.025,266.825C643.049,1643.007,636.662,1702.101,636.662,1702.101z"/>
					<path style="fill:#A8D29F;" d="M925.216,1680.77l-288.554,21.331c-1.493-44.444-13.093-90.407-24.311-125.251
						c-11.218-34.845-22.071-58.581-22.071-58.581c-86.323-189.145-310.158-214.779-310.158-214.779l248.434-101.742
						c120.016,9.032,204.215,66.671,263.107,139.045C907.004,1482.537,925.216,1680.77,925.216,1680.77z"/>
				</g>
				<path style="opacity:0.5;fill:#82B378;" d="M925.216,1680.77l-288.554,21.331l-65.932-5.671c0,0,3.812-40.648-7.788-94.864
					c13.747-8.278,30.091-16.547,49.409-24.716c5.072-2.147,10.004-4.326,14.797-6.535
					c183.723-84.798,166.609-216.888,164.515-229.522C907.004,1482.537,925.216,1680.77,925.216,1680.77z"/>
				<g>
					<path style="fill:#82B378;" d="M902.525,1702.991l-257.154-4.974l0.907-4.952c0.137-0.75,13.343-76.146-17.489-161.871
						c-18.063-50.222-47.51-94.158-87.523-130.585c-50.128-45.638-117.12-79.606-199.111-100.961l-12.632-3.29l200.712-79.879
						l0.771-0.018c2.172-0.048,53.865-0.829,120.315,30.598c38.948,18.421,74.807,44.16,106.58,76.503
						c39.641,40.351,72.986,91.145,99.109,150.968c2.064,4.597,50.91,114.258,48.329,180.104l-0.004,0.081L902.525,1702.991z
						 M655.451,1689.651l239.009,4.624l2.33-40.015c1.022-26.303-6.862-65.077-22.801-112.132
						c-12.11-35.749-24.677-63.854-24.802-64.133c-25.672-58.788-58.356-108.637-97.162-148.203
						c-31.004-31.612-65.973-56.776-103.938-74.795c-41.194-19.552-77.113-26.364-97.906-28.73
						c-10.918-1.242-21.967,0.227-32.176,4.29l-139.103,55.359c-7.255,2.888-6.888,13.26,0.547,15.654
						c67.645,21.781,123.963,52.944,167.773,92.888c41.056,37.434,71.254,82.591,89.753,134.214
						c16.444,45.89,20.395,88.493,20.813,116.151C658.114,1666.284,656.469,1682.089,655.451,1689.651z"/>
				</g>
				<path style="fill:#82B378;" d="M676.572,1339.815c-42.364,0-65.827,25.337-65.827,67.7c0,42.364,43.867,67.962,86.23,67.962
					c42.364,0,67.182-25.598,67.182-67.962C764.156,1365.152,718.935,1339.815,676.572,1339.815z"/>
			</g>
			<g>
				<g>
					<path style="fill:#FFB93E;" d="M314.291,1664.216v30.501c0,2.43,0.741,4.685,2.014,6.563c1.339,1.976,3.262,3.529,5.517,4.4
						c0.689,0.273,1.411,0.474,2.151,0.604c0.676,0.124,1.365,0.189,2.073,0.189h485.84c1.949,0,3.795-0.481,5.419-1.332
						c3.437-1.8,5.894-5.256,6.284-9.292c0.019-0.176,0.033-0.351,0.039-0.527c0.007-0.201,0.013-0.403,0.013-0.604v-30.501
						c0-0.201-0.006-0.403-0.013-0.604c-0.318-6.186-5.478-11.15-11.742-11.15h-485.84c-0.708,0-1.397,0.064-2.073,0.188
						c-0.74,0.13-1.462,0.332-2.151,0.604c-2.254,0.871-4.177,2.424-5.517,4.399
						C315.032,1659.531,314.291,1661.785,314.291,1664.216z"/>
					<path style="fill:#FFA412;" d="M552.864,1706.472h260.283c1.741,0,3.385-0.481,4.834-1.332c3.073-1.8,5.263-5.256,5.608-9.292
						c0.019-0.176,0.033-0.351,0.039-0.527c0.007-0.201,0.013-0.403,0.013-0.604v-30.501c0-0.201-0.006-0.403-0.013-0.604
						c-0.286-6.186-4.893-11.15-10.481-11.15H584.828c-3.548,15.465-11.683,36.694-30.365,52.679
						C553.936,1705.588,553.404,1706.03,552.864,1706.472z"/>
					<g>
						
							<rect x="373.409" y="1652.464" transform="matrix(-1 -1.224647e-16 1.224647e-16 -1 752.3393 3358.938)" style="fill:#FFA412;" width="5.521" height="54.011"/>
						
							<rect x="392.1" y="1652.464" transform="matrix(-1 -1.224647e-16 1.224647e-16 -1 789.7217 3358.938)" style="fill:#FFA412;" width="5.521" height="54.011"/>
						
							<rect x="414.514" y="1652.464" transform="matrix(-1 -1.224647e-16 1.224647e-16 -1 834.5502 3358.938)" style="fill:#FFA412;" width="5.522" height="54.011"/>
						
							<rect x="448.871" y="1652.464" transform="matrix(-1 -1.224647e-16 1.224647e-16 -1 903.2641 3358.938)" style="fill:#FFA412;" width="5.521" height="54.011"/>
						
							<rect x="485.201" y="1652.464" transform="matrix(-1 -1.224647e-16 1.224647e-16 -1 975.9249 3358.938)" style="fill:#FFA412;" width="5.522" height="54.011"/>
						
							<rect x="540.898" y="1652.464" transform="matrix(-1 -1.224647e-16 1.224647e-16 -1 1087.3186 3358.938)" style="fill:#FFA412;" width="5.522" height="54.011"/>
						
							<rect x="593.047" y="1652.464" transform="matrix(-1 -1.224647e-16 1.224647e-16 -1 1191.616 3358.938)" style="fill:#FFA412;" width="5.522" height="54.011"/>
						
							<rect x="639.613" y="1652.464" transform="matrix(-1 -1.224647e-16 1.224647e-16 -1 1284.7474 3358.938)" style="fill:#FFA412;" width="5.521" height="54.011"/>
						
							<rect x="355.617" y="1652.464" transform="matrix(-1 -1.224647e-16 1.224647e-16 -1 716.7561 3358.938)" style="fill:#FFA412;" width="5.521" height="54.011"/>
						
							<rect x="343.863" y="1652.464" transform="matrix(-1 -1.224647e-16 1.224647e-16 -1 693.2481 3358.938)" style="fill:#FFA412;" width="5.521" height="54.011"/>
						
							<rect x="332.513" y="1652.464" transform="matrix(-1 -1.224647e-16 1.224647e-16 -1 670.5477 3358.938)" style="fill:#FFA412;" width="5.521" height="54.011"/>
						<path style="fill:#FFA412;" d="M323.972,1652.65v53.634c0.676,0.124,1.365,0.189,2.073,0.189h3.45v-54.011h-3.45
							C325.338,1652.462,324.648,1652.527,323.972,1652.65z"/>
						<path style="fill:#FFA412;" d="M316.305,1657.653v43.628c1.339,1.975,3.263,3.528,5.517,4.399v-52.426
							C319.567,1654.125,317.644,1655.678,316.305,1657.653z"/>
					</g>
				</g>
				<g>
					<path style="fill:#FFB93E;" d="M274.589,1610.204v30.502c0,2.43,0.741,4.684,2.014,6.563c1.339,1.975,3.262,3.528,5.517,4.399
						c0.689,0.273,1.41,0.475,2.151,0.604c0.676,0.123,1.364,0.189,2.073,0.189h485.84c6.264,0,11.423-4.965,11.742-11.151
						c0.006-0.201,0.013-0.402,0.013-0.604v-30.502c0-0.201-0.006-0.402-0.013-0.604c-0.292-5.718-4.731-10.397-10.351-11.066
						c-0.455-0.059-0.923-0.085-1.391-0.085h-485.84c-0.708,0-1.397,0.065-2.073,0.189c-0.741,0.13-1.462,0.331-2.151,0.604
						c-2.255,0.871-4.178,2.424-5.517,4.399C275.33,1605.519,274.589,1607.774,274.589,1610.204z"/>
					<path style="fill:#FFA412;" d="M513.161,1652.461h260.283c5.588,0,10.195-4.965,10.481-11.151
						c0.006-0.201,0.013-0.402,0.013-0.604v-30.502c0-0.201-0.006-0.402-0.013-0.604c-0.26-5.718-4.224-10.397-9.24-11.066
						c-0.403-0.059-0.819-0.085-1.241-0.085H545.125c-0.006,0.026-0.013,0.058-0.019,0.085
						C541.447,1614.428,532.948,1636.365,513.161,1652.461z"/>
					<g>
						
							<rect x="333.704" y="1598.451" transform="matrix(-1 -1.224647e-16 1.224647e-16 -1 672.9303 3250.9124)" style="fill:#FFA412;" width="5.521" height="54.011"/>
						
							<rect x="352.395" y="1598.451" transform="matrix(-1 -1.224647e-16 1.224647e-16 -1 710.3125 3250.9124)" style="fill:#FFA412;" width="5.522" height="54.011"/>
						
							<rect x="374.81" y="1598.451" transform="matrix(-1 -1.224647e-16 1.224647e-16 -1 755.1411 3250.9124)" style="fill:#FFA412;" width="5.521" height="54.011"/>
						
							<rect x="409.167" y="1598.451" transform="matrix(-1 -1.224647e-16 1.224647e-16 -1 823.8549 3250.9124)" style="fill:#FFA412;" width="5.521" height="54.011"/>
						
							<rect x="445.497" y="1598.451" transform="matrix(-1 -1.224647e-16 1.224647e-16 -1 896.5163 3250.9124)" style="fill:#FFA412;" width="5.521" height="54.011"/>
						
							<rect x="501.194" y="1598.451" transform="matrix(-1 -1.224647e-16 1.224647e-16 -1 1007.9099 3250.9124)" style="fill:#FFA412;" width="5.522" height="54.011"/>
						
							<rect x="553.343" y="1598.451" transform="matrix(-1 -1.224647e-16 1.224647e-16 -1 1112.2073 3250.9124)" style="fill:#FFA412;" width="5.521" height="54.011"/>
						
							<rect x="599.909" y="1598.451" transform="matrix(-1 -1.224647e-16 1.224647e-16 -1 1205.3391 3250.9124)" style="fill:#FFA412;" width="5.521" height="54.011"/>
						
							<rect x="315.913" y="1598.451" transform="matrix(-1 -1.224647e-16 1.224647e-16 -1 637.347 3250.9124)" style="fill:#FFA412;" width="5.522" height="54.011"/>
						
							<rect x="304.159" y="1598.451" transform="matrix(-1 -1.224647e-16 1.224647e-16 -1 613.839 3250.9124)" style="fill:#FFA412;" width="5.522" height="54.011"/>
						
							<rect x="292.809" y="1598.451" transform="matrix(-1 -1.224647e-16 1.224647e-16 -1 591.1386 3250.9124)" style="fill:#FFA412;" width="5.522" height="54.011"/>
						<path style="fill:#FFA412;" d="M284.269,1598.637v53.634c0.675,0.123,1.364,0.189,2.073,0.189h3.45v-54.011h-3.45
							C285.633,1598.449,284.944,1598.514,284.269,1598.637z"/>
						<path style="fill:#FFA412;" d="M276.601,1603.641v43.627c1.339,1.976,3.262,3.528,5.517,4.399v-52.425
							C279.863,1600.113,277.939,1601.666,276.601,1603.641z"/>
					</g>
				</g>
				<g>
					<path style="fill:#FFB93E;" d="M338.373,1556.277v30.501c0,2.431,0.741,4.685,2.014,6.563c1.339,1.975,3.262,3.528,5.517,4.399
						c0.689,0.273,1.411,0.475,2.151,0.604c0.227,0.039,0.455,0.078,0.682,0.104c0.182,0.026,0.364,0.039,0.546,0.052
						c0.091,0.006,0.182,0.013,0.273,0.02c0.189,0.006,0.377,0.013,0.571,0.013h485.84c6.264,0,11.424-4.965,11.742-11.151
						c0.006-0.201,0.013-0.402,0.013-0.604v-30.501c0-0.201-0.007-0.402-0.013-0.604c-0.318-6.186-5.478-11.15-11.742-11.15h-485.84
						c-0.207,0-0.416,0.006-0.623,0.02c-0.494,0.026-0.975,0.084-1.449,0.169c-0.74,0.13-1.462,0.331-2.151,0.604
						c-0.351,0.136-0.695,0.286-1.02,0.454c-0.207,0.104-0.409,0.208-0.604,0.325c-0.02,0.006-0.046,0.02-0.065,0.039
						c-0.202,0.116-0.396,0.24-0.591,0.37c-0.039,0.02-0.072,0.046-0.098,0.065c-0.182,0.117-0.357,0.247-0.526,0.383
						c-0.416,0.312-0.806,0.65-1.169,1.02c-0.117,0.111-0.228,0.228-0.332,0.344c-0.02,0.02-0.039,0.039-0.059,0.065
						c-0.071,0.072-0.136,0.143-0.201,0.221c-0.013,0.013-0.026,0.033-0.039,0.046c-0.117,0.137-0.234,0.279-0.344,0.429
						c-0.163,0.208-0.319,0.416-0.468,0.637C339.114,1551.592,338.373,1553.847,338.373,1556.277z"/>
					<path style="fill:#FFA412;" d="M576.945,1598.534h260.283c5.588,0,10.195-4.965,10.481-11.151
						c0.006-0.201,0.013-0.402,0.013-0.604v-30.501c0-0.201-0.007-0.402-0.013-0.604c-0.286-6.186-4.893-11.15-10.481-11.15H608.909
						c-0.091,0.409-0.188,0.825-0.299,1.247c-3.788,15.757-12.326,36.981-31.56,52.679
						C577.017,1598.475,576.978,1598.508,576.945,1598.534z"/>
					<g>
						
							<rect x="397.49" y="1544.525" transform="matrix(-1 -1.224647e-16 1.224647e-16 -1 800.5025 3143.0605)" style="fill:#FFA412;" width="5.522" height="54.011"/>
						
							<rect x="416.182" y="1544.525" transform="matrix(-1 -1.224647e-16 1.224647e-16 -1 837.8849 3143.0605)" style="fill:#FFA412;" width="5.521" height="54.011"/>
						
							<rect x="438.596" y="1544.525" transform="matrix(-1 -1.224647e-16 1.224647e-16 -1 882.7137 3143.0605)" style="fill:#FFA412;" width="5.522" height="54.011"/>
						
							<rect x="472.953" y="1544.525" transform="matrix(-1 -1.224647e-16 1.224647e-16 -1 951.4275 3143.0605)" style="fill:#FFA412;" width="5.522" height="54.011"/>
						
							<rect x="509.283" y="1544.525" transform="matrix(-1 -1.224647e-16 1.224647e-16 -1 1024.0884 3143.0605)" style="fill:#FFA412;" width="5.522" height="54.011"/>
						
							<rect x="564.98" y="1544.525" transform="matrix(-1 -1.224647e-16 1.224647e-16 -1 1135.4821 3143.0605)" style="fill:#FFA412;" width="5.522" height="54.011"/>
						
							<rect x="617.129" y="1544.525" transform="matrix(-1 -1.224647e-16 1.224647e-16 -1 1239.7795 3143.0605)" style="fill:#FFA412;" width="5.521" height="54.011"/>
						
							<rect x="663.695" y="1544.525" transform="matrix(-1 -1.224647e-16 1.224647e-16 -1 1332.9114 3143.0605)" style="fill:#FFA412;" width="5.522" height="54.011"/>
						
							<rect x="379.699" y="1544.525" transform="matrix(-1 -1.224647e-16 1.224647e-16 -1 764.9194 3143.0605)" style="fill:#FFA412;" width="5.522" height="54.011"/>
						
							<rect x="367.945" y="1544.525" transform="matrix(-1 -1.224647e-16 1.224647e-16 -1 741.4112 3143.0605)" style="fill:#FFA412;" width="5.522" height="54.011"/>
						
							<rect x="356.595" y="1544.525" transform="matrix(-1 -1.224647e-16 1.224647e-16 -1 718.711 3143.0605)" style="fill:#FFA412;" width="5.522" height="54.011"/>
						<path style="fill:#FFA412;" d="M348.055,1544.711v53.634c0.675,0.123,1.365,0.189,2.073,0.189h3.45v-54.011h-3.45
							C349.419,1544.523,348.73,1544.588,348.055,1544.711z"/>
						<path style="fill:#FFA412;" d="M340.387,1549.715v43.627c1.339,1.975,3.262,3.528,5.517,4.399v-52.425
							C343.649,1546.187,341.725,1547.739,340.387,1549.715z"/>
					</g>
				</g>
				<g>
					<path style="fill:#FFB93E;" d="M302.653,1503.514v30.502c0,2.43,0.741,4.684,2.014,6.563c1.339,1.975,3.262,3.528,5.517,4.399
						c0.689,0.273,1.41,0.474,2.151,0.604c0.676,0.123,1.364,0.188,2.073,0.188h485.84c1.884,0,3.671-0.448,5.25-1.247
						c3.542-1.774,6.076-5.302,6.459-9.422c0.013-0.156,0.026-0.318,0.033-0.481c0.006-0.201,0.013-0.402,0.013-0.604v-30.502
						c0-0.201-0.006-0.403-0.013-0.604c-0.293-5.725-4.731-10.397-10.352-11.066c-0.455-0.058-0.916-0.084-1.39-0.084h-485.84
						c-0.708,0-1.397,0.065-2.073,0.189c-0.741,0.13-1.463,0.331-2.151,0.604c-2.255,0.871-4.178,2.424-5.517,4.399
						C303.395,1498.829,302.653,1501.084,302.653,1503.514z"/>
					<path style="fill:#FFA412;" d="M541.226,1545.77h260.283c1.683,0,3.275-0.448,4.685-1.247c3.165-1.774,5.419-5.302,5.764-9.422
						c0.013-0.156,0.026-0.318,0.033-0.481c0.006-0.201,0.013-0.402,0.013-0.604v-30.502c0-0.201-0.006-0.403-0.013-0.604
						c-0.26-5.718-4.224-10.397-9.241-11.066c-0.403-0.058-0.818-0.084-1.241-0.084H573.19c-0.007,0.026-0.013,0.059-0.02,0.084
						c-3.561,15.485-11.729,36.714-30.449,52.679C542.233,1544.946,541.733,1545.361,541.226,1545.77z"/>
					<g>
						
							<rect x="361.771" y="1491.759" transform="matrix(-1 -1.224647e-16 1.224647e-16 -1 729.0641 3037.5293)" style="fill:#FFA412;" width="5.521" height="54.011"/>
						
							<rect x="380.463" y="1491.759" transform="matrix(-1 -1.224647e-16 1.224647e-16 -1 766.4479 3037.5293)" style="fill:#FFA412;" width="5.521" height="54.011"/>
						
							<rect x="402.877" y="1491.759" transform="matrix(-1 -1.224647e-16 1.224647e-16 -1 811.2764 3037.5293)" style="fill:#FFA412;" width="5.522" height="54.011"/>
						
							<rect x="437.234" y="1491.759" transform="matrix(-1 -1.224647e-16 1.224647e-16 -1 879.9891 3037.5293)" style="fill:#FFA412;" width="5.522" height="54.011"/>
						
							<rect x="473.564" y="1491.759" transform="matrix(-1 -1.224647e-16 1.224647e-16 -1 952.65 3037.5293)" style="fill:#FFA412;" width="5.522" height="54.011"/>
						
							<rect x="529.261" y="1491.759" transform="matrix(-1 -1.224647e-16 1.224647e-16 -1 1064.0439 3037.5293)" style="fill:#FFA412;" width="5.522" height="54.011"/>
						
							<rect x="581.41" y="1491.759" transform="matrix(-1 -1.224647e-16 1.224647e-16 -1 1168.3414 3037.5293)" style="fill:#FFA412;" width="5.522" height="54.011"/>
						
							<rect x="627.976" y="1491.759" transform="matrix(-1 -1.224647e-16 1.224647e-16 -1 1261.4729 3037.5293)" style="fill:#FFA412;" width="5.521" height="54.011"/>
						
							<rect x="343.98" y="1491.759" transform="matrix(-1 -1.224647e-16 1.224647e-16 -1 693.4808 3037.5293)" style="fill:#FFA412;" width="5.522" height="54.011"/>
						
							<rect x="332.226" y="1491.759" transform="matrix(-1 -1.224647e-16 1.224647e-16 -1 669.9728 3037.5293)" style="fill:#FFA412;" width="5.522" height="54.011"/>
						
							<rect x="320.875" y="1491.759" transform="matrix(-1 -1.224647e-16 1.224647e-16 -1 647.2724 3037.5293)" style="fill:#FFA412;" width="5.522" height="54.011"/>
						<path style="fill:#FFA412;" d="M312.335,1491.946v53.634c0.676,0.124,1.364,0.189,2.073,0.189h3.45v-54.011h-3.45
							C313.7,1491.758,313.011,1491.823,312.335,1491.946z"/>
						<path style="fill:#FFA412;" d="M304.668,1496.949v43.627c1.339,1.976,3.262,3.529,5.517,4.4v-52.426
							C307.93,1493.421,306.006,1494.974,304.668,1496.949z"/>
					</g>
				</g>
				<g>
					<path style="fill:#FFB93E;" d="M338.373,1449.588v30.501c0,2.43,0.741,4.685,2.014,6.563c1.339,1.975,3.262,3.528,5.517,4.399
						c0.689,0.273,1.411,0.474,2.151,0.604c0.227,0.039,0.455,0.078,0.682,0.104c0.124,0.013,0.253,0.026,0.384,0.039
						c0.123,0.013,0.253,0.02,0.384,0.026c0.207,0.013,0.416,0.019,0.623,0.019h485.84c6.264,0,11.424-4.964,11.742-11.15
						c0.006-0.201,0.013-0.402,0.013-0.604v-30.501c0-0.201-0.007-0.403-0.013-0.604c-0.318-6.186-5.478-11.151-11.742-11.151
						h-485.84c-0.708,0-1.397,0.065-2.073,0.188c-0.74,0.13-1.462,0.332-2.151,0.604c-2.255,0.871-4.178,2.424-5.517,4.399
						C339.114,1444.902,338.373,1447.157,338.373,1449.588z"/>
					<path style="fill:#FFA412;" d="M576.945,1491.844h260.283c5.588,0,10.195-4.964,10.481-11.15
						c0.006-0.201,0.013-0.402,0.013-0.604v-30.501c0-0.201-0.007-0.403-0.013-0.604c-0.286-6.186-4.893-11.151-10.481-11.151
						H608.909c-3.639,15.875-12.112,37.812-31.859,53.927C577.017,1491.785,576.978,1491.818,576.945,1491.844z"/>
					<g>
						
							<rect x="397.49" y="1437.833" transform="matrix(-1 -1.224647e-16 1.224647e-16 -1 800.5025 2929.6775)" style="fill:#FFA412;" width="5.522" height="54.011"/>
						
							<rect x="416.182" y="1437.833" transform="matrix(-1 -1.224647e-16 1.224647e-16 -1 837.8849 2929.6775)" style="fill:#FFA412;" width="5.521" height="54.011"/>
						
							<rect x="438.596" y="1437.833" transform="matrix(-1 -1.224647e-16 1.224647e-16 -1 882.7137 2929.6775)" style="fill:#FFA412;" width="5.522" height="54.011"/>
						
							<rect x="472.953" y="1437.833" transform="matrix(-1 -1.224647e-16 1.224647e-16 -1 951.4275 2929.6775)" style="fill:#FFA412;" width="5.522" height="54.011"/>
						
							<rect x="509.283" y="1437.833" transform="matrix(-1 -1.224647e-16 1.224647e-16 -1 1024.0884 2929.6775)" style="fill:#FFA412;" width="5.522" height="54.011"/>
						
							<rect x="564.98" y="1437.833" transform="matrix(-1 -1.224647e-16 1.224647e-16 -1 1135.4821 2929.6775)" style="fill:#FFA412;" width="5.522" height="54.011"/>
						
							<rect x="617.129" y="1437.833" transform="matrix(-1 -1.224647e-16 1.224647e-16 -1 1239.7795 2929.6775)" style="fill:#FFA412;" width="5.521" height="54.011"/>
						<rect x="663.693" y="1437.833" style="fill:#FFA412;" width="5.523" height="54.011"/>
						
							<rect x="379.699" y="1437.833" transform="matrix(-1 -1.224647e-16 1.224647e-16 -1 764.9194 2929.6775)" style="fill:#FFA412;" width="5.522" height="54.011"/>
						
							<rect x="367.945" y="1437.833" transform="matrix(-1 -1.224647e-16 1.224647e-16 -1 741.4112 2929.6775)" style="fill:#FFA412;" width="5.522" height="54.011"/>
						
							<rect x="356.595" y="1437.833" transform="matrix(-1 -1.224647e-16 1.224647e-16 -1 718.711 2929.6775)" style="fill:#FFA412;" width="5.522" height="54.011"/>
						<path style="fill:#FFA412;" d="M348.055,1438.02v53.634c0.675,0.123,1.365,0.189,2.073,0.189h3.45v-54.011h-3.45
							C349.419,1437.832,348.73,1437.897,348.055,1438.02z"/>
						<path style="fill:#FFA412;" d="M340.387,1443.023v43.627c1.339,1.975,3.262,3.528,5.517,4.399v-52.425
							C343.649,1439.495,341.725,1441.048,340.387,1443.023z"/>
					</g>
				</g>
			</g>
			<g>
				<rect x="755.233" y="777.153" style="fill:#5F9AA8;" width="1332.838" height="762.801"/>
				<g>
					<rect x="776.076" y="777.153" style="fill:#ACC8EA;" width="216.969" height="47.902"/>
					<rect x="799.122" y="825.055" style="fill:#80BDCC;" width="170.878" height="47.902"/>
					<rect x="1850.258" y="777.153" style="fill:#ACC8EA;" width="216.969" height="47.902"/>
					<rect x="1873.304" y="825.055" style="fill:#80BDCC;" width="170.878" height="47.902"/>
					<rect x="1492.188" y="777.153" style="fill:#ACC8EA;" width="216.969" height="47.902"/>
					<rect x="1515.234" y="825.055" style="fill:#80BDCC;" width="170.878" height="47.902"/>
					<rect x="1134.146" y="777.153" style="fill:#ACC8EA;" width="216.969" height="47.902"/>
					<rect x="1157.192" y="825.055" style="fill:#80BDCC;" width="170.878" height="47.902"/>
				</g>
				<g>
					<rect x="776.076" y="1492.052" style="fill:#ACC8EA;" width="216.969" height="47.902"/>
					<rect x="799.122" y="1444.15" style="fill:#80BDCC;" width="170.878" height="47.902"/>
					<rect x="1850.258" y="1492.052" style="fill:#ACC8EA;" width="216.969" height="47.902"/>
					<rect x="1873.304" y="1444.15" style="fill:#80BDCC;" width="170.878" height="47.902"/>
					<rect x="1492.188" y="1492.052" style="fill:#ACC8EA;" width="216.97" height="47.902"/>
					<rect x="1515.234" y="1444.15" style="fill:#80BDCC;" width="170.878" height="47.902"/>
					<rect x="1134.146" y="1492.052" style="fill:#ACC8EA;" width="216.969" height="47.902"/>
					<rect x="1157.192" y="1444.15" style="fill:#80BDCC;" width="170.878" height="47.902"/>
				</g>
				<polygon style="fill:#D2E4FF;" points="965.503,1444.15 803.619,1444.15 828.913,872.957 940.208,872.957 				"/>
				<polygon style="fill:#D2E4FF;" points="1323.573,1444.15 1161.689,1444.15 1186.983,872.957 1298.278,872.957 				"/>
				<polygon style="fill:#D2E4FF;" points="1686.111,1444.15 1524.227,1444.15 1549.522,872.957 1660.817,872.957 				"/>
				<polygon style="fill:#D2E4FF;" points="2039.684,1444.15 1877.8,1444.15 1903.095,872.957 2014.39,872.957 				"/>
				<rect x="730.272" y="743.979" style="fill:#80BDCC;" width="1382.759" height="33.174"/>
				<rect x="706.938" y="688.472" style="fill:#ACC8EA;" width="1429.427" height="55.507"/>
				<rect x="700.198" y="1539.954" style="fill:#D2E4FF;" width="1429.427" height="55.507"/>
				<rect x="651.332" y="1595.461" style="fill:#ACC8EA;" width="1527.16" height="55.507"/>
				<rect x="585.434" y="1650.968" style="fill:#80BDCC;" width="1658.956" height="55.507"/>
				<polygon style="fill:#D2E4FF;" points="779.79,688.026 1421.651,450.259 2063.513,688.026 				"/>
				<polygon style="fill:#80BDCC;" points="991.647,648.787 1421.651,489.498 1851.656,648.787 				"/>
				<g>
					<path style="fill:#5F9AA8;" d="M1336.899,609.042c0,4.13-0.929,7.541-2.788,10.231c-1.859,2.691-4.415,4.819-7.668,6.382
						c-3.253,1.565-7.126,2.66-11.618,3.285c-4.493,0.625-9.373,0.939-14.639,0.939c-4.182,0-7.94-0.126-11.27-0.375
						c-3.331-0.251-6.932-0.563-10.805-0.939v-67.11c2.943-0.375,6.157-0.688,9.643-0.939c3.486-0.249,7.552-0.375,12.199-0.375
						c4.415,0,8.539,0.298,12.373,0.892c3.835,0.595,7.183,1.596,10.05,3.003c2.865,1.408,5.13,3.285,6.796,5.631
						c1.665,2.347,2.498,5.303,2.498,8.87c0,2.942-0.813,5.617-2.44,8.025c-1.627,2.41-3.68,4.271-6.158,5.585
						c1.781,0.563,3.504,1.299,5.17,2.206c1.665,0.908,3.137,2.034,4.415,3.379c1.278,1.346,2.304,2.956,3.079,4.834
						C1336.511,604.444,1336.899,606.602,1336.899,609.042z M1298.211,587.079h3.252c3.33,0,5.926-0.547,7.784-1.642
						c1.859-1.094,2.789-2.987,2.789-5.679c0-1.314-0.331-2.408-0.988-3.285c-0.659-0.875-1.492-1.563-2.497-2.065
						c-1.008-0.5-2.132-0.845-3.369-1.033c-1.24-0.188-2.44-0.281-3.602-0.281c-0.465,0-1.028,0-1.685,0
						c-0.66,0-1.22,0.032-1.685,0.094V587.079z M1298.211,600.407v15.768c0.541,0.063,1.219,0.11,2.033,0.141
						c0.813,0.032,1.877,0.047,3.195,0.047c1.471,0,2.963-0.125,4.474-0.376c1.51-0.249,2.884-0.671,4.124-1.267
						c1.238-0.594,2.226-1.408,2.963-2.441c0.735-1.032,1.103-2.33,1.103-3.895c0-3.003-1.219-5.083-3.659-6.242
						c-2.441-1.157-5.597-1.737-9.469-1.737H1298.211z"/>
					<path style="fill:#5F9AA8;" d="M1361.179,628.565c-1.783,0.249-3.409,0.437-4.879,0.563c-1.472,0.125-2.905,0.188-4.299,0.188
						s-3.003-0.079-4.822-0.234c-1.821-0.157-3.854-0.39-6.099-0.704l0.406-6.745l25.618-60.27c2.013-0.188,3.892-0.343,5.635-0.469
						c1.742-0.125,3.503-0.188,5.286-0.188c1.471,0,3.079,0.063,4.821,0.188c1.743,0.126,3.737,0.281,5.984,0.469l26.082,60.364
						l-0.406,6.745c-4.415,0.563-8.289,0.845-11.619,0.845c-1.55,0-3.099-0.063-4.647-0.188c-1.55-0.126-3.214-0.314-4.995-0.563
						l-4.415-13.047c-2.169,0.502-4.24,0.877-6.216,1.127c-1.975,0.251-3.932,0.375-5.867,0.375c-1.783,0-3.602-0.109-5.461-0.329
						c-1.859-0.219-3.796-0.547-5.809-0.985L1361.179,628.565z M1377.444,579.008l-7.784,24.122
						c1.317,0.314,2.557,0.563,3.719,0.751c1.162,0.188,2.361,0.282,3.601,0.282c1.316,0,2.614-0.078,3.892-0.235
						c1.278-0.155,2.613-0.39,4.008-0.704L1377.444,579.008z"/>
					<path style="fill:#5F9AA8;" d="M1422.057,561.456c1.703-0.249,3.253-0.437,4.647-0.563c1.394-0.125,2.748-0.188,4.067-0.188
						c1.394,0,2.847,0.079,4.357,0.235c1.51,0.157,2.806,0.328,3.892,0.516l26.953,36.793v-36.793
						c2.013-0.249,3.834-0.437,5.461-0.563c1.627-0.125,3.097-0.188,4.415-0.188c1.316,0,2.711,0.063,4.183,0.188
						c1.47,0.126,3.02,0.314,4.647,0.563l-0.116,67.015c-0.776,0.188-1.9,0.375-3.369,0.563c-1.472,0.188-3.061,0.281-4.764,0.281
						c-1.937,0-3.679-0.11-5.228-0.328c-1.55-0.22-2.672-0.39-3.369-0.516l-27.07-36.605v36.605
						c-3.409,0.563-6.506,0.845-9.294,0.845c-2.788,0-5.925-0.281-9.41-0.845V561.456z"/>
					<path style="fill:#5F9AA8;" d="M1498.62,561.456c2.091-0.249,3.989-0.437,5.693-0.563c1.703-0.125,3.213-0.188,4.531-0.188
						c1.394,0,2.963,0.063,4.706,0.188c1.742,0.126,3.62,0.314,5.634,0.563v67.015c-4.106,0.563-7.513,0.845-10.224,0.845
						c-2.866,0-6.314-0.281-10.34-0.845V561.456z M1543.465,593.837l22.132,27.889l-0.406,6.745
						c-1.317,0.251-3.079,0.453-5.286,0.61c-2.207,0.155-4.202,0.234-5.983,0.234c-2.247,0-4.415-0.079-6.506-0.234
						c-2.091-0.157-3.874-0.359-5.345-0.61l-21.261-33.789l0.406-6.745l19.229-26.481c2.324-0.312,4.337-0.516,6.041-0.61
						c1.703-0.094,3.445-0.141,5.228-0.141c0.851,0,1.819,0.016,2.905,0.047c1.084,0.032,2.149,0.094,3.195,0.188
						c1.046,0.094,4.955-6.323,5.924-6.229c0.104,2.216-0.27,4.83-0.406,6.745L1543.465,593.837z"/>
				</g>
				<g>
					<path style="fill:#D2E4FF;" d="M1337.305,602.297c0,4.13-0.929,7.541-2.788,10.231c-1.859,2.691-4.415,4.819-7.668,6.382
						c-3.253,1.565-7.126,2.66-11.618,3.285c-4.493,0.625-9.373,0.939-14.639,0.939c-4.182,0-7.94-0.126-11.27-0.375
						c-3.331-0.251-6.932-0.564-10.804-0.939v-67.11c2.943-0.375,6.157-0.688,9.643-0.938c3.486-0.25,7.552-0.375,12.199-0.375
						c4.415,0,8.539,0.298,12.373,0.892c3.835,0.595,7.183,1.595,10.05,3.003c2.865,1.408,5.13,3.285,6.796,5.632
						c1.665,2.347,2.498,5.303,2.498,8.87c0,2.942-0.813,5.617-2.44,8.025c-1.627,2.41-3.68,4.271-6.158,5.585
						c1.781,0.563,3.504,1.299,5.17,2.206c1.665,0.908,3.137,2.034,4.415,3.379c1.278,1.346,2.304,2.956,3.079,4.834
						C1336.917,597.698,1337.305,599.857,1337.305,602.297z M1298.617,580.334h3.252c3.33,0,5.926-0.547,7.784-1.642
						c1.859-1.094,2.789-2.987,2.789-5.679c0-1.314-0.331-2.408-0.988-3.285c-0.659-0.875-1.492-1.563-2.497-2.065
						c-1.008-0.5-2.132-0.845-3.369-1.033c-1.24-0.188-2.44-0.281-3.602-0.281c-0.465,0-1.028,0-1.685,0
						c-0.66,0-1.22,0.032-1.685,0.094V580.334z M1298.617,593.662v15.768c0.541,0.063,1.219,0.11,2.033,0.141
						c0.814,0.032,1.877,0.047,3.195,0.047c1.471,0,2.963-0.125,4.473-0.375c1.51-0.249,2.884-0.672,4.124-1.267
						c1.238-0.594,2.226-1.408,2.963-2.441c0.735-1.032,1.103-2.33,1.103-3.895c0-3.003-1.219-5.083-3.659-6.241
						c-2.44-1.157-5.597-1.737-9.469-1.737H1298.617z"/>
					<path style="fill:#D2E4FF;" d="M1361.585,621.82c-1.783,0.249-3.409,0.437-4.879,0.563c-1.472,0.125-2.905,0.188-4.299,0.188
						c-1.394,0-3.003-0.079-4.822-0.234c-1.821-0.157-3.853-0.39-6.099-0.704l26.024-67.016c2.013-0.188,3.892-0.343,5.635-0.469
						c1.742-0.125,3.503-0.188,5.286-0.188c1.471,0,3.079,0.063,4.821,0.188c1.743,0.126,3.736,0.281,5.984,0.469l25.676,67.109
						c-4.415,0.563-8.289,0.845-11.619,0.845c-1.55,0-3.099-0.063-4.647-0.188c-1.55-0.126-3.215-0.314-4.995-0.563l-4.415-13.047
						c-2.169,0.502-4.24,0.877-6.216,1.127c-1.975,0.251-3.932,0.375-5.867,0.375c-1.783,0-3.602-0.109-5.461-0.329
						c-1.859-0.219-3.796-0.547-5.809-0.985L1361.585,621.82z M1377.85,572.263l-7.784,24.122c1.317,0.314,2.557,0.563,3.718,0.751
						c1.162,0.188,2.361,0.282,3.602,0.282c1.316,0,2.614-0.078,3.892-0.235c1.278-0.155,2.613-0.39,4.008-0.704L1377.85,572.263z"
						/>
					<path style="fill:#D2E4FF;" d="M1422.463,554.711c1.703-0.249,3.253-0.437,4.647-0.563c1.394-0.125,2.748-0.188,4.067-0.188
						c1.394,0,2.846,0.079,4.357,0.235c1.51,0.157,2.806,0.328,3.892,0.516l26.953,36.793v-36.793
						c2.013-0.249,3.834-0.437,5.461-0.563c1.627-0.125,3.097-0.188,4.415-0.188c1.316,0,2.711,0.063,4.183,0.188
						c1.47,0.126,3.02,0.314,4.647,0.563l-0.116,67.016c-0.776,0.188-1.9,0.375-3.369,0.563c-1.472,0.188-3.061,0.281-4.764,0.281
						c-1.937,0-3.679-0.11-5.228-0.328c-1.55-0.22-2.672-0.39-3.369-0.516l-27.07-36.605v36.605
						c-3.409,0.563-6.505,0.845-9.294,0.845c-2.788,0-5.925-0.281-9.411-0.845V554.711z"/>
					<path style="fill:#D2E4FF;" d="M1499.026,554.711c2.091-0.249,3.989-0.437,5.693-0.563c1.703-0.125,3.213-0.188,4.531-0.188
						c1.394,0,2.963,0.063,4.706,0.188c1.742,0.126,3.62,0.314,5.634,0.563v67.016c-4.106,0.563-7.513,0.845-10.224,0.845
						c-2.866,0-6.314-0.281-10.34-0.845V554.711z M1543.871,587.092l21.726,34.634c-1.317,0.251-3.079,0.453-5.286,0.61
						c-2.208,0.155-4.203,0.234-5.984,0.234c-2.247,0-4.415-0.079-6.506-0.234c-2.091-0.157-3.874-0.36-5.344-0.61l-21.262-33.789
						l19.635-33.226c2.324-0.312,4.337-0.516,6.041-0.61c1.703-0.094,3.445-0.141,5.228-0.141c0.851,0,1.819,0.016,2.905,0.047
						c1.084,0.032,2.149,0.094,3.195,0.188c1.046,0.094,2.052,0.188,3.021,0.281c0.968,0.094,1.801,0.173,2.497,0.235
						L1543.871,587.092z"/>
				</g>
			</g>
			<g>
				<g>
					<path style="fill:#FFB93E;" d="M1169.372,1664.559v30.502c0,2.43,0.741,4.684,2.014,6.563c1.339,1.975,3.262,3.528,5.517,4.399
						c0.689,0.273,1.41,0.474,2.151,0.604c0.676,0.123,1.365,0.188,2.073,0.188h485.84c1.884,0,3.671-0.448,5.25-1.247
						c3.542-1.774,6.076-5.302,6.459-9.422c0.013-0.156,0.026-0.318,0.033-0.481c0.006-0.201,0.013-0.402,0.013-0.604v-30.502
						c0-0.201-0.006-0.403-0.013-0.604c-0.293-5.725-4.731-10.397-10.352-11.066c-0.455-0.058-0.916-0.084-1.39-0.084h-485.84
						c-0.708,0-1.397,0.065-2.073,0.189c-0.741,0.13-1.462,0.331-2.151,0.604c-2.255,0.871-4.178,2.424-5.517,4.399
						C1170.114,1659.874,1169.372,1662.129,1169.372,1664.559z"/>
					<path style="fill:#FFA412;" d="M1407.945,1706.815h260.282c1.683,0,3.275-0.448,4.685-1.247
						c3.165-1.774,5.419-5.302,5.764-9.422c0.013-0.156,0.026-0.318,0.033-0.481c0.006-0.201,0.013-0.402,0.013-0.604v-30.502
						c0-0.201-0.006-0.403-0.013-0.604c-0.26-5.718-4.224-10.397-9.24-11.066c-0.403-0.058-0.819-0.084-1.241-0.084h-228.319
						c-0.007,0.026-0.013,0.059-0.02,0.084c-3.561,15.485-11.729,36.714-30.449,52.679
						C1408.953,1705.991,1408.452,1706.406,1407.945,1706.815z"/>
					<g>
						
							<rect x="1228.49" y="1652.804" transform="matrix(-1 -1.224647e-16 1.224647e-16 -1 2462.5022 3359.6196)" style="fill:#FFA412;" width="5.522" height="54.011"/>
						
							<rect x="1247.182" y="1652.804" transform="matrix(-1 -1.224647e-16 1.224647e-16 -1 2499.886 3359.6196)" style="fill:#FFA412;" width="5.522" height="54.011"/>
						
							<rect x="1269.596" y="1652.804" transform="matrix(-1 -1.224647e-16 1.224647e-16 -1 2544.7144 3359.6196)" style="fill:#FFA412;" width="5.522" height="54.011"/>
						
							<rect x="1303.953" y="1652.804" transform="matrix(-1 -1.224647e-16 1.224647e-16 -1 2613.4272 3359.6196)" style="fill:#FFA412;" width="5.522" height="54.011"/>
						
							<rect x="1340.283" y="1652.804" transform="matrix(-1 -1.224647e-16 1.224647e-16 -1 2686.0879 3359.6196)" style="fill:#FFA412;" width="5.522" height="54.011"/>
						
							<rect x="1395.98" y="1652.804" transform="matrix(-1 -1.224647e-16 1.224647e-16 -1 2797.4819 3359.6196)" style="fill:#FFA412;" width="5.522" height="54.011"/>
						
							<rect x="1448.129" y="1652.804" transform="matrix(-1 -1.224647e-16 1.224647e-16 -1 2901.7795 3359.6196)" style="fill:#FFA412;" width="5.522" height="54.011"/>
						
							<rect x="1494.695" y="1652.804" transform="matrix(-1 -1.224647e-16 1.224647e-16 -1 2994.9111 3359.6196)" style="fill:#FFA412;" width="5.522" height="54.011"/>
						
							<rect x="1210.699" y="1652.804" transform="matrix(-1 -1.224647e-16 1.224647e-16 -1 2426.9189 3359.6196)" style="fill:#FFA412;" width="5.522" height="54.011"/>
						
							<rect x="1198.945" y="1652.804" transform="matrix(-1 -1.224647e-16 1.224647e-16 -1 2403.4109 3359.6196)" style="fill:#FFA412;" width="5.522" height="54.011"/>
						
							<rect x="1187.594" y="1652.804" transform="matrix(-1 -1.224647e-16 1.224647e-16 -1 2380.7107 3359.6196)" style="fill:#FFA412;" width="5.522" height="54.011"/>
						<path style="fill:#FFA412;" d="M1179.054,1652.991v53.634c0.676,0.124,1.365,0.189,2.073,0.189h3.45v-54.011h-3.45
							C1180.419,1652.803,1179.73,1652.868,1179.054,1652.991z"/>
						<path style="fill:#FFA412;" d="M1171.387,1657.994v43.628c1.339,1.976,3.262,3.529,5.517,4.4v-52.426
							C1174.649,1654.466,1172.725,1656.019,1171.387,1657.994z"/>
					</g>
				</g>
				<g>
					<path style="fill:#FFB93E;" d="M1133.653,1610.633v30.501c0,2.43,0.741,4.685,2.014,6.563c1.339,1.975,3.262,3.528,5.517,4.399
						c0.689,0.273,1.411,0.474,2.151,0.604c0.227,0.039,0.455,0.078,0.682,0.104c0.123,0.013,0.253,0.026,0.384,0.039
						c0.123,0.013,0.253,0.02,0.384,0.026c0.208,0.013,0.416,0.019,0.623,0.019h485.84c6.264,0,11.424-4.964,11.742-11.15
						c0.006-0.201,0.013-0.402,0.013-0.604v-30.501c0-0.201-0.007-0.403-0.013-0.604c-0.318-6.186-5.478-11.15-11.742-11.15h-485.84
						c-0.708,0-1.397,0.065-2.073,0.188c-0.74,0.13-1.462,0.332-2.151,0.604c-2.255,0.871-4.178,2.424-5.517,4.399
						C1134.394,1605.948,1133.653,1608.202,1133.653,1610.633z"/>
					<path style="fill:#FFA412;" d="M1372.226,1652.889h260.282c5.589,0,10.195-4.964,10.481-11.15
						c0.006-0.201,0.013-0.402,0.013-0.604v-30.501c0-0.201-0.007-0.403-0.013-0.604c-0.286-6.186-4.893-11.15-10.481-11.15
						h-228.319c-3.639,15.875-12.112,37.812-31.859,53.927C1372.297,1652.83,1372.258,1652.863,1372.226,1652.889z"/>
					<g>
						
							<rect x="1192.771" y="1598.879" transform="matrix(-1 -1.224647e-16 1.224647e-16 -1 2391.063 3251.7678)" style="fill:#FFA412;" width="5.522" height="54.011"/>
						
							<rect x="1211.462" y="1598.879" transform="matrix(-1 -1.224647e-16 1.224647e-16 -1 2428.4453 3251.7678)" style="fill:#FFA412;" width="5.522" height="54.011"/>
						
							<rect x="1233.876" y="1598.879" transform="matrix(-1 -1.224647e-16 1.224647e-16 -1 2473.2742 3251.7678)" style="fill:#FFA412;" width="5.522" height="54.011"/>
						
							<rect x="1268.233" y="1598.879" transform="matrix(-1 -1.224647e-16 1.224647e-16 -1 2541.988 3251.7678)" style="fill:#FFA412;" width="5.522" height="54.011"/>
						
							<rect x="1304.564" y="1598.879" transform="matrix(-1 -1.224647e-16 1.224647e-16 -1 2614.6489 3251.7678)" style="fill:#FFA412;" width="5.522" height="54.011"/>
						
							<rect x="1360.26" y="1598.879" transform="matrix(-1 -1.224647e-16 1.224647e-16 -1 2726.0425 3251.7678)" style="fill:#FFA412;" width="5.522" height="54.011"/>
						
							<rect x="1412.409" y="1598.879" transform="matrix(-1 -1.224647e-16 1.224647e-16 -1 2830.3398 3251.7678)" style="fill:#FFA412;" width="5.522" height="54.011"/>
						<rect x="1458.974" y="1598.878" style="fill:#FFA412;" width="5.523" height="54.011"/>
						
							<rect x="1174.979" y="1598.879" transform="matrix(-1 -1.224647e-16 1.224647e-16 -1 2355.4797 3251.7678)" style="fill:#FFA412;" width="5.522" height="54.011"/>
						
							<rect x="1163.225" y="1598.879" transform="matrix(-1 -1.224647e-16 1.224647e-16 -1 2331.9717 3251.7678)" style="fill:#FFA412;" width="5.522" height="54.011"/>
						
							<rect x="1151.875" y="1598.879" transform="matrix(-1 -1.224647e-16 1.224647e-16 -1 2309.2715 3251.7678)" style="fill:#FFA412;" width="5.522" height="54.011"/>
						<path style="fill:#FFA412;" d="M1143.335,1599.065v53.634c0.675,0.123,1.364,0.189,2.073,0.189h3.45v-54.011h-3.45
							C1144.699,1598.877,1144.01,1598.942,1143.335,1599.065z"/>
						<path style="fill:#FFA412;" d="M1135.667,1604.068v43.628c1.339,1.975,3.262,3.528,5.517,4.399v-52.425
							C1138.929,1600.54,1137.006,1602.093,1135.667,1604.068z"/>
					</g>
				</g>
			</g>
			<g>
				<g id="man_2_">
					<path style="fill:#AB7041;" d="M1804.334,1065.146c0,0,24.059-6.464,35.145-18.027c11.087-11.563,29.402-8.067,35.854-5.286
						c6.451,2.781,9.895,14.347,2.074,14.004c-11.817-0.519-16.573,15.63-35.217,18.535c-18.643,2.904-38.824,14.018-38.824,14.018
						L1804.334,1065.146z"/>
					<path style="fill:#AA413E;" d="M1661.116,921.726c0,0,27.592,161.424,72.887,177.567c25.387,9.048,76.151-14.404,104.37-29.058
						l-9.026-15.329c0,0-54.023,7.408-60.726,3.245c-11.669-7.247-2.007-143.744-32.578-168.733
						C1705.473,864.428,1678.173,877.594,1661.116,921.726z"/>
					<path style="fill:#233862;" d="M1719.306,1706.474h97.391c-0.353-2.619-2.519-11.347-15.628-13.286
						c-15.473-2.287-42.755-11.294-47.75-32.519c-4.994-21.224-37.813,7.312-37.813,7.312S1712.094,1701.989,1719.306,1706.474z"/>
					<path style="fill:#2B478B;" d="M1550.233,1290.998c16.236,33.134,54.737,79.282,68.935,115.037
						c3.361,8.457,5.361,16.322,5.392,23.308c0.334,80.246,87.443,238.484,87.443,238.484c8.308,5.376,43.76-5.383,43.76-5.383
						s-4.107-35.164-24.459-156.666c-11.218-67.022-30.146-166.811-44.857-242.833c-3.789-19.582-7.306-37.583-10.323-53.042
						c-6.535-33.343-10.821-54.854-10.821-54.854l-33.78,0.56l-91.231,1.509C1540.291,1157.118,1502.427,1193.426,1550.233,1290.998
						z"/>
					<path style="fill:#233862;" d="M1550.233,1290.998c16.236,33.134,54.737,79.282,68.935,115.037
						c20.126-42.586,50.661-107.32,67.279-143.09c-3.789-19.582-7.306-37.583-10.323-53.042
						c-4.797-23.051-6.229-33.366-10.821-54.854l-125.011,2.069C1540.291,1157.118,1502.427,1193.426,1550.233,1290.998z"/>
					<path style="fill:#233862;" d="M1362.465,1656.077c3.8,11.114,19.522,17.974,22.17,31.633
						c1.856,9.533,6.618,15.902,11.879,18.765h42.791c0.705-1.59,3.678-9.868-8.458-12c-13.453-2.364-19.143-18.309-18.929-33.344
						c0.009-0.361,0.009-0.73,0.009-1.1c0.069-14.888-2.708-33.843-2.708-33.843l-28.598-5.501l-4.78,6.688l-0.748,1.057
						C1375.093,1628.432,1358.666,1644.962,1362.465,1656.077z"/>
					<path style="fill:#2B478B;" d="M1566.216,1488.797c-17.141,31.13-143.6,175.662-143.6,175.662s-39.862-13.46-46.957-37.67
						c0,0,74.801-122.897,108.812-175.275c9.725-14.976,15.132-243.902,49.794-285.624c43.453-52.298,122.122,46.926,122.122,46.926
						s-24.617,80.059-32.269,105.277C1607.156,1374.021,1578.03,1467.345,1566.216,1488.797z"/>
					<path style="fill:#E49963;" d="M1810.351,1066.579c0,0,24.059-6.464,35.145-18.027c11.087-11.563,29.402-8.067,35.854-5.286
						c6.451,2.78,9.895,14.346,2.074,14.004c-11.817-0.519-16.573,15.63-35.217,18.534c-18.643,2.904-38.824,14.019-38.824,14.019
						L1810.351,1066.579z"/>
					<path style="fill:#E49963;" d="M1734.342,879.563c12.544-20.828,17.855-34.007,17.855-34.007l-29.471-51.693
						c-17.17,48.417-56.818,59.367-56.818,59.367s46.355,50.86,83.686,53.431C1749.594,906.661,1745.522,892.996,1734.342,879.563z"
						/>
					<path style="fill:#E49963;" d="M1762.665,848.757c0,0-58.44-12.436-50.135-48.71s6.355-62.31,44.019-55.903
						c37.663,6.406,41.719,21.902,41.891,34.684C1798.612,791.609,1778.081,851.057,1762.665,848.757z"/>
					<path style="fill:#233862;" d="M1711.963,802.552c0,0,19.129-45.446,72.009-33.174c36.219,8.405,26.723-28.349,24.589-34.418
						c0,0-28.135-5.286-57.233-9.93C1690.255,715.284,1708.7,793.396,1711.963,802.552z"/>
					<path style="fill:#C65447;" d="M1760.975,960.457c-1.151,18.142-6.621,45.627-14.05,76.115
						c-2.886,11.81-6.061,24.07-9.39,36.417c-5.407,20.032-11.04,40.182-16.851,59.149l-0.217,0.677
						c-0.421,1.929-1.074,3.976-1.665,5.85c-5.042,16.75-9.873,32.255-14.082,45.418c-8.059,25.175-8.114,39.198-14.547,42.041
						c-12.927,5.713-63.822-0.42-94.318-13.637c-25.766-10.97-65.026-44.052-64.826-60.705
						c0.233-19.302,26.135-77.415,43.305-145.268c21.184-82.884,68.173-149.073,107.359-162.718
						c2.925-0.949,6.052,5.197,17.411,16.104c10.495,10.067,23.896,16.343,36.405,17.682l7.278,12.456
						C1752.892,907.851,1762.851,930.871,1760.975,960.457z"/>
					<path style="fill:#AA413E;" d="M1737.536,1072.989C1734.65,1084.799,1740.865,1060.643,1737.536,1072.989
						c-5.407,20.032-11.04,40.182-16.851,59.149l-0.217,0.677c-0.421,1.929-1.074,3.976-1.665,5.85
						c-5.042,16.75-9.873,32.255-14.082,45.418c-81.499-103.523-35.281-227.5-35.281-227.5L1737.536,1072.989z"/>
					<path style="fill:#C65447;" d="M1623.385,921.726c0,0,50.989,187.742,97.677,199.248c23.037,5.677,86.263-23.626,114.483-38.28
						c0,0,7.095-5.767-8.576-26.189c0,0-83.541,15.689-90.243,11.526c-11.67-7.248,11.856-133.986-18.715-158.976
						C1687.44,884.065,1640.442,877.594,1623.385,921.726z"/>
					<path style="fill:#233862;" d="M1744.236,779.939c0,0,6.572-10.875,24.096-12.634c0,0-51.514,1.083-53.659,16.912
						c-2.144,15.829-2.71,18.335-2.71,18.335S1739.179,803.667,1744.236,779.939z"/>
				</g>
				<g>
					<g>
						<path style="fill:#82B378;" d="M2368.872,1418.427l65.932-5.671c0,0-3.812-40.648,7.787-94.864
							c8.557-40.05,25.525-87.497,58.635-131.445c56.464-74.941,224.185-116.865,224.185-116.865v-9.701l-6.03-0.653
							c0,0,2.599-1.813,6.03-2.863v-22.934c-4.955-0.07-12.051,0.226-19.06,1.867c3.929-0.98,12.308-2.901,19.06-3.422v-12.058
							c-242.958,6.496-322.193,153.251-347.025,266.825C2362.485,1359.334,2368.872,1418.427,2368.872,1418.427z"/>
						<path style="fill:#A8D29F;" d="M2080.318,1397.096l288.554,21.331c1.493-44.444,13.093-90.407,24.311-125.251
							c11.218-34.845,22.071-58.581,22.071-58.581c86.323-189.145,310.158-214.779,310.158-214.779l-248.434-101.742
							c-120.016,9.032-204.215,66.671-263.106,139.045C2098.53,1198.863,2080.318,1397.096,2080.318,1397.096z"/>
					</g>
					<path style="opacity:0.5;fill:#82B378;" d="M2080.318,1397.096l288.554,21.331l65.932-5.671c0,0-3.812-40.648,7.787-94.864
						c-13.747-8.278-30.091-16.547-49.408-24.716c-5.072-2.147-10.005-4.326-14.797-6.535
						c-183.723-84.798-166.609-216.888-164.515-229.522C2098.53,1198.863,2080.318,1397.096,2080.318,1397.096z"/>
					<g>
						<path style="fill:#82B378;" d="M2103.009,1419.317l257.154-4.974l-0.906-4.952c-0.137-0.75-13.343-76.146,17.489-161.871
							c18.063-50.222,47.51-94.157,87.523-130.585c50.128-45.638,117.119-79.606,199.111-100.961l12.632-3.29l-200.712-79.879
							l-0.771-0.018c-2.172-0.048-53.865-0.829-120.315,30.598c-38.948,18.421-74.807,44.16-106.58,76.503
							c-39.641,40.351-72.986,91.145-99.109,150.968c-2.064,4.597-50.91,114.258-48.329,180.104l0.004,0.081L2103.009,1419.317z
							 M2350.083,1405.978l-239.009,4.624l-2.33-40.015c-1.022-26.303,6.862-65.077,22.801-112.132
							c12.11-35.749,24.677-63.854,24.802-64.133c25.673-58.788,58.356-108.637,97.162-148.203
							c31.004-31.612,65.973-56.776,103.938-74.795c41.194-19.552,77.113-26.364,97.906-28.73
							c10.918-1.242,21.967,0.227,32.176,4.29l139.103,55.359c7.255,2.888,6.888,13.261-0.546,15.654
							c-67.646,21.781-123.964,52.944-167.773,92.888c-41.056,37.434-71.254,82.591-89.753,134.214
							c-16.444,45.89-20.395,88.493-20.813,116.151C2347.42,1382.611,2349.065,1398.415,2350.083,1405.978z"/>
					</g>
					<g>
						<g>
							<path style="fill:#FFB93E;" d="M2051.666,1418.498l1.68,19.348c0.133,1.541,0.723,2.933,1.633,4.054
								c0.957,1.174,2.265,2.054,3.742,2.481c0.452,0.14,0.926,0.226,1.4,0.264c0.436,0.047,0.871,0.047,1.323,0.008l2.193-0.187
								l1.914-0.171l3.501-0.303l3.695-0.319l3.5-0.303l3.952-0.342l3.509-0.304l7.779-0.677l3.501-0.303l8.356-0.724l3.5-0.304
								l10.72-0.933l3.5-0.303l18.29-1.587l3.501-0.303l19.542-1.697l3.5-0.303l31.834-2.762l3.501-0.303l4.084-0.351l25.494-2.209
								l3.501-0.303l26.03-2.264l3.509-0.303l19.309-1.673l33.281-2.886l53.205-4.614c3.587-0.327,6.38-3.166,6.768-6.628
								c0.023-0.155,0.031-0.311,0.039-0.467c0.016-0.327,0.009-0.661-0.023-1.004l-1.673-19.347
								c-0.008-0.124-0.023-0.241-0.039-0.366c-0.412-2.987-2.559-5.36-5.321-6.177c-0.864-0.257-1.797-0.358-2.747-0.272
								l-79.865,6.931l-0.281,0.024l-3.5,0.303l-2.816,0.242l-22.818,1.983l-0.405,0.031l-3.5,0.303l-22.125,1.922l-2.762,0.233
								c0,0.008,0,0.008,0,0.008c-0.009,0-0.009,0-0.009,0l-0.731,0.062l-3.952,0.343l-1.26,0.108l-2.24,0.195l-22.125,1.922
								l-3.501,0.304l-6.2,0.536l-3.509,0.303l-19.542,1.696l-2.583,0.226l-0.917,0.077l-2.583,0.226l-15.708,1.362l-3.5,0.303
								l-0.335,0.031l-3.5,0.304l-6.885,0.591l-3.5,0.303l-8.356,0.723l-3.5,0.304l-7.78,0.677l-2.49,0.218l-1.019,0.086
								l-2.481,0.217l-1.471,0.124l-3.5,0.304l-3.384,0.295l-0.312,0.023l-3.19,0.28l-0.311,0.023l-1.914,0.171l-3.501,0.304
								l-1.369,0.116h-0.023l-0.661,0.063l-3.509,0.303l-3.952,0.343l-3.501,0.303l-7.196,0.63l-1.914,0.164l-2.193,0.186
								c-0.452,0.039-0.879,0.117-1.3,0.233c-0.467,0.124-0.91,0.295-1.338,0.506c-1.377,0.677-2.513,1.765-3.252,3.096
								C2051.876,1415.487,2051.533,1416.957,2051.666,1418.498z"/>
							<path style="fill:#FFA412;" d="M2205.32,1432.174l25.494-2.209l3.501-0.303l26.03-2.264l3.509-0.303l19.309-1.673
								l33.281-2.886l53.205-4.614l0.778-0.07c3.213-0.28,5.695-3.097,5.99-6.559c0.023-0.155,0.031-0.311,0.039-0.467
								c0.016-0.327,0.009-0.661-0.023-1.004l-1.673-19.347c-0.008-0.124-0.023-0.241-0.039-0.366
								c-0.397-2.987-2.349-5.391-4.831-6.224c-0.771-0.257-1.595-0.365-2.435-0.296l-0.802,0.071l-79.865,6.931l-0.281,0.024
								l-3.5,0.303l-2.816,0.242l-19.309,1.68l-3.509,0.304l-0.405,0.031l-3.5,0.303l-22.125,1.922l-2.762,0.242
								c-0.009,0-0.009,0-0.009,0l-0.731,0.062l-3.952,0.343l-1.26,0.108c-0.023,0.171-0.047,0.343-0.07,0.514h-0.008
								C2221.052,1406.913,2216.811,1421.041,2205.32,1432.174z"/>
							<g>
								
									<rect x="2089.997" y="1407.573" transform="matrix(-0.9963 0.0864 -0.0864 -0.9963 4298.8169 2663.427)" style="fill:#FFA412;" width="3.515" height="34.389"/>
								
									<rect x="2101.854" y="1406.544" transform="matrix(-0.9963 0.0864 -0.0864 -0.9963 4322.4072 2660.3303)" style="fill:#FFA412;" width="3.516" height="34.389"/>
								
									<rect x="2116.071" y="1405.311" transform="matrix(-0.9963 0.0864 -0.0864 -0.9963 4350.645 2656.7085)" style="fill:#FFA412;" width="3.516" height="34.389"/>
								
									<rect x="2137.865" y="1403.421" transform="matrix(-0.9963 0.0864 -0.0864 -0.9963 4393.9868 2651.0518)" style="fill:#FFA412;" width="3.516" height="34.389"/>
								
									<rect x="2160.91" y="1401.421" transform="matrix(-0.9963 0.0864 -0.0864 -0.9963 4439.8188 2645.0698)" style="fill:#FFA412;" width="3.516" height="34.39"/>
								
									<rect x="2196.24" y="1398.357" transform="matrix(-0.9963 0.0864 -0.0864 -0.9963 4510.1396 2635.7886)" style="fill:#FFA412;" width="3.516" height="34.389"/>
								
									<rect x="2229.319" y="1395.487" transform="matrix(-0.9963 0.0864 -0.0864 -0.9963 4575.895 2627.2615)" style="fill:#FFA412;" width="3.515" height="34.39"/>
								
									<rect x="2258.857" y="1392.925" transform="matrix(-0.9963 0.0864 -0.0864 -0.9963 4634.6118 2619.647)" style="fill:#FFA412;" width="3.516" height="34.389"/>
								
									<rect x="2078.711" y="1408.552" transform="matrix(-0.9963 0.0864 -0.0864 -0.9963 4276.3794 2666.3425)" style="fill:#FFA412;" width="3.516" height="34.389"/>
								
									<rect x="2071.256" y="1409.199" transform="matrix(-0.9963 0.0864 -0.0864 -0.9963 4261.5415 2668.2979)" style="fill:#FFA412;" width="3.516" height="34.389"/>
								
									<rect x="2064.056" y="1409.823" transform="matrix(-0.9963 0.0865 -0.0865 -0.9963 4247.2612 2670.0991)" style="fill:#FFA412;" width="3.515" height="34.389"/>
								<path style="fill:#FFA412;" d="M2057.169,1410.627l2.951,34.022c0.436,0.041,0.876,0.044,1.325,0.006l2.188-0.19
									l-2.971-34.26l-2.189,0.19C2058.025,1410.432,2057.591,1410.512,2057.169,1410.627z"/>
								<path style="fill:#FFA412;" d="M2052.581,1414.223l2.401,27.674c0.958,1.18,2.263,2.058,3.741,2.486l-2.884-33.254
									C2054.456,1411.806,2053.321,1412.896,2052.581,1414.223z"/>
							</g>
						</g>
						<g>
							<path style="fill:#FFB93E;" d="M2074.367,1382.517l1.68,19.348c0.133,1.54,0.724,2.933,1.634,4.053
								c0.117,0.148,0.242,0.28,0.374,0.42c0.521,0.553,1.121,1.02,1.782,1.394c0.49,0.279,1.011,0.505,1.564,0.668h0.008
								c0.008,0.008,0.008,0.008,0.015,0.008c0.452,0.132,0.926,0.217,1.4,0.264c0.436,0.039,0.88,0.039,1.323,0l2.193-0.187
								l1.914-0.171l0.311-0.023l3.189-0.28l0.311-0.024l3.385-0.295l3.5-0.303l1.471-0.125l2.481-0.217l1.019-0.086l2.49-0.218
								l7.779-0.677l0.452-0.039l3.05-0.264l0.452-0.039l7.903-0.684l3.501-0.303l6.885-0.599l3.5-0.304l0.335-0.03l3.5-0.304
								l15.707-1.362l2.583-0.226l0.918-0.077l2.583-0.226l19.542-1.696l3.509-0.304l6.2-0.536l3.5-0.304l22.126-1.922l2.115-0.179
								h0.008l1.377-0.124l3.952-0.343l0.133-0.008l3.368-0.296l22.126-1.914l3.5-0.304l0.405-0.039l3.508-0.304l19.31-1.672
								l2.816-0.249l3.5-0.303l0.996-0.086l81.85-7.095l0.49-0.047l22.46-1.945c3.594-0.327,6.386-3.166,6.768-6.628
								c0.024-0.155,0.031-0.303,0.04-0.459c0.015-0.334,0.008-0.668-0.023-1.011l-1.673-19.348
								c-0.008-0.124-0.023-0.241-0.039-0.365c-0.016-0.118-0.031-0.233-0.055-0.351c-0.7-3.741-4.154-6.433-8.013-6.099
								l-5.243,0.451l-0.008,0.008l-0.505,0.039l-24.95,2.162l-66.446,5.765l-8.619,0.754l-3.501,0.304l-2.816,0.241l-2.115,0.179
								l-3.501,0.304l-17.604,1.533l-3.501,0.303l-4.917,0.428h-0.007l-0.288,0.023l-3.213,0.28l-24.902,2.155l-4.676,0.405
								l-3.509,0.304l-31.826,2.762l-3.5,0.303l-19.542,1.696l-3.501,0.304l-18.29,1.587l-3.509,0.304l-2.287,0.202l-3.501,0.303
								l-4.917,0.428l-3.5,0.303l-8.364,0.724l-2.855,0.249l-0.646,0.055l-2.862,0.249l-3.952,0.343l-0.965,0.086l-3.501,0.303
								l-3.959,0.342l-3.5,0.304l-0.685,0.062l-2.193,0.186c-0.273,0.024-0.545,0.062-0.809,0.124
								c-0.164,0.032-0.326,0.071-0.49,0.109c-0.452,0.117-0.879,0.28-1.291,0.49h-0.023l-0.008,0.008
								c-0.008,0.008-0.008,0.008-0.015,0.008c-1.377,0.677-2.513,1.765-3.252,3.096
								C2074.577,1379.507,2074.234,1380.976,2074.367,1382.517z"/>
							<path style="fill:#FFA412;" d="M2228.022,1396.194l3.368-0.296l22.126-1.914l3.5-0.304l0.405-0.039l3.508-0.304l19.31-1.672
								l2.816-0.249l3.5-0.303l0.996-0.086l81.85-7.095l0.49-0.047l22.46-1.945l0.777-0.07c3.213-0.272,5.687-3.097,5.99-6.559
								c0.024-0.155,0.031-0.303,0.04-0.459c0.015-0.334,0.008-0.668-0.023-1.011l-1.673-19.348
								c-0.008-0.124-0.023-0.241-0.039-0.365c-0.016-0.118-0.031-0.233-0.055-0.351c-0.654-3.734-3.773-6.464-7.212-6.169
								l-0.802,0.07l-5.243,0.451l-0.008,0.008l-0.505,0.039l-24.95,2.162l-66.438,5.773l-8.628,0.746l-3.501,0.304l-2.816,0.241
								l-2.115,0.179l-3.501,0.304l-17.604,1.533l-3.501,0.303l-4.917,0.428h-0.007l-0.288,0.023
								c-0.023,0.164-0.047,0.327-0.071,0.499v0.007c-1.486,10.074-5.609,23.915-16.679,34.953c0,0.008,0,0.008,0,0.008
								c-0.009,0-0.009,0-0.009,0C2228.395,1395.835,2228.208,1396.014,2228.022,1396.194z"/>
							<g>
								
									<rect x="2112.699" y="1371.593" transform="matrix(-0.9963 0.0865 -0.0865 -0.9963 4341.0908 2589.5188)" style="fill:#FFA412;" width="3.516" height="34.389"/>
								
									<rect x="2124.555" y="1370.564" transform="matrix(-0.9963 0.0864 -0.0864 -0.9963 4364.605 2586.562)" style="fill:#FFA412;" width="3.516" height="34.389"/>
								
									<rect x="2138.773" y="1369.33" transform="matrix(-0.9963 0.0864 -0.0864 -0.9963 4392.9116 2582.8125)" style="fill:#FFA412;" width="3.515" height="34.39"/>
								
									<rect x="2160.567" y="1367.44" transform="matrix(-0.9963 0.0864 -0.0864 -0.9963 4436.2539 2577.1553)" style="fill:#FFA412;" width="3.515" height="34.389"/>
								
									<rect x="2183.612" y="1365.441" transform="matrix(-0.9963 0.0864 -0.0864 -0.9963 4482.082 2571.1772)" style="fill:#FFA412;" width="3.515" height="34.389"/>
								
									<rect x="2218.941" y="1362.377" transform="matrix(-0.9963 0.0865 -0.0865 -0.9963 4552.3574 2561.9805)" style="fill:#FFA412;" width="3.516" height="34.389"/>
								
									<rect x="2252.02" y="1359.507" transform="matrix(-0.9963 0.0864 -0.0864 -0.9963 4618.1104 2553.4592)" style="fill:#FFA412;" width="3.516" height="34.39"/>
								
									<rect x="2281.558" y="1356.945" transform="matrix(-0.9963 0.0864 -0.0864 -0.9963 4676.8467 2545.8062)" style="fill:#FFA412;" width="3.515" height="34.389"/>
								
									<rect x="2101.413" y="1372.572" transform="matrix(-0.9963 0.0865 -0.0865 -0.9963 4318.6143 2592.5061)" style="fill:#FFA412;" width="3.515" height="34.389"/>
								
									<rect x="2093.957" y="1373.218" transform="matrix(-0.9963 0.0865 -0.0865 -0.9963 4303.7944 2594.4285)" style="fill:#FFA412;" width="3.516" height="34.389"/>
								
									<rect x="2086.758" y="1373.843" transform="matrix(-0.9963 0.0864 -0.0864 -0.9963 4289.4346 2596.3738)" style="fill:#FFA412;" width="3.516" height="34.389"/>
								<path style="fill:#FFA412;" d="M2079.871,1374.647l2.951,34.022c0.435,0.041,0.875,0.044,1.325,0.006l2.189-0.19
									l-2.972-34.26l-2.189,0.19C2080.726,1374.452,2080.292,1374.531,2079.871,1374.647z"/>
								<path style="fill:#FFA412;" d="M2075.283,1378.243l2.401,27.674c0.958,1.179,2.263,2.058,3.74,2.486l-2.884-33.254
									C2077.158,1375.826,2076.023,1376.916,2075.283,1378.243z"/>
							</g>
						</g>
						<g>
							<path style="fill:#FFB93E;" d="M2063.016,1349.477l1.673,19.347c0.139,1.54,0.731,2.933,1.641,4.053
								c0.957,1.183,2.264,2.063,3.742,2.49c0.451,0.133,0.917,0.218,1.4,0.264c0.436,0.039,0.871,0.039,1.322,0l2.187-0.186
								l1.913-0.171l1.666-0.14h0.023l1.322-0.117l0.498-0.046l3.003-0.257l0.692-0.062l1.221-0.109l2.28-0.195l1.221-0.109
								l2.731-0.233l0.965-0.086l2.536-0.217l0.965-0.086l3.952-0.342l2.871-0.249l0.638-0.055l2.862-0.249l4.918-0.427l3.438-0.296
								l0.062-0.008l3.438-0.295l4.917-0.428l3.501-0.303l2.295-0.202l3.509-0.304l4.917-0.427l3.5-0.304l9.873-0.855l3.5-0.304
								l4.917-0.428l3.501-0.303l11.124-0.964l3.501-0.304l4.917-0.42l3.509-0.312l23.401-2.022l3.508-0.311l4.085-0.35l0.833-0.07
								l3.5-0.304l21.153-1.836l3.103-0.272l0.405-0.031l4.918-0.428l3.5-0.303l17.613-1.533l3.5-0.304l2.109-0.179l2.816-0.241
								v-0.008l3.5-0.303l9.351-0.809l88.003-7.631c0.933-0.078,1.821-0.335,2.622-0.724c2.411-1.175,4.076-3.609,4.208-6.364
								c0.016-0.335,0.008-0.669-0.023-1.012l-1.68-19.347c-0.023-0.242-0.054-0.483-0.094-0.724c-0.536-2.84-2.66-5.08-5.352-5.842
								c-0.731-0.202-1.501-0.304-2.287-0.273h-0.047c-0.102,0.008-0.21,0.016-0.319,0.023l-103.671,8.993l-2.109,0.187l-3.5,0.303
								l-26.031,2.256l-3.509,0.303l-5.212,0.452l-24.358,2.116l-3.508,0.303l-31.826,2.762l-3.501,0.304l-19.542,1.696
								l-3.501,0.303l-18.29,1.587l-3.508,0.303l-10.713,0.934l-3.5,0.303l-8.356,0.724l-3.5,0.303l-7.787,0.677l-3.501,0.303
								l-3.952,0.342l-3.5,0.303l-3.695,0.319l-3.509,0.304l-1.914,0.171l-2.186,0.186c-0.452,0.039-0.879,0.117-1.307,0.233
								c-0.459,0.117-0.91,0.288-1.33,0.498c-1.378,0.677-2.513,1.766-3.252,3.097
								C2063.226,1346.466,2062.883,1347.937,2063.016,1349.477z"/>
							<path style="fill:#FFA412;" d="M2216.671,1363.153l0.833-0.07l3.5-0.304l21.153-1.836l3.103-0.272l0.405-0.031l4.918-0.428
								l3.5-0.303l17.613-1.525l3.5-0.303l2.109-0.187l2.816-0.241l3.5-0.304l9.359-0.809l88.797-7.701
								c0.832-0.071,1.618-0.319,2.326-0.7l0.008-0.008c2.14-1.151,3.602-3.563,3.695-6.317c0.016-0.335,0.008-0.669-0.023-1.012
								l-1.68-19.347c-0.023-0.242-0.054-0.483-0.094-0.724c-0.498-2.856-2.434-5.111-4.847-5.889
								c-0.746-0.241-1.54-0.334-2.357-0.264l-0.435,0.039h-0.047l-103.99,9.016l-2.109,0.187l-3.5,0.303l-26.031,2.256
								l-3.509,0.303l-5.212,0.452c-1.408,10.121-5.485,24.256-16.757,35.475
								C2217.036,1362.796,2216.858,1362.975,2216.671,1363.153z"/>
							<g>
								
									<rect x="2101.346" y="1338.554" transform="matrix(-0.9963 0.0864 -0.0864 -0.9963 4315.5049 2524.6724)" style="fill:#FFA412;" width="3.515" height="34.389"/>
								
									<rect x="2113.203" y="1337.526" transform="matrix(-0.9963 0.0864 -0.0864 -0.9963 4339.0952 2521.5754)" style="fill:#FFA412;" width="3.516" height="34.389"/>
								
									<rect x="2127.42" y="1336.293" transform="matrix(-0.9963 0.0864 -0.0864 -0.9963 4367.3706 2517.885)" style="fill:#FFA412;" width="3.516" height="34.389"/>
								
									<rect x="2149.214" y="1334.402" transform="matrix(-0.9963 0.0864 -0.0864 -0.9963 4410.6797 2512.2917)" style="fill:#FFA412;" width="3.516" height="34.389"/>
								
									<rect x="2172.259" y="1332.403" transform="matrix(-0.9963 0.0864 -0.0864 -0.9963 4456.5117 2506.3101)" style="fill:#FFA412;" width="3.516" height="34.389"/>
								
									<rect x="2207.589" y="1329.339" transform="matrix(-0.9963 0.0865 -0.0865 -0.9963 4526.832 2497.0229)" style="fill:#FFA412;" width="3.516" height="34.389"/>
								
									<rect x="2240.668" y="1326.469" transform="matrix(-0.9963 0.0864 -0.0864 -0.9963 4592.5859 2488.502)" style="fill:#FFA412;" width="3.515" height="34.389"/>
								
									<rect x="2270.206" y="1323.907" transform="matrix(-0.9963 0.0864 -0.0864 -0.9963 4651.3369 2480.8196)" style="fill:#FFA412;" width="3.516" height="34.39"/>
								
									<rect x="2090.06" y="1339.533" transform="matrix(-0.9963 0.0864 -0.0864 -0.9963 4293.0371 2527.6448)" style="fill:#FFA412;" width="3.516" height="34.389"/>
								
									<rect x="2082.604" y="1340.18" transform="matrix(-0.9963 0.0864 -0.0864 -0.9963 4278.2119 2529.5757)" style="fill:#FFA412;" width="3.516" height="34.389"/>
								
									<rect x="2075.405" y="1340.805" transform="matrix(-0.9963 0.0865 -0.0865 -0.9963 4263.9502 2531.3394)" style="fill:#FFA412;" width="3.515" height="34.389"/>
								<path style="fill:#FFA412;" d="M2068.519,1341.608l2.951,34.022c0.436,0.041,0.876,0.044,1.325,0.006l2.188-0.191
									l-2.972-34.26l-2.189,0.19C2069.374,1341.414,2068.941,1341.493,2068.519,1341.608z"/>
								<path style="fill:#FFA412;" d="M2063.93,1345.205l2.401,27.674c0.958,1.179,2.263,2.058,3.741,2.487l-2.884-33.255
									C2065.805,1342.787,2064.67,1343.877,2063.93,1345.205z"/>
							</g>
						</g>
						<path style="opacity:0.5;fill:#E2810E;" d="M2281.623,1365.059c0.009,0.125,0.009,0.242,0.024,0.366l1.766,19.341
							c0.023,0.342,0.077,0.677,0.148,1.003c0.42,1.938,1.502,3.578,2.933,4.621c0.093,0.078,0.194,0.14,0.295,0.202
							c0.241,0.164,0.498,0.311,0.762,0.436c0.98,0.467,2.062,0.685,3.182,0.583l0.777-0.07l22.453-2.039
							c-2.295,1.261-3.797,3.968-3.657,6.978c0.008,0.125,0.008,0.242,0.024,0.366l1.759,19.341c0.03,0.342,0.085,0.677,0.155,0.996
							c0.529,2.481,2.146,4.465,4.201,5.352l53.205-4.614l0.778-0.07c3.213-0.28,5.695-3.097,5.99-6.559
							c0.023-0.155,0.031-0.311,0.039-0.467c0.016-0.327,0.009-0.661-0.023-1.004l-1.673-19.347
							c-0.008-0.124-0.023-0.241-0.039-0.366c-0.397-2.987-2.349-5.391-4.831-6.224l22.46-1.945l0.777-0.07
							c3.213-0.272,5.687-3.097,5.99-6.559c0.024-0.155,0.031-0.303,0.04-0.459c0.015-0.334,0.008-0.668-0.023-1.011l-1.673-19.348
							c-0.008-0.124-0.023-0.241-0.039-0.365c-0.016-0.118-0.031-0.233-0.055-0.351c-0.654-3.734-3.773-6.464-7.212-6.169
							l-0.802,0.07l-5.243,0.451c2.14-1.151,3.602-3.563,3.695-6.317c0.016-0.335,0.008-0.669-0.023-1.012l-1.68-19.347
							c-0.023-0.242-0.054-0.483-0.094-0.724c-0.498-2.856-2.434-5.111-4.847-5.889l-0.505,0.047l-86.875,7.881
							c-0.109,0.008-0.218,0.024-0.32,0.031l-0.046,0.008l-0.436,0.039c-3.438,0.311-6.021,3.532-6.005,7.329
							c0.007,0.241,0.015,0.482,0.039,0.723l1.75,19.348c0.031,0.343,0.078,0.669,0.155,0.995c0.451,2.093,1.673,3.835,3.283,4.863
							l0.008,0.008c0.241,0.164,0.498,0.303,0.762,0.42c0,0.008,0,0.008,0.008,0.008c0.226,0.102,0.451,0.195,0.685,0.273
							l-5.236,0.474l-0.801,0.078c-1.486,0.14-2.816,0.817-3.843,1.852C2282.362,1360.649,2281.515,1362.765,2281.623,1365.059z"/>
					</g>
					<path style="fill:#82B378;" d="M2328.962,1056.142c42.364,0,65.827,25.337,65.827,67.7c0,42.364-43.867,67.962-86.23,67.962
						c-42.364,0-67.182-25.598-67.182-67.962C2241.378,1081.479,2286.599,1056.142,2328.962,1056.142z"/>
					<g>
						
							<ellipse transform="matrix(0.1602 -0.9871 0.9871 0.1602 33.2216 3350.4641)" style="fill:#2B478B;" cx="1985.61" cy="1655.708" rx="51.107" ry="51.107"/>
						<path style="fill:#C65447;" d="M1962.098,1655.708c0-12.985,10.527-23.512,23.513-23.512
							c12.985,0,23.512,10.526,23.512,23.512c0,12.985-10.527,23.512-23.512,23.512
							C1972.625,1679.22,1962.098,1668.694,1962.098,1655.708z"/>
						
							<ellipse transform="matrix(0.1602 -0.9871 0.9871 0.1602 375.5082 3752.7739)" style="fill:#2B478B;" cx="2393.183" cy="1655.708" rx="51.107" ry="51.107"/>
						
							<ellipse transform="matrix(0.9239 -0.3827 0.3827 0.9239 -451.4421 1041.8655)" style="fill:#C65447;" cx="2393.183" cy="1655.708" rx="23.512" ry="23.512"/>
						<path style="fill:#699DEE;" d="M1883.822,1060.603c2.881-3.104,7.73-3.285,10.834-0.405l65.417,60.705
							c0.97,0.899,1.689,2.033,2.09,3.294l8.311,26.11l548.964,26.03c2.032,0.096,3.943,0.996,5.311,2.503
							c1.368,1.506,2.082,3.494,1.984,5.527l-11.243,231.002c-0.189,3.871-3.238,6.993-7.103,7.273l-450.761,32.708
							c-0.187,0.013-0.373,0.02-0.558,0.02c-3.314-0.001-6.283-2.143-7.302-5.341l-92.23-289.817
							c-0.04-0.116-0.079-0.234-0.112-0.353l-9.258-29.092l-63.939-59.332C1881.123,1068.556,1880.942,1063.705,1883.822,1060.603z
							 M2037.228,1360.071l50.416-1.932l-21.091-85.081l-57.17-0.484L2037.228,1360.071z M2101.205,1357.62l56.743-2.174
							l-19.179-81.777l-58.496-0.495L2101.205,1357.62z M2175.76,1431.406l-14.722-62.78l-56.568,2.167l16.02,64.624
							L2175.76,1431.406z M2241.304,1426.65l-11.273-60.667l-55.466,2.125l14.615,62.325L2241.304,1426.65z M2313.538,1421.408
							l-8.816-58.287l-61.271,2.347l11.189,60.214L2313.538,1421.408z M2373.801,1417.036l-4.252-56.399l-51.465,1.972l8.748,57.835
							L2373.801,1417.036z M2446.899,1411.732l-3.502-53.925l-60.562,2.321l4.219,55.946L2446.899,1411.732z M2506.883,1276.787
							l-55.462-0.47l4.398,67.717l47.881-1.835L2506.883,1276.787z M2438.098,1276.204l-61.631-0.522l5.368,71.186l60.701-2.326
							L2438.098,1276.204z M2369.597,1184.581l5.867,77.804l61.77,0.523l-4.893-75.352L2369.597,1184.581z M2290.591,1180.835
							l12.241,80.935l59.299,0.502l-5.906-78.325L2290.591,1180.835z M2208.417,1176.939l15.64,84.164l65.318,0.553l-12.321-81.463
							L2208.417,1176.939z M2128.847,1173.166l20.475,87.305l61.198,0.518l-15.739-84.696L2128.847,1173.166z M2291.387,1274.962
							l-64.858-0.549l14.467,77.851l61.725-2.365L2291.387,1274.962z M2316.083,1349.387l52.464-2.01l-5.414-71.807l-58.289-0.494
							L2316.083,1349.387z M2212.993,1274.298l-60.548-0.513l19.029,81.143l56.103-2.15L2212.993,1274.298z M2135.646,1260.355
							l-20.601-87.843l-60.436-2.866l22.362,90.212L2135.646,1260.355z M2445.698,1188.19l4.86,74.831l56.973,0.483l3.514-72.215
							L2445.698,1188.19z M2503.051,1355.521l-46.371,1.777l3.473,53.472l40.352-2.928L2503.051,1355.521z M2062.544,1439.621
							l44.498-3.229l-16.132-65.08l-49.501,1.897L2062.544,1439.621z M2005.142,1259.249l58.11,0.492l-22.496-90.753l-65.324-3.098
							L2005.142,1259.249z"/>
						<g>
							<path style="fill:#C65447;" d="M1911.649,1095.627c2.549,0,5.084-1.053,6.901-3.114c3.362-3.809,2.999-9.622-0.811-12.984
								l-33.455-29.519c-3.81-3.363-9.623-2.999-12.984,0.812c-3.362,3.809-2.999,9.623,0.812,12.984l33.454,29.518
								C1907.316,1094.868,1909.486,1095.627,1911.649,1095.627z"/>
						</g>
						<g>
							<path style="fill:#C65447;" d="M2507.839,1424.196c4.875,0,8.942-3.829,9.181-8.752l11.242-231.002
								c0.247-5.075-3.666-9.389-8.74-9.636c-5.108-0.265-9.39,3.667-9.636,8.741l-11.242,231.002
								c-0.248,5.074,3.666,9.388,8.74,9.635C2507.537,1424.193,2507.689,1424.196,2507.839,1424.196z"/>
						</g>
						<path style="fill:#699DEE;" d="M1984.069,1652.166l10.283-61.891c-4.07-0.196-7.296-3.547-7.296-7.649v-83.815
							c0-2.297,1.029-4.473,2.805-5.929l62.35-51.107c3.276-2.684,8.104-2.204,10.789,1.069c2.685,3.275,2.206,8.105-1.069,10.789
							l-59.544,48.806v72.658l439.761,7.941l13.641-38.401c1.417-3.99,5.802-6.076,9.789-4.658c3.991,1.417,6.076,5.8,4.658,9.789
							l-13,36.598l58.495,22.85c3.944,1.541,5.891,5.987,4.352,9.93c-1.184,3.028-4.078,4.88-7.144,4.88
							c-0.927,0-1.871-0.17-2.786-0.528l-64.139-25.054l-8.125-0.147l-42.334,60.779c-2.13,3.058-6.104,0.99-5.929-3.086
							l2.521-58.519l-351.473-6.347l-51.995,63.625C1986.86,1656.975,1983.575,1655.136,1984.069,1652.166z"/>
					</g>
				</g>
			</g>
			<g>
				<g>
					<path style="fill:#82B378;" d="M671.922,1487.505l-65.932-5.671c0,0,3.812-40.648-7.788-94.864
						c-8.557-40.05-25.525-87.497-58.635-131.445c-56.464-74.941-224.185-116.865-224.185-116.865v-9.701l6.03-0.653
						c0,0-2.599-1.813-6.03-2.863v-22.934c4.955-0.07,12.051,0.226,19.06,1.867c-3.929-0.98-12.308-2.901-19.06-3.422v-12.058
						c242.957,6.496,322.193,153.251,347.025,266.825C678.31,1428.411,671.922,1487.505,671.922,1487.505z"/>
					<path style="fill:#A8D29F;" d="M960.477,1466.174l-288.554,21.331c-1.493-44.444-13.093-90.407-24.311-125.251
						c-11.218-34.845-22.071-58.581-22.071-58.581c-86.323-189.145-310.158-214.779-310.158-214.779l248.434-101.742
						c120.017,9.032,204.215,66.671,263.107,139.045C942.264,1267.941,960.477,1466.174,960.477,1466.174z"/>
				</g>
				<path style="opacity:0.5;fill:#82B378;" d="M960.477,1466.174l-288.554,21.331l-65.932-5.671c0,0,3.812-40.648-7.788-94.864
					c13.747-8.278,30.092-16.547,49.409-24.716c5.072-2.147,10.005-4.326,14.797-6.535
					c183.723-84.798,166.609-216.888,164.515-229.522C942.264,1267.941,960.477,1466.174,960.477,1466.174z"/>
				<g>
					<path style="fill:#82B378;" d="M937.785,1488.395l-257.154-4.975l0.907-4.952c0.137-0.75,13.343-76.146-17.489-161.871
						c-18.063-50.222-47.51-94.157-87.523-130.585c-50.128-45.638-117.119-79.606-199.111-100.961l-12.632-3.29l200.712-79.879
						l0.771-0.018c2.172-0.048,53.865-0.829,120.315,30.598c38.948,18.421,74.807,44.16,106.58,76.503
						c39.641,40.351,72.986,91.145,99.109,150.968c2.064,4.597,50.91,114.258,48.329,180.104l-0.004,0.081L937.785,1488.395z
						 M690.711,1475.055l239.009,4.624l2.33-40.015c1.022-26.303-6.862-65.077-22.801-112.132
						c-12.11-35.749-24.677-63.854-24.802-64.133c-25.673-58.788-58.356-108.637-97.162-148.203
						c-31.004-31.612-65.973-56.776-103.938-74.795c-41.194-19.552-77.113-26.364-97.906-28.73
						c-10.918-1.242-21.967,0.227-32.176,4.29l-139.103,55.359c-7.255,2.888-6.888,13.261,0.546,15.654
						c67.645,21.781,123.964,52.944,167.773,92.888c41.056,37.434,71.254,82.591,89.753,134.214
						c16.444,45.89,20.395,88.493,20.813,116.151C693.374,1451.688,691.729,1467.493,690.711,1475.055z"/>
				</g>
				<path style="fill:#82B378;" d="M711.832,1125.219c-42.364,0-65.827,25.337-65.827,67.7c0,42.364,43.867,67.962,86.23,67.962
					c42.364,0,67.182-25.598,67.182-67.962C799.417,1150.556,754.195,1125.219,711.832,1125.219z"/>
			</g>
			<g>
				<circle style="fill:#E2810E;" cx="823.996" cy="1432.834" r="274.962"/>
				<circle style="fill:#FFB93E;" cx="800.009" cy="1432.834" r="274.962"/>
				<g>
					<path style="fill:#FFA412;" d="M800.009,1686.603c-33.817,0-66.626-6.625-97.516-19.69
						c-29.833-12.618-56.624-30.681-79.628-53.685c-23.005-23.005-41.068-49.796-53.686-79.629
						c-13.066-30.891-19.69-63.699-19.69-97.516c0-33.817,6.625-66.626,19.69-97.516c12.618-29.833,30.681-56.624,53.686-79.629
						c23.005-23.005,49.796-41.068,79.628-53.686c30.89-13.065,63.7-19.69,97.516-19.69c33.817,0,66.626,6.625,97.516,19.69
						c29.833,12.619,56.624,30.681,79.629,53.686c23.005,23.005,41.068,49.796,53.686,79.629
						c13.066,30.891,19.69,63.699,19.69,97.516c0,33.817-6.624,66.626-19.69,97.516c-12.618,29.832-30.681,56.623-53.686,79.629
						c-23.005,23.005-49.796,41.068-79.629,53.685C866.635,1679.978,833.826,1686.603,800.009,1686.603z M800.009,1200.507
						c-62.924,0-122.083,24.504-166.577,68.999c-44.494,44.494-68.998,103.653-68.998,166.577
						c0,62.925,24.504,122.082,68.998,166.577c44.495,44.494,103.653,68.998,166.577,68.998s122.083-24.504,166.577-68.998
						c44.494-44.495,68.999-103.653,68.999-166.577c0-62.924-24.504-122.083-68.999-166.577
						C922.092,1225.011,862.934,1200.507,800.009,1200.507z"/>
				</g>
				<g>
					<path style="fill:#FFA412;" d="M834.498,1508.792c0.641-5.402,0.441-10.249-0.592-14.547
						c-1.036-4.298-3.086-8.324-6.149-12.079c-3.067-3.755-7.166-7.373-12.299-10.853c-5.135-3.477-11.486-7.036-19.06-10.673
						c-13.009-6.371-24.741-12.82-35.199-19.342c-10.463-6.526-19.233-13.664-26.317-21.419
						c-7.085-7.755-12.266-16.456-15.545-26.107c-3.279-9.651-4.17-20.78-2.674-33.386c1.297-10.932,4.418-20.673,9.365-29.22
						c4.945-8.539,11.415-15.729,19.411-21.567c7.993-5.834,17.258-10.246,27.796-13.237c10.535-2.987,22.105-4.325,34.705-4.001
						l4.9-41.292l33.235,3.943l-4.968,41.87c11.723,2.958,22.151,7.393,31.281,13.299c9.126,5.909,16.635,13.063,22.522,21.456
						c5.881,8.399,10.046,17.99,12.488,28.78c2.439,10.792,2.897,22.62,1.371,35.481l-60.03-7.123
						c1.832-15.435-0.226-27.387-6.172-35.857c-5.948-8.462-14.669-13.383-26.162-14.747c-6.231-0.739-11.703-0.505-16.407,0.698
						c-4.707,1.199-8.693,3.143-11.961,5.817c-3.266,2.681-5.838,5.994-7.71,9.947c-1.873,3.952-3.092,8.309-3.656,13.069
						c-0.565,4.76-0.385,9.15,0.543,13.171c0.925,4.025,2.891,7.877,5.896,11.562c3.002,3.682,7.137,7.303,12.402,10.861
						c5.265,3.562,11.869,7.378,19.813,11.452c12.833,6.609,24.447,13.206,34.831,19.785c10.382,6.582,19.113,13.782,26.189,21.598
						c7.076,7.819,12.254,16.557,15.533,26.204c3.277,9.654,4.176,20.718,2.695,33.195c-1.343,11.318-4.521,21.25-9.536,29.781
						c-5.016,8.538-11.515,15.659-19.493,21.363c-7.98,5.707-17.294,9.953-27.946,12.732c-10.65,2.779-22.276,4.007-34.877,3.687
						l-4.556,38.396l-33.027-3.919l4.533-38.205c-11.36-2.52-22.174-6.348-32.446-11.479c-10.275-5.134-19.134-11.825-26.581-20.081
						c-7.446-8.252-13.005-18.206-16.677-29.863c-3.673-11.653-4.594-25.199-2.763-40.634l60.031,7.123
						c-1.084,9.133-0.71,16.909,1.13,23.319c1.836,6.415,4.683,11.711,8.541,15.886c3.857,4.175,8.432,7.329,13.729,9.455
						c5.294,2.129,10.778,3.527,16.459,4.202c6.508,0.772,12.318,0.616,17.433-0.473c5.114-1.089,9.509-2.915,13.184-5.482
						c3.675-2.563,6.583-5.774,8.725-9.629C832.58,1517.859,833.933,1513.555,834.498,1508.792z"/>
				</g>
			</g>
		</g>
		<path style="fill:#D68D5D;" d="M1717.451,823.784c0,0,3.574,29.832,24.512,42.524l10.235-20.547
			C1752.197,845.761,1725.744,836.567,1717.451,823.784z"/>
	</g>
	<path style="fill:#202F4E;" d="M2609.278,1710.399H250.723c-1.971,0-3.583-1.613-3.583-3.583l0,0c0-1.971,1.613-3.584,3.583-3.584
		h2358.555c1.971,0,3.583,1.613,3.583,3.584l0,0C2612.861,1708.786,2611.249,1710.399,2609.278,1710.399z"/>
</g>
</svg>
