<svg width="350" height="387" viewBox="0 0 350 387" fill="none" xmlns="http://www.w3.org/2000/svg">
<g clip-path="url(#clip0_1_3)">
<path d="M170.9 33.7L470.6 34.1L470.3 248.3L170.6 247.9C111.4 247.8 63.5 199.8 63.6 140.6C63.7 81.5 111.7 33.6 170.9 33.7Z" fill="#E58D05"/>
<path d="M170.2 209.2C170.2 199.7 162.6 192.1 153.1 192.1C143.6 192.1 136 199.7 136 209.2C136 218.6 143.6 226.3 153.1 226.3C162.6 226.3 170.2 218.6 170.2 209.2Z" fill="#FC3E00"/>
<path d="M218.5 209.2C218.5 199.7 210.8 192.1 201.3 192.1C191.9 192.1 184.2 199.7 184.2 209.2C184.2 218.6 191.9 226.3 201.3 226.3C210.8 226.3 218.5 218.6 218.5 209.2Z" fill="#FC3E00"/>
<path d="M266.7 209.2C266.7 199.7 259 192.1 249.6 192.1C240.1 192.1 232.5 199.7 232.5 209.2C232.5 218.6 240.1 226.3 249.6 226.3C259 226.3 266.7 218.6 266.7 209.2Z" fill="#FC3E00"/>
<path d="M314.9 209.2C314.9 199.7 307.3 192.1 297.8 192.1C288.4 192.1 280.7 199.7 280.7 209.2C280.7 218.6 288.4 226.3 297.8 226.3C307.3 226.3 314.9 218.6 314.9 209.2Z" fill="#FC3E00"/>
<path d="M170.2 277.4C170.2 267.9 162.6 260.3 153.1 260.3C143.6 260.3 136 267.9 136 277.4C136 286.9 143.6 294.5 153.1 294.5C162.6 294.5 170.2 286.9 170.2 277.4Z" fill="#5073B3"/>
<path d="M218.5 277.4C218.5 267.9 210.8 260.3 201.3 260.3C191.9 260.3 184.2 267.9 184.2 277.4C184.2 286.9 191.9 294.5 201.3 294.5C210.8 294.5 218.5 286.9 218.5 277.4Z" fill="#5073B3"/>
<path d="M266.7 277.4C266.7 267.9 259 260.3 249.6 260.3C240.1 260.3 232.5 267.9 232.5 277.4C232.5 286.9 240.1 294.5 249.6 294.5C259 294.5 266.7 286.9 266.7 277.4Z" fill="#5073B3"/>
<path d="M314.9 277.4C314.9 267.9 307.3 260.3 297.8 260.3C288.4 260.3 280.7 267.9 280.7 277.4C280.7 286.9 288.4 294.5 297.8 294.5C307.3 294.5 314.9 286.9 314.9 277.4Z" fill="#5073B3"/>
<path d="M170.2 345.6C170.2 336.2 162.6 328.5 153.1 328.5C143.6 328.5 136 336.2 136 345.6C136 355.1 143.6 362.7 153.1 362.7C162.6 362.7 170.2 355.1 170.2 345.6Z" fill="#5073B3"/>
<path d="M218.5 345.6C218.5 336.2 210.8 328.5 201.3 328.5C191.9 328.5 184.2 336.2 184.2 345.6C184.2 355.1 191.9 362.7 201.3 362.7C210.8 362.7 218.5 355.1 218.5 345.6Z" fill="#5073B3"/>
<path d="M266.7 345.6C266.7 336.2 259 328.5 249.6 328.5C240.1 328.5 232.5 336.2 232.5 345.6C232.5 355.1 240.1 362.7 249.6 362.7C259 362.7 266.7 355.1 266.7 345.6Z" fill="#5073B3"/>
<path d="M314.9 345.6C314.9 336.2 307.3 328.5 297.8 328.5C288.4 328.5 280.7 336.2 280.7 345.6C280.7 355.1 288.4 362.7 297.8 362.7C307.3 362.7 314.9 355.1 314.9 345.6Z" fill="#5073B3"/>
</g>
<defs>
<clipPath id="clip0_1_3">
<rect width="350" height="387" fill="white" transform="matrix(-1 0 0 1 350 0)"/>
</clipPath>
</defs>
</svg>
