<?xml version="1.0" encoding="utf-8"?>
<!-- Generator: Adobe Illustrator 27.5.0, SVG Export Plug-In . SVG Version: 6.00 Build 0)  -->
<svg version="1.1" id="Layer_1" xmlns="http://www.w3.org/2000/svg" xmlns:xlink="http://www.w3.org/1999/xlink" x="0px" y="0px"
	 viewBox="0 0 3261.764 2000" style="enable-background:new 0 0 3261.764 2000;" xml:space="preserve">
<rect x="0.001" y="-0.001" style="fill:transparent;" width="3261.763" height="2000"/>
<g>
	<path style="fill:#D6EEF6;" d="M386.77,1817.631h2507.248c273.948-264.191,300.076-966.113,17.896-1216.045
		c-370.527-328.183-743.316-188.393-943.427-256.161C1489.548,183.233,759.99-13.066,374.728,505.467
		c-162.061,218.124-112.228,527.236-83.556,598.478c24.972,62.049,190.183,160.469-39.424,296.002
		C-84.937,1598.688,378.832,1813.973,386.77,1817.631z"/>
	<g>
		<path style="opacity:0.8;fill:#FFFFFF;" d="M669.012,770.912c-4.572-19.899-22.379-34.744-43.664-34.744
			c-3.908,0-7.698,0.503-11.312,1.442c-10.505-22.466-33.305-38.033-59.744-38.033c-6.836,0-13.427,1.041-19.627,2.972
			c-14.233-23.569-40.091-39.328-69.631-39.328c-35.147,0-65.081,22.307-76.424,53.534c-8.029-4.477-17.272-7.037-27.117-7.037
			c-30.807,0-55.781,24.974-55.781,55.78c0,1.827,0.094,3.631,0.267,5.413H669.012z"/>
		<path style="opacity:0.8;fill:#FFFFFF;" d="M716.542,411.38c4.301-18.721,21.054-32.688,41.08-32.688
			c3.676,0,7.242,0.473,10.642,1.357c9.884-21.137,31.334-35.782,56.208-35.782c6.432,0,12.633,0.979,18.466,2.795
			c13.391-22.174,37.719-37,65.511-37c33.066,0,61.229,20.987,71.9,50.366c7.554-4.212,16.25-6.621,25.512-6.621
			c28.983,0,52.479,23.496,52.479,52.479c0,1.719-0.089,3.417-0.25,5.092H716.542z"/>
		<path style="opacity:0.8;fill:#FFFFFF;" d="M2527.498,1283.906c4.57-13.909,22.373-24.285,43.654-24.285
			c3.907,0,7.697,0.35,11.311,1.008c10.503-15.704,33.298-26.586,59.731-26.586c6.835,0,13.425,0.728,19.624,2.078
			c14.23-16.475,40.082-27.491,69.618-27.491c35.14,0,65.068,15.593,76.409,37.421c8.027-3.129,17.268-4.918,27.111-4.918
			c30.801,0,55.771,17.456,55.771,38.99c0,1.277-0.095,2.539-0.267,3.783H2527.498z"/>
		<path style="opacity:0.8;fill:#FFFFFF;" d="M3039.423,731.265c-4.877-19.047-23.874-33.257-46.582-33.257
			c-4.169,0-8.212,0.481-12.067,1.381c-11.207-21.505-35.53-36.406-63.736-36.406c-7.292,0-14.324,0.996-20.938,2.844
			c-15.185-22.56-42.771-37.644-74.286-37.644c-37.494,0-69.43,21.352-81.531,51.244c-8.564-4.285-18.426-6.735-28.928-6.735
			c-32.866,0-59.51,23.905-59.51,53.394c0,1.749,0.102,3.476,0.284,5.181H3039.423z"/>
	</g>
	<path style="fill:#96D9C9;" d="M2421.207,1823.126c19.604-29.475,127.1-187.384,197.191-213.696
		c77.369-29.047,4.449,86.318,4.449,86.318s137.252-174.047,187.617-158.356c46.17,14.382,0,122.264,0,122.264
		s52.001-59.738,115.061-59.738c61.373,0-42.877,211.867-48.501,223.208H2421.207z"/>
	<g>
		<g>
			<g>
				<path style="fill:#3C8F7C;" d="M665.107,1594.719c0,0-266.282-122.07-312.075-185.738
					c-45.793-63.667,21.522-67.273,21.522-67.273s-118.829-107.451-102.111-152.686c16.718-45.234,78.275-3.748,78.275-3.748
					s-76.407-158.136-40.38-174.033c67.104-29.61,161.24,140.535,161.24,140.535s-20.23-73.914,25.978-71.512
					c69.687,3.622,66.808,170.82,66.808,170.82s7.871-64.108,49.872-43.283C689.599,1245.164,665.107,1594.719,665.107,1594.719z"/>
			</g>
			<path style="fill:#50BFA5;" d="M629.401,1181.938c-32.799-16.921-65.466,32.538-65.466,32.538s3.309-130.591-66.378-134.213
				c-46.208-2.402-25.978,71.512-25.978,71.512S377.442,981.63,310.338,1011.24l355.076,580.762
				C667.922,1551.445,694.375,1215.461,629.401,1181.938z"/>
		</g>
		<g>
			<g>
				<path style="fill:#3C8F7C;" d="M658.226,1596.232c0,0-217.783,25.148-274.171,2.736c-56.389-22.41-15.978-50.092-15.978-50.092
					s-121.08-22.127-130.421-56.657c-9.341-34.531,46.513-31.778,46.513-31.778s-116.099-69.901-100.576-93.428
					c28.915-43.819,161.992,26.741,161.992,26.741s-44.922-38.46-15.05-54.419c45.049-24.068,116.327,81.308,116.327,81.308
					s-4.428-25.973,30.871-28.853C541.068,1386.625,658.226,1596.232,658.226,1596.232z"/>
			</g>
			<path style="fill:#50BFA5;" d="M479.163,1372.919c-35.299,2.878-32.3,47.725-32.3,47.725s-72.567-124.909-117.616-100.841
				c-29.872,15.958,5.47,68.373,5.47,68.373s-122.208-64.981-151.123-21.162l475.294,228.097
				C642.726,1568.865,538.321,1368.093,479.163,1372.919z"/>
		</g>
		<path style="fill:#96D9C9;" d="M1139.941,1819.721c-31.611-38.104-204.954-242.251-317.979-276.271
			c-124.762-37.552-7.175,111.593-7.175,111.593s-221.323-225.008-302.542-204.724c-74.45,18.596,0,158.065,0,158.065
			s-83.853-77.231-185.54-77.231c-98.967,0,69.141,273.906,78.21,288.567H1139.941z"/>
		<g>
			<g>
				<path style="fill:#256653;" d="M647.705,1818.553c-101.05-127.758-223.898-245.844-369.974-348.529
					c-1.458-1.025-3.426,1.338-1.958,2.388c138.541,99.012,261.11,215.932,364.249,348.057L647.705,1818.553z"/>
			</g>
			<path style="fill:#256653;" d="M359.248,1584.395c3.376-2.227,12.128-10.674,23.805-13.323
				c11.057-3.473,25.039-1.146,24.557-0.86c0.291,0.619-9.209-9.419-24.043-12.338c-14.25-3.869-33.833-0.619-40.233,4.637
				c-14.524,9.139-15.687,24.663-8.489,27.543C341.998,1593.115,351.555,1588.889,359.248,1584.395z"/>
			<path style="fill:#256653;" d="M299.755,1535.663c3.376-2.228,12.127-10.674,23.804-13.322
				c11.057-3.473,25.039-1.146,24.557-0.86c0.29,0.619-9.21-9.419-24.044-12.338c-14.25-3.869-33.832-0.619-40.232,4.636
				c-14.524,9.14-15.687,24.664-8.489,27.543C282.505,1544.385,292.06,1540.157,299.755,1535.663z"/>
			<path style="fill:#256653;" d="M459.384,1562.749c-3.165,1.835-14.425,5.521-19.598,13.884c-6.001,7.534-5.916,19.746-5.5,19.472
				c0.654,0.481-9.066-11.196-9.674-24.332c-1.799-13.045,5.516-27.548,12.695-30.612c13.113-8.066,31.063-2.801,33.027,4.159
				C472.52,1552.315,465.933,1558.337,459.384,1562.749z"/>
			<g>
				<g>
					<path style="fill:#256653;" d="M474.783,1388.6c90.427,131.306,156.423,277.17,194.158,432.131l6.198-1.546
						c-37.576-151.716-103.13-297.324-193.406-428.486c-20.982-30.483-43.638-66.646-82.921-78.538
						c-0.758-0.229-1.046,0.842-0.322,1.096C434.37,1325.825,455.153,1360.096,474.783,1388.6z"/>
				</g>
				<path style="fill:#256653;" d="M466.518,1307.169c-2.328,3.182-11.238,11.484-13.857,22.391
					c-3.516,10.347-0.739,23.298-0.441,22.845c0.671,0.257-10.311-8.376-13.742-22.108c-4.441-13.17-1.332-31.438,4.192-37.49
					c9.542-13.682,26.213-15.068,29.451-8.434C475.558,1290.962,471.2,1299.928,466.518,1307.169z"/>
				<path style="fill:#256653;" d="M444.886,1424.374c3.376-2.228,12.128-10.674,23.805-13.322
					c11.057-3.473,25.04-1.147,24.557-0.86c0.29,0.619-9.21-9.42-24.043-12.338c-14.25-3.869-33.833-0.619-40.233,4.635
					c-14.524,9.141-15.686,24.665-8.488,27.543C427.636,1433.096,437.192,1428.867,444.886,1424.374z"/>
				<path style="fill:#256653;" d="M477.532,1475.743c3.376-2.227,12.128-10.674,23.805-13.322
					c11.058-3.473,25.039-1.146,24.558-0.861c0.29,0.62-9.21-9.419-24.043-12.338c-14.25-3.868-33.833-0.618-40.233,4.636
					c-14.524,9.141-15.687,24.665-8.489,27.543C460.282,1484.465,469.839,1480.236,477.532,1475.743z"/>
				<path style="fill:#256653;" d="M512.198,1365.295c-2.839,2.802-13.046,9.693-17.48,20.079
					c-5.227,9.702-4.681,22.898-4.31,22.494c0.619,0.353-8.762-9.782-9.821-23.845c-2.152-13.656,4.015-31.24,10.497-36.407
					c11.743-12.112,28.44-11.037,30.513-4.011C523.872,1350.615,518.048,1358.832,512.198,1365.295z"/>
				<path style="fill:#256653;" d="M560.205,1423.551c-4.041,1.992-18.154,5.605-25.253,15.424
					c-8.036,8.74-9.056,23.686-8.522,23.384c0.756,0.641-10.061-14.418-9.593-30.537c-1-16.102,9.284-33.262,18.351-36.438
					c16.785-8.826,38.258-0.953,40.021,7.715C577.236,1411.833,568.623,1418.674,560.205,1423.551z"/>
				<path style="fill:#256653;" d="M610.732,1511.784c-4.343,1.333-18.909,2.688-27.684,11.257
					c-9.501,7.357-13.211,21.932-12.629,21.717c0.628,0.75-7.31-15.785-3.933-31.602c1.927-16.029,15.169-31.336,24.681-33.05
					c18.142-6.075,37.886,5.042,38.055,13.864C629.641,1502.896,619.912,1508.295,610.732,1511.784z"/>
				<path style="fill:#256653;" d="M383.378,1327.826c1.893-1.453,6.672-6.807,13.455-8.848c6.378-2.505,14.758-1.697,14.486-1.508
					c0.201,0.354-5.892-5.198-14.804-6.321c-8.611-1.709-20.043,1.01-23.582,4.38c-8.162,5.997-8.119,15.228-3.725,16.638
					C373.584,1333.688,379.038,1330.799,383.378,1327.826z"/>
				<path style="fill:#256653;" d="M401.507,1290.332c-0.084,2.282-1.726,9.069,0.676,15.31c1.761,6.225,7.564,11.904,7.56,11.588
					c0.425-0.068-8.024-1.165-14.422-7.042c-6.714-5.298-11.376-15.376-10.667-20.039c0.127-9.672,8.017-15.276,11.9-12.9
					C400.521,1279.543,401.389,1285.322,401.507,1290.332z"/>
			</g>
			<path style="fill:#256653;" d="M256.91,1486.025c1.893-1.454,6.671-6.808,13.455-8.849c6.377-2.504,14.758-1.698,14.486-1.509
				c0.201,0.355-5.892-5.197-14.804-6.32c-8.612-1.709-20.043,1.011-23.582,4.379c-8.162,5.998-8.119,15.229-3.725,16.639
				C247.116,1491.887,252.57,1488.998,256.91,1486.025z"/>
			<path style="fill:#256653;" d="M278.78,1448.208c-0.285,2.268-2.519,8.906-0.676,15.311c1.207,6.338,6.49,12.439,6.513,12.124
				c0.429-0.035-7.895-1.771-13.753-8.116c-6.224-5.792-9.982-16.192-8.864-20.784c0.978-9.63,9.334-14.613,12.996-11.951
				C278.748,1437.379,279.104,1443.205,278.78,1448.208z"/>
		</g>
		<g>
			<path style="fill:#256653;" d="M298.235,1700.463c92.336,9.41,178.333,47.307,261.119,84.26
				c55.825,24.919,53.01,32.018,64.382,35.728c1.843,0.601,3.685-1.259,2.788-2.91c-4.375-8.055-15.844-13.506-23.824-18.139
				c-9.29-5.394-18.994-10.16-28.842-14.606c-21.072-9.512-42.693-18.072-64.172-26.749
				c-43.697-17.652-88.102-34.256-134.266-45.494c-25.307-6.161-51.06-10.604-77.123-12.789
				C297.811,1699.724,297.754,1700.414,298.235,1700.463L298.235,1700.463z"/>
		</g>
		<path style="fill:#256653;" d="M373.552,1672.732c-0.601,3.522-4.547,13.749-2.113,23.85c1.444,9.963,9.267,19.801,9.324,19.31
			c0.672-0.03-12.195-3.238-20.898-13.489c-9.311-9.409-14.457-25.86-12.395-32.961c2.192-14.968,15.577-22.245,21.105-17.872
			C374.251,1655.834,374.403,1664.947,373.552,1672.732z"/>
		<path style="fill:#256653;" d="M454.897,1699.813c-0.601,3.521-4.547,13.747-2.113,23.85c1.443,9.962,9.266,19.799,9.324,19.309
			c0.673-0.031-12.195-3.238-20.898-13.488c-9.312-9.41-14.457-25.861-12.395-32.961c2.192-14.968,15.577-22.245,21.105-17.872
			C455.596,1682.913,455.748,1692.027,454.897,1699.813z"/>
		<path style="fill:#256653;" d="M537.551,1734.066c-0.602,3.521-4.547,13.747-2.113,23.85c1.443,9.962,9.266,19.799,9.324,19.309
			c0.672-0.03-12.196-3.237-20.898-13.488c-9.312-9.409-14.457-25.861-12.396-32.96c2.192-14.968,15.577-22.245,21.105-17.872
			C538.25,1717.167,538.402,1726.28,537.551,1734.066z"/>
		<path style="fill:#256653;" d="M349.268,1743.395c1.671-2.906,4.902-12.49,12.759-18.672c7.044-6.593,18.713-9.781,18.462-9.392
			c0.477,0.372-10.932-3.943-23.497-0.903c-12.51,2.102-26.178,11.556-28.92,17.857c-7.37,12.168-1.874,24.474,4.825,24.121
			C339.639,1756.211,345.222,1749.574,349.268,1743.395z"/>
		<path style="fill:#256653;" d="M433.88,1771.239c1.671-2.906,4.901-12.49,12.76-18.672c7.043-6.593,18.713-9.782,18.462-9.392
			c0.477,0.371-10.932-3.942-23.498-0.903c-12.51,2.103-26.177,11.555-28.919,17.857c-7.37,12.167-1.874,24.475,4.825,24.122
			C424.251,1784.055,429.834,1777.418,433.88,1771.239z"/>
		<path style="fill:#256653;" d="M284.829,1714.731c1.462-1.62,4.853-7.241,10.666-10.157c5.359-3.274,13.14-3.844,12.927-3.631
			c0.247,0.293-6.304-3.818-14.626-3.453c-8.154-0.216-18.08,4.041-20.697,7.661c-6.356,6.736-4.655,15.139-0.397,15.739
			C276.962,1721.596,281.41,1718.115,284.829,1714.731z"/>
		<path style="fill:#256653;" d="M294.594,1677.746c0.335,2.092,0.062,8.532,3.374,13.845c2.725,5.397,9.036,9.668,8.974,9.381
			c0.374-0.128-7.521,0.188-14.408-4.171c-7.071-3.781-13.134-12.238-13.327-16.598c-1.627-8.831,4.552-15.165,8.518-13.605
			C291.752,1668.068,293.584,1673.2,294.594,1677.746z"/>
	</g>
	<g>
		<rect x="669.57" y="1016.694" style="fill:#FAE0B2;" width="1905.393" height="640.415"/>
		<polygon style="fill:#F7CC7F;" points="1414.607,1657.109 663.896,1657.109 663.896,1017.486 1042.089,326.204 1414.607,1016.694 
					"/>
		<rect x="2046.054" y="1622.026" style="fill:#F7CC7F;" width="149.436" height="53.533"/>
		<g>
			<rect x="863.964" y="1131.289" style="fill:#FFFFFF;" width="180.27" height="358.986"/>
			
				<rect x="795.052" y="1234.715" transform="matrix(-1.836970e-16 1 -1 -1.836970e-16 2269.2373 352.3271)" style="fill:#86B1F2;" width="326.807" height="152.135"/>
			<rect x="1034.268" y="1131.289" style="fill:#FFFFFF;" width="180.27" height="358.986"/>
			
				<rect x="956.644" y="1234.715" transform="matrix(-1.836970e-16 1 -1 -1.836970e-16 2430.8291 190.7354)" style="fill:#86B1F2;" width="326.807" height="152.135"/>
		</g>
		<g>
			<path style="fill:#FFFFFF;" d="M1042.598,940.313H921.539V820.298c0-66.859,54.199-121.058,121.058-121.058l0,0V940.313z"/>
			<path style="fill:#86B1F2;" d="M933.912,929.508V812.21c0-56.424,45.74-102.166,102.164-102.166l0,0v219.463H933.912z"/>
			<path style="fill:#FFFFFF;" d="M1156.963,940.313h-121.058V699.24l0,0c66.858,0,121.058,54.199,121.058,121.058V940.313z"/>
			<path style="fill:#86B1F2;" d="M1042.426,929.508V710.044l0,0c56.423,0,102.164,45.741,102.164,102.166v117.298H1042.426z"/>
		</g>
		<rect x="1444.456" y="1508.323" style="fill:#F7CC7F;" width="149.437" height="53.535"/>
		<rect x="1534.592" y="1586.313" style="fill:#F7CC7F;" width="149.436" height="53.535"/>
		<rect x="663.896" y="1404.478" style="fill:#F7CC7F;" width="74.718" height="53.535"/>
		<rect x="663.768" y="1490.275" style="fill:#F7CC7F;" width="124.489" height="53.533"/>
		<rect x="663.768" y="1318.682" style="fill:#F7CC7F;" width="124.489" height="53.534"/>
		<rect x="752.464" y="981.046" style="fill:#F7CC7F;" width="149.436" height="53.534"/>
		<rect x="803.714" y="1056.167" style="fill:#F7CC7F;" width="149.437" height="53.534"/>
		<rect x="1339.889" y="1141.957" style="fill:#F7CC7F;" width="74.719" height="53.533"/>
		<rect x="1265.171" y="1239.707" style="fill:#F7CC7F;" width="149.436" height="53.534"/>
		<rect x="1339.889" y="1337.458" style="fill:#F7CC7F;" width="74.719" height="53.533"/>
		<rect x="1134.886" y="1525.982" style="fill:#F7CC7F;" width="149.437" height="53.534"/>
		<rect x="1238.874" y="841.358" style="fill:#F7CC7F;" width="149.436" height="53.534"/>
		<rect x="1265.171" y="756.684" style="fill:#F7CC7F;" width="149.436" height="53.533"/>
		<rect x="1060.169" y="510.087" style="fill:#F7CC7F;" width="149.436" height="53.534"/>
		<rect x="1254.101" y="1629.551" style="fill:#F7CC7F;" width="149.436" height="53.533"/>
		<rect x="1934.196" y="1192.734" style="fill:#F7CC7F;" width="149.438" height="53.534"/>
		<rect x="2067.814" y="990.721" style="fill:#F7CC7F;" width="149.436" height="53.534"/>
		<rect x="1811.589" y="1044.255" style="fill:#F7CC7F;" width="149.437" height="53.533"/>
		<rect x="1530.118" y="989.928" style="fill:#F7CC7F;" width="149.436" height="53.534"/>
		<rect x="1879.232" y="1277.41" style="fill:#F7CC7F;" width="149.438" height="53.533"/>
		<rect x="1963.32" y="1362.085" style="fill:#F7CC7F;" width="149.436" height="53.534"/>
		<rect x="1850.99" y="1527.976" style="fill:#F7CC7F;" width="149.438" height="53.534"/>
		<rect x="2170.762" y="1532.962" style="fill:#F7CC7F;" width="149.438" height="53.534"/>
		<rect x="2480.033" y="1052.463" style="fill:#F7CC7F;" width="94.93" height="53.534"/>
		<rect x="2535.893" y="1165.967" style="fill:#F7CC7F;" width="39.07" height="53.535"/>
		<rect x="2500.245" y="1509.832" style="fill:#F7CC7F;" width="74.718" height="53.535"/>
		<rect x="632.821" y="1656.316" style="fill:#B75742;" width="1972.348" height="45.991"/>
		<rect x="663.027" y="1702.308" style="fill:#F47458;" width="1911.936" height="112.39"/>
		<path style="fill:#F48C7F;" d="M1042.089,274.828l-425.662,742.658h47.469l378.193-659.839l367.459,659.839h58.202
			C1467.75,1017.486,1049.021,287.039,1042.089,274.828z"/>
		<polygon style="fill:#B75742;" points="2651.844,1017.486 1467.75,1017.486 1042.089,274.828 2226.183,274.828 		"/>
		<g>
			<rect x="1503.757" y="1130.146" style="fill:#FFFFFF;" width="180.72" height="359.878"/>
			<rect x="1674.485" y="1130.146" style="fill:#FFFFFF;" width="180.719" height="359.878"/>
			<rect x="1522.228" y="1146.275" style="fill:#86B1F2;" width="314.507" height="327.619"/>
		</g>
		<g>
			<rect x="2144.121" y="1130.146" style="fill:#FFFFFF;" width="180.718" height="359.878"/>
			<rect x="2314.848" y="1130.146" style="fill:#FFFFFF;" width="180.719" height="359.878"/>
			<rect x="2162.591" y="1146.275" style="fill:#86B1F2;" width="314.507" height="327.619"/>
		</g>
		<g>
			<defs>
				<polygon id="SVGID_1_" points="1926.758,1116.823 2162.591,1473.895 2477.098,1473.895 2540.174,1116.823 				"/>
			</defs>
			<clipPath id="SVGID_00000103231095785230319810000015113881594410153358_">
				<use xlink:href="#SVGID_1_"  style="overflow:visible;"/>
			</clipPath>
			<g style="clip-path:url(#SVGID_00000103231095785230319810000015113881594410153358_);">
				<path style="fill:#FFFFFF;" d="M2238.416,1268.722c0,0-15.742-42.654,5.46-52.896c16.294-7.864,22.169-0.035,22.169-0.035
					s25.326-14.232,30.787,13.989c0,0,17.909,2.516,19.881,18.32c1.981,15.805-7.44,21.7-7.44,21.7s8.489,9.04,4.683,20.725
					c-3.802,11.685-21.426,19.6-31.202,11.57c-9.768-8.025-10.312-6.761-18.687-7.75
					C2255.682,1293.359,2238.416,1268.722,2238.416,1268.722z"/>
				<path style="fill:#B86956;" d="M2100.783,1236.898c-5.535,3.609-12.672,10.563-9.914,10.563c2.768,0,14.422-8.747,16.08-8.747
					c1.649,0-14.536,10.398-12.649,13.235c1.892,2.837,18.261-11.996,19.146-11.109c0.887,0.89-14.539,12.174-11.463,14.064
					c3.07,1.89,16.371-12.703,17.135-11.936c0.766,0.769-8.862,11.228-6.023,12.646c2.83,1.415,9.333-7.211,10.521-8.394
					c1.18-1.183,9.099-4.492,14.649-4.964c5.561-0.472,35.848,33.135,44.565,36.748c8.719,3.615,12.858,6.981,12.858,6.981
					l45.515,44.791l18.424-30.783l-22.935-17.438c0,0-18.572-18.474-20.851-20.232c-2.281-1.758-66.463-30.941-69.658-34.132
					c-3.188-3.19-4.96-7.561-4.96-10.397s-0.592-11.702-4.137-10.991c-3.545,0.707-0.694,6.949-2.724,10.279
					C2127.745,1227.958,2106.312,1233.289,2100.783,1236.898z"/>
				<path style="fill:#B86956;" d="M2479.054,1227.958c5.531,3.608,12.672,10.563,9.905,10.563c-2.76,0-14.422-8.747-16.071-8.747
					c-1.652,0,14.532,10.401,12.641,13.238c-1.887,2.838-18.253-11.995-19.138-11.109c-0.887,0.887,14.535,12.171,11.462,14.064
					c-3.073,1.891-16.372-12.706-17.138-11.938c-0.771,0.767,8.862,11.227,6.027,12.646c-2.84,1.419-9.337-7.207-10.52-8.39
					c-1.182-1.184-9.1-4.492-14.654-4.964c-5.557-0.476-35.847,33.135-44.565,36.747c-8.719,3.613-12.854,6.978-12.854,6.978
					l-45.524,44.795l-18.415-30.787l22.932-17.438c0,0,18.576-18.471,20.854-20.229c2.279-1.762,66.463-30.94,69.656-34.132
					c3.189-3.19,4.963-7.564,4.963-10.401c0-2.838,0.591-11.699,4.136-10.991c3.545,0.711,0.687,6.953,2.716,10.284
					C2452.082,1219.021,2473.521,1224.349,2479.054,1227.958z"/>
				<path style="fill:#B86956;" d="M2495.596,1504.928c-0.863-4.266-4.07-10.977-8.324-10.026
					c-5.502,1.223-12.748,3.774-18.031,9.062c-9.72,9.72-54.877,19.953-59.922,24.999l-18.775-43.708l-43.614,28.364
					c0,0,43.493,60.982,52.47,60.982s75.738-47.46,80.97-47.46c5.24,0,10.306,9.012,12.93,15.372
					c2.612,6.354,8.718,10.026,11.997,8.305C2507.555,1549.63,2498.807,1520.658,2495.596,1504.928z"/>
				<path style="fill:#B86956;" d="M2274.586,1564.365c0,17.152,1.206,22.019,1.206,22.019s5.226,99.701,5.226,110.149
					c0,10.441-32.482,24.213-35.326,27.057c-2.854,2.852,13.486,7.597,28.2,4.753c14.722-2.851,22.316-3.802,26.594-3.802
					c4.271,0,6.165-6.168,2.372-18.518c-3.797-12.342,15.929-84.735,11.497-117.773c-0.966-7.154-3.645-13.793-2.636-19.797
					c3.65-21.725,17.01-35.196,17.01-35.196l-43.631-8.597C2285.098,1524.66,2274.586,1547.221,2274.586,1564.365z"/>
				<path style="fill:#F47458;" d="M2332.827,1275.718l13.616,46.846c0,0-15.508,9.494-17.724,23.733
					c-2.216,14.25,6.646,26.278,23.734,36.09c17.095,9.813,40.392,19.682,53.048,60.51c4.107,13.257-2.945,42.357,2.229,52.334
					c10.77,20.761,26.194,11.112,26.194,11.112s-39.866,64.927-72.466,62.711c-32.605-2.216-41.287-8.469-58.381-13.85
					c-17.095-5.382-30.702-0.314-30.702-0.314s3.931-44.229,12.021-70.165c3.522-11.277,2.201-23.477-3.596-33.774
					c-2.722-4.846-5.322-10.184-7.004-15.322c-2.772-8.498-9.416-15.123-17.792-18.225c-7.455-2.766-14.653-7.281-14.653-14.449
					c0-14.872,1.267-56.658-1.893-69.314c-3.167-12.664-26.578-18.975-26.578-18.975s8.941-25.916,24.135-32.248
					c0,0,30.93,16.087,38.205,19.253c7.283,3.165,16.465,1.9,29.443-4.431C2317.637,1290.912,2332.827,1275.718,2332.827,1275.718z"
					/>
				<path style="fill:#B86956;" d="M2255.253,1285.487c0,0,10.234,26.335,4.503,38.105c-3.202,6.568,28.163-18.767,28.163-18.767
					l-11.312-29.519L2255.253,1285.487z"/>
				<path style="fill:#9C4F3D;" d="M2278.508,1280.271c-3.145,6.328-7.867,11.938-14.578,15.49c-1.673,0.89-3.287,1.561-4.838,2.04
					c-1.76-6.961-3.839-12.313-3.839-12.313l21.354-10.181L2278.508,1280.271z"/>
				<path style="fill:#B86956;" d="M2268.709,1225.753c0,0,9.643,2.705,15.131,11.899c5.488,9.19,4.43,40.31-16.166,51.227
					c-20.596,10.912-31.388-12.074-30.621-28.818C2237.816,1243.316,2242.918,1221.219,2268.709,1225.753z"/>
				<path style="fill:#B86956;" d="M2279.951,1262.815c-1.371,4.377,0.015,8.647,3.097,9.533c3.087,0.89,6.7-1.94,8.081-6.321
					c1.372-4.377-0.015-8.647-3.102-9.533C2284.945,1255.604,2281.332,1258.434,2279.951,1262.815z"/>
				<path style="fill:#FFFFFF;" d="M2263.215,1221.165c-3.511,2.534-0.272,12.999,7.218,23.38
					c7.498,10.377,16.423,16.737,19.924,14.207c3.508-2.533,0.272-12.999-7.224-23.38
					C2275.635,1224.992,2266.717,1218.632,2263.215,1221.165z"/>
				<path style="fill:#B75742;" d="M2273.892,1728.343c14.722-2.851,22.316-3.802,26.594-3.802c4.271,0,6.165-6.168,2.372-18.518
					c-6.221,6.218-32.182,7.934-40.887,8.333c-7.661,4.431-14.993,7.947-16.279,9.233
					C2242.838,1726.441,2259.178,1731.187,2273.892,1728.343z"/>
				<path style="fill:#B75742;" d="M2495.596,1504.928c-0.863-4.266-4.07-10.977-8.324-10.026c-2.986,0.665-6.488,1.73-9.919,3.401
					c3.196,5.439,10.782,18.832,13.278,27.008c3.193,10.462-0.301,8.454,0.764,13.063l0,0c0.723,1.422,1.365,2.837,1.903,4.138
					c2.612,6.354,8.718,10.026,11.997,8.305C2507.555,1549.63,2498.807,1520.658,2495.596,1504.928z"/>
			</g>
		</g>
		<g>
			<path style="fill:#F8A492;" d="M1908.193,1400.958c-7.546,6.212-6.232,7.597-7.222,8.36c-1.168,0.901-20.8-0.033-20.8-0.033
				s-57.833-2.296-60.965-2.551l-40.654-48.271l-17.498,22.881c0,0,45.753,53.748,49.184,54.796
				c3.43,1.048,80.865-6.743,87.727-7.162c0,0,8.686,3.148,14.174,4.917c5.488,1.769,11.078,0.604,12.661,0.824
				c0.233,0.033,5.505,0.407,11.899-1.195c5.512-1.381-0.537-3.174-0.537-3.174s-10.811,0.303-10.781-0.727
				c0.022-0.794,5.974-0.541,12.093-1.99c1.574-0.373,3.124-0.748,4.546-1.107c3.73-0.94,4.047-4.024-0.061-3.805
				c-1.45,0.077-3.852,0.277-5.517,0.712c-1.8,0.472-3.648,0.188-5.239,0.299c-3.157,0.22-5.452,0.428-5.404,0.266
				c0.063-0.211-0.64-0.702,1.015-1.162c1.987-0.552,6.538-0.572,9.383-1.665c1.612-0.618,5.073-1.656,5.073-1.656
				s5.387-2.438,5.313-2.854c-0.399-2.248-4.799-1.878-6.865-0.681c-1.723-0.094-5.326,1.126-5.326,1.126s-7.94,0.438-8.139-0.918
				c-0.162-1.113,18.266-6.594,17.733-8.83c-0.435-1.827-6.068-0.486-6.068-0.486s-3.327,1.133-4.466,1.404
				c-1.335,0.318-5.431,0.894-5.431,0.894s-14.409,1.199-14.507-0.09c-0.097-1.291,0.758-4.568,1.594-5.017s2.824-0.258,3.659-0.707
				c0.835-0.449,1.521-1.939,1.016-3.278c-0.503-1.338-5.419-1.124-5.419-1.124S1910.37,1399.165,1908.193,1400.958z"/>
			<path style="fill:#355389;" d="M1762.36,1329.762c1.489-0.334,5.889-0.068,14.772,9.473
				c11.346,12.185,35.035,50.241,35.035,50.241l-30.807,22.921l-34.176-43.77l2.125-31.138
				C1749.311,1337.489,1761.947,1329.854,1762.36,1329.762z"/>
			<path style="fill:#59729E;" d="M1725.047,1315.02c9.512,2.089,32.452,9.997,42.621,15.861c0,0-3.353,48.971-29.234,120.62
				c-6.301,17.443-5.996,21.99-7.066,22.456l-105.833-0.063c0,0,33.506-83.688,32.241-99.014
				c-1.264-15.328,9.562-65.418,9.562-65.418s0.698,0.042,22.984,1.031C1700.716,1310.955,1714.89,1312.788,1725.047,1315.02z"/>
			<path style="fill:#F7A491;" d="M1669.277,1340.83c12.871-0.899-4.095,104.312-4.095,104.312
				c12.831,4.27,51.592,17.487,59.869,19.074c3.358,0.643,11.7-0.074,15.091,0.385c3.474,0.47,6.577,1.063,8.148,1.796
				c0.578,0.269,15.538,11.668,16.57,13.561c1.279,2.346,4.83,8.352,3.467,10.164s-7.742-8.173-7.742-8.173l-3.51-3.431
				c3.792,6.404,11.824,15.659,9.761,17.681c-2.014,1.971-9.058-7.122-14.136-13.395c4.097,6.337,8.463,16.878,6.546,17.818
				c-1.724,0.845-6.642-11.32-14.033-16.439c-2.738-1.896-6.565,0.27-9.046-0.015c-1.824-0.209-4.681-0.376-6.267-1.326
				l-8.177-4.896c-3.09-0.544-6.536-1.027-9.756-1.204c-3.738-0.206-9.204-1.171-14.003-1.292
				c-27.635-0.699-40.699-1.857-48.885-3.482c-8.067-1.601-14.001-12.566-13.09-47.473
				C1637.072,1383.043,1638.111,1343.008,1669.277,1340.83z"/>
			<path style="fill:#355389;" d="M1630.132,1397.35c5.894-35.279,13.894-85.491,36.771-87.876
				c8.419-0.877,21.166,22.24,6.364,90.29C1667.133,1401.559,1643.992,1400.963,1630.132,1397.35z"/>
			<g>
				<g>
					<path style="fill:#FFFFFF;" d="M1737.456,1221.297c0,0-11.016-12.658-21.551,0.498c0.081-0.104-4.82-1.538-5.547-1.533
						c-3.099,0.023-6.682,1.896-9.666,2.614c-10.632,2.556-18.011,11.533-21.48,20.776c-4.212,11.217-1.727,21.104,3.825,31.802
						c1.637,3.152,3.457,6.298,6.116,8.8c3.208,3.019,6.685,2.442,10.005,4.316c2.797,1.577,2.928,4.813,6.811,4.833
						c5.441,0.029,12.479-4.107,18.377-1.398c5.891,2.706,21.729,1.918,21.771,1.916c20.349-1.017,18.319-37.198,18.475-49.774
						C1764.738,1232.322,1750.004,1220.796,1737.456,1221.297z"/>
					<path style="fill:#F7A491;" d="M1730.543,1300.023l0.972,13.317l0.448,7.416c0,0,1.607,8.694-7.93,8.189
						c-18.305-0.968-21.691-16.458-21.691-16.458l5.102-39.43L1730.543,1300.023z"/>
					<path style="fill:#F47458;" d="M1705.793,1285.838c4.456,14.027,16.787,23.548,25.732,27.63l-0.982-13.444l-23.099-26.965
						L1705.793,1285.838z"/>
					<path style="fill:#F7A491;" d="M1725.192,1236.338c12.829-2.818,25.644,6.137,26.699,18.273
						c0.46,5.275,0.743,11.88,0.37,19.039c-0.895,17.218-11.715,33.044-20.152,32.254c-8.438-0.789-30.958-14.095-30.052-38.571
						C1702.618,1252.221,1711.73,1239.299,1725.192,1236.338z"/>
					<path style="fill:#F7A491;" d="M1708.137,1269.843c-0.272,3.792-3.21,6.611-6.562,6.298s-5.849-3.641-5.577-7.432
						c0.272-3.791,3.21-6.611,6.563-6.298C1705.912,1262.726,1708.408,1266.053,1708.137,1269.843z"/>
				</g>
				<path style="fill:#FFFFFF;" d="M1730.517,1283.863c0,0-11.442-0.026-13.413,3.238c-1.972,3.264-2.308,8.737,1.565,14.197
					c3.874,5.46,15.586,6.354,19.255,5.104c3.668-1.251,8.843-9.694,7.475-15.685
					C1744.029,1284.73,1730.517,1283.863,1730.517,1283.863z"/>
				<path style="fill:#F7A491;" d="M1724.765,1290.202c0,0-1.184,3.944,0.021,5.082c1.168,1.104,2.738,2.21,4.316,2.842
					c2.557,1.023,5.256,0.71,7.23-0.73c0.194-0.142,0.378-0.295,0.547-0.458c1.688-1.635,2.999-5.027,2.999-5.027
					s-4.096-2.31-6.778-2.691C1730.418,1288.837,1724.765,1290.202,1724.765,1290.202z"/>
			</g>
		</g>
	</g>
	<path style="fill:#B75742;" d="M3026.102,1813.834H314.008c-2.758,0-4.994,2.102-4.994,4.696l0,0c0,2.594,2.236,4.696,4.994,4.696
		h2712.094c2.758,0,4.994-2.102,4.994-4.696l0,0C3031.096,1815.936,3028.859,1813.834,3026.102,1813.834z"/>
</g>
</svg>
